<?xml version="1.0" standalone="no"?>
<!DOCTYPE svg PUBLIC "-//W3C//DTD SVG 1.1//EN" "http://www.w3.org/Graphics/SVG/1.1/DTD/svg11.dtd" >
<svg>
<metadata>
Created by FontForge 20090914 at Sat Feb 17 16:05:18 2018
 By www-data
Copyright (c) Gophmann A.L, 2006. All rights reserved.
</metadata>
<defs>
<font id="Andantinoscript" horiz-adv-x="304" >
  <font-face 
    font-family="Andantino script"
    font-weight="400"
    font-stretch="normal"
    units-per-em="1000"
    panose-1="2 0 4 0 0 0 0 0 0 0"
    ascent="800"
    descent="-200"
    x-height="308.998"
    cap-height="800.998"
    bbox="-199 -307.503 1856 984"
    underline-thickness="20"
    underline-position="-123"
    unicode-range="U+0020-U+F002"
  />
<missing-glyph horiz-adv-x="500" 
d="M63 0v935h375v-935h-375zM125 63h250v810h-250v-810z" />
    <glyph glyph-name=".notdef" horiz-adv-x="500" 
d="M63 0v935h375v-935h-375zM125 63h250v810h-250v-810z" />
    <glyph glyph-name="space" unicode=" " horiz-adv-x="221" 
 />
    <glyph glyph-name="exclam" unicode="!" horiz-adv-x="320" 
d="M420 628l-259 -491l-17 3l210 488c4.66699 8.66699 14.667 13 30 13c21.333 0 33.333 -4.33301 36 -13zM154 61c0 -16.667 -6.33301 -33.167 -19 -49.5s-27 -24.5 -43 -24.5c-18 0 -27 10.667 -27 32c0 16 6.5 32.333 19.5 49s27.167 25 42.5 25c18 0 27 -10.667 27 -32z
" />
    <glyph glyph-name="quotedbl" unicode="&#x22;" horiz-adv-x="269" 
d="M469 712c0 -40 -13.332 -78.999 -39.999 -116.999s-58.667 -62.667 -96 -74l-10 13c22.667 10 42.667 24 60 42c19.333 20.667 30.666 41.667 33.999 63c-22.667 3.33301 -34 15.666 -34 36.999c0 18 5.83301 34.833 17.5 50.5s25.167 23.5 40.5 23.5
c18.667 0 28 -12.667 28 -38zM356.001 712.001c0 -40 -13.332 -78.999 -39.999 -116.999s-59 -62.667 -97 -74l-9 13c22 10 41.667 24 59 42c19.333 20.667 30.666 41.667 33.999 63c-22.667 3.33301 -34 15.666 -34 36.999c0 18 5.83301 34.833 17.5 50.5
s25.5 23.5 41.5 23.5c18.667 0 28 -12.667 28 -38z" />
    <glyph glyph-name="numbersign" unicode="#" horiz-adv-x="589" 
d="M594 393l-18 -40h-121l-52 -113h121l-19 -41h-121l-90 -196h-50l90 196h-113l-91 -196h-50l91 196h-114l19 41h114l52 113h-114l18 40h114l96 208h50l-96 -208h114l95 208h50l-95 -208h120zM405 353h-113l-52 -113h113z" />
    <glyph glyph-name="dollar" unicode="$" horiz-adv-x="367" 
d="M397 472c0 -18.667 -4.66699 -36.666 -14 -53.999c-11.333 -21.333 -26.666 -32 -45.999 -32s-29 11.667 -29 35c0 22.667 9.83301 41.667 29.5 57s29.5 24.333 29.5 27c0 11.333 -9 21 -27 29l-96 -196c22 -24.667 37 -43.667 45 -57c14 -22.667 21 -46.667 21 -72
c0 -45.333 -17.333 -86 -52 -122c-36.667 -38 -80.667 -57 -132 -57c-10.667 0 -21 1.33301 -31 4l-28 -58h-23l31 64c-38.667 16 -58 43.667 -58 83c0 18 5 35.667 15 53c12 20.667 27.333 31 46 31c20 0 30 -11.333 30 -34c0 -32.667 -18.333 -54.667 -55 -66
c-5.33301 -1.33301 -8 -5.33301 -8 -12c0 -16 12.667 -29 38 -39l104 213c-34 41.333 -51 79.666 -51 114.999c0 41.333 15.333 80.333 46 117c33.333 40 73 60 119 60c9.33301 0 18.666 -1 27.999 -3l31 65h23l-35 -72c32.667 -16 49 -42.333 49 -79zM321 542.001
c-7.33301 1.33301 -14 2 -20 2c-30.667 0 -56.667 -11 -78 -33s-32 -46.667 -32 -74c0 -25.333 12.667 -53 38 -83zM248 157.001c0 26 -15.3311 57.333 -45.998 94l-99 -201c9.33301 -2 17.666 -3 24.999 -3c35.333 0 64.166 10.5 86.499 31.5s33.5 47.167 33.5 78.5z" />
    <glyph glyph-name="percent" unicode="%" horiz-adv-x="580" 
d="M560 558l-434 -555c-4.66699 0 -8.5 2.16699 -11.5 6.5s-4.16699 8.5 -3.5 12.5l294 403c-18.667 -8 -36 -12 -52 -12c-8.66699 0 -15.334 0.333008 -20.001 1c-19.333 -35.333 -43.833 -65.166 -73.5 -89.499s-57.5 -36.5 -83.5 -36.5c-51.333 0 -77 25.667 -77 77
c0 55.333 22 108.666 66 159.999s93.333 77 148 77c9.33301 0 14 -2.33301 14 -7c0 -6.66699 -4.66699 -10 -14 -10c-37.333 0 -75 -32.667 -113 -98c-34.667 -60 -52 -110 -52 -150c0 -22 10 -33 30 -33c18 0 39.333 12.667 64 38c22.667 24 42.334 52.667 59.001 86
c-21.333 16.667 -32 39 -32 67c0 25.333 6 45.333 18 60c9.33301 12 20 18 32 18c28.667 0 43 -19.333 43 -58c0 -26.667 -6.66699 -54.667 -20 -84c2.66699 -0.666992 7 -1 13 -1c34.667 0 68.667 22.667 102 68l72 97c6 8 10.667 9 14 3l14 -27c4 -6.66699 5 -11 3 -13z
M543 238c0 -52.667 -20.666 -106.001 -61.999 -160.001s-83.333 -81 -126 -81c-26.667 0 -46.334 7.33301 -59.001 22s-19 32.334 -19 53.001c0 51.333 21.667 103 65 155c46 54.667 95.333 82 148 82c35.333 0 53 -23.667 53 -71zM329.001 520.999c0 22 -4.66699 33 -14 33
c-11.333 0 -17 -18.667 -17 -56c0 -24 4 -41.333 12 -52c12.667 29.333 19 54.333 19 75zM513.001 262.999c0 20.667 -10.333 31 -31 31c-31.333 0 -64.833 -29 -100.5 -87s-53.5 -111.667 -53.5 -161c0 -22 10 -33 30 -33c32 0 65.833 28.333 101.5 85
s53.5 111.667 53.5 165z" />
    <glyph glyph-name="ampersand" unicode="&#x26;" horiz-adv-x="1042" 
d="M1024 279c-10.667 -15.333 -35.333 -31.3369 -74 -48.0039c-48 -20.667 -105.667 -35.667 -173 -45c-22 -3.33301 -42.333 -5.66602 -61 -6.99902c-41.333 -48 -106 -90.667 -194 -128c-84 -35.333 -170.333 -53 -259 -53c-76 0 -133.667 16 -173 48
c-34.667 29.333 -52 69 -52 119c0 68.667 39.667 129.334 119 182.001c70.667 46.667 159.334 79.334 266.001 98.001c-26.667 22 -40 48.333 -40 79c0 54 37.833 105.667 113.5 155s152.834 74 231.501 74c29.333 0 51.666 -7.66699 66.999 -23
c13.333 -14 20 -31.667 20 -53c0 -23.333 -7.33301 -44.666 -22 -63.999s-32.667 -29 -54 -29c-13.333 0 -24.333 4.5 -33 13.5s-13 19.167 -13 30.5c0 12.667 4.5 24 13.5 34s21.167 15 36.5 15l7.5 -1.5c5 -1 9.5 -1.5 13.5 -1.5c18 0 27 9 27 27
c0 6.66699 -5 13.334 -15 20.001c-12.667 8.66699 -28.667 13 -48 13c-46.667 0 -105.334 -27 -176.001 -81c-76.667 -58.667 -115 -114.334 -115 -167.001c0 -15.333 4.66699 -27.333 14 -36c41.333 6 81.666 9 120.999 9c41.333 0 75 -2.83301 101 -8.5s39 -12.5 39 -20.5
c0 -8.66699 -12.667 -16.334 -38 -23.001s-54 -10 -86 -10c-52.667 0 -98.667 10 -138 30c-94 -22 -173 -62.833 -237 -122.5s-96 -120.5 -96 -182.5c0 -65.333 47.333 -98 142 -98c161.333 0 302 51.333 422 154h-42c-62 0 -126.833 3.16699 -194.5 9.5
s-113.167 9.5 -136.5 9.5c-42 0 -80.333 -14.333 -115 -43c-6.66699 2.66699 -10 8.66699 -10 18c30 32.667 74.333 54.334 133 65.001c36.667 7.33301 93.334 11 170.001 11c56 0.666992 121.333 -2 196 -8s121.334 -9 140.001 -9c32 0 65 5.33301 99 16
c39.333 11.333 66.666 26.333 81.999 45c14 1.33301 21 -3 21 -13z" />
    <glyph glyph-name="quotesingle" unicode="'" horiz-adv-x="269" 
d="M356 712c0 -40 -13.332 -78.999 -39.999 -116.999s-59 -62.667 -97 -74l-9 13c22 10 41.667 24 59 42c19.333 20.667 30.666 41.667 33.999 63c-22.667 3.33301 -34 15.666 -34 36.999c0 18 5.83301 34.833 17.5 50.5s25.5 23.5 41.5 23.5c18.667 0 28 -12.667 28 -38z
" />
    <glyph glyph-name="parenleft" unicode="(" horiz-adv-x="282" 
d="M389 672l-56.001 -50.998c-79.333 -81.333 -135 -155 -167 -221c-38.667 -80.667 -58 -178.334 -58 -293.001c0 -29.333 2.16699 -60.5 6.5 -93.5s6.5 -50.5 6.5 -52.5c0 -7.33301 -1.66699 -11 -5 -11c-11.333 0 -21.333 34 -30 102c-6.66699 54 -10 98 -10 132
c0 93.333 18 174.666 54 243.999c33.333 64.667 87.333 129.334 162 194.001c8.66699 7.33301 23.334 17.666 44.001 30.999c23.333 16 37.333 24 42 24c7.33301 0 11 -1.66699 11 -5z" />
    <glyph glyph-name="parenright" unicode=")" horiz-adv-x="308" 
d="M334 445c0 -93.333 -18.001 -174.664 -54.001 -243.997c-32.667 -64.667 -86.667 -129.334 -162 -194.001c-47.333 -40.667 -76.333 -61 -87 -61c-6 0 -9 3.66699 -9 11c17.333 8.66699 35.333 23 54 43c76.667 83.333 132.334 162.666 167.001 237.999
c39.333 85.333 59 180.666 59 285.999c0 29.333 -2.16699 60.333 -6.5 93s-6.5 50 -6.5 52c0 6.66699 1.66699 10 5 10c11.333 0 21.333 -34 30 -102c6.66699 -54 10 -98 10 -132z" />
    <glyph glyph-name="asterisk" unicode="*" horiz-adv-x="364" 
d="M301 562c0 -9.33301 -4.33008 -15.666 -12.9971 -18.999c-5.33301 -2 -13.833 -2.16699 -25.5 -0.5s-20.834 0.5 -27.501 -3.5l-20 -12l21 -12c8 -4.66699 17.667 -6.33398 29 -5.00098c12 1.33301 20 1.33301 24 0c8 -3.33301 12 -9.66602 12 -18.999
c0 -8.66699 -3.33301 -17.667 -10 -27s-14 -14 -22 -14c-4.66699 0 -9 1.5 -13 4.5s-8.33301 10 -13 21s-10.334 18.5 -17.001 22.5l-20 12v-24c0 -9.33301 3.5 -18.833 10.5 -28.5s10.833 -16.167 11.5 -19.5c2.66699 -17.333 -8.33301 -26 -33 -26
c-23.333 0 -34 8.66699 -32 26c0.666992 5.33301 4.66699 12.666 12 21.999s11 18 11 26v24l-23 -13c-10.667 -6 -17.334 -14 -20.001 -24s-5.66699 -16.333 -9 -19s-7.33301 -4 -12 -4c-8 0 -15.333 4.5 -22 13.5s-10 17.833 -10 26.5c0 14.667 6.33301 22 19 22
c2.66699 0 6.5 -0.666992 11.5 -2s9.16699 -2 12.5 -2c6.66699 0 13.334 2 20.001 6l22 13l-21 13c-7.33301 4 -14.333 6 -21 6c-3.33301 0 -7.66602 -0.833008 -12.999 -2.5s-9 -2.5 -11 -2.5c-12.667 0 -19 7.33301 -19 22c0 8.66699 3.5 17.334 10.5 26.001
s14.5 13 22.5 13c4.66699 0 8.66699 -1.16699 12 -3.5s6.66602 -8.5 9.99902 -18.5s9.66602 -17.667 18.999 -23l22 -13v25c0 12 -3.66699 21.667 -11 29s-11.333 12.666 -12 15.999c-2 18 8.66699 27 32 27c24 0 35 -9 33 -27c-0.666992 -3.33301 -4.5 -9 -11.5 -17
s-10.5 -17.333 -10.5 -28v-24l19 11c8 4.66699 14.5 12.5 19.5 23.5s9 17.667 12 20s6.83301 3.5 11.5 3.5c8 0 15.5 -4.66699 22.5 -14s10.5 -18.333 10.5 -27z" />
    <glyph glyph-name="plus" unicode="+" horiz-adv-x="654" 
d="M596 317l-15 -35h-189l-80 -199h-45l80 199h-191l14 35h191l81 199h45l-81 -199h190z" />
    <glyph glyph-name="comma" unicode="," horiz-adv-x="180" 
d="M132 55c0 -40 -13.333 -79 -40 -117s-59 -62.667 -97 -74l-9 13c22.667 10 42.334 24 59.001 42c19.333 20.667 30.666 41.667 33.999 63c-22.667 2.66699 -34 15 -34 37c0 18 5.83301 34.833 17.5 50.5s25.5 23.5 41.5 23.5c18.667 0 28 -12.667 28 -38z" />
    <glyph glyph-name="hyphen" unicode="-" horiz-adv-x="327" 
d="M278 190l-14 -27c-3.33301 -6.66699 -6.66602 -10 -9.99902 -10h-194c-10.667 0 -14 3.33301 -10 10l14 27c3.33301 6.66699 6.66602 10 9.99902 10h194c10 0 13.333 -3.33301 10 -10z" />
    <glyph glyph-name="hyphen" unicode="&#x2010;" horiz-adv-x="327" 
d="M278 190l-14 -27c-3.33301 -6.66699 -6.66602 -10 -9.99902 -10h-194c-10.667 0 -14 3.33301 -10 10l14 27c3.33301 6.66699 6.66602 10 9.99902 10h194c10 0 13.333 -3.33301 10 -10z" />
    <glyph glyph-name="period" unicode="." horiz-adv-x="184" 
d="M135 61c0 -16.667 -6.5 -33.167 -19.5 -49.5s-27.5 -24.5 -43.5 -24.5c-18 0 -27 10.667 -27 32c0 16 6.5 32.333 19.5 49s27.5 25 43.5 25c18 0 27 -10.667 27 -32z" />
    <glyph glyph-name="slash" unicode="/" horiz-adv-x="350" 
d="M567 750l-519 -783h-52l519 783h52z" />
    <glyph glyph-name="zero" unicode="0" horiz-adv-x="444" 
d="M483 478c0 -50 -15.666 -112.665 -46.999 -187.998c-33.333 -80.667 -74 -147.334 -122 -200.001c-56 -62 -113.333 -93 -172 -93c-26 0 -47 8.66699 -63 26c-20 21.333 -30 52.666 -30 93.999c0 97.333 36.667 202.333 110 315c75.333 115.333 147.666 173 216.999 173
c34 0 60.333 -11.333 79 -34s28 -53.667 28 -93zM421.001 506.002c0 53.333 -16.668 80 -50.001 80c-34.667 0 -74 -35.667 -118 -107c-38 -62 -72 -136.333 -102 -223c-28.667 -84 -43 -147.667 -43 -191c0 -34.667 14.667 -52 44 -52c36.667 0 77.334 34.333 122.001 103
c38.667 58.667 73 129.667 103 213c29.333 78.667 44 137.667 44 177z" />
    <glyph glyph-name="one" unicode="1" horiz-adv-x="294" 
d="M375 592l-251.002 -565.999c-2.66699 -6 -4.33398 -9.33301 -5.00098 -10c-2 -2.66699 -5 -4.66699 -9 -6l-55 -12c-5.33301 -0.666992 -9.33301 0.333008 -12 3s-2.66699 6.33398 0 11.001l234 481l-4 2c-11.333 -10.667 -32.666 -24.334 -63.999 -41.001
s-57.666 -27.334 -78.999 -32.001c-9.33301 1.33301 -12.666 7.66602 -9.99902 18.999c38.667 12.667 79.667 36 123 70c37.333 28.667 69 58.334 95 89.001c5.33301 2 15.333 3 30 3c8 0 10.333 -3.66699 7 -11z" />
    <glyph glyph-name="two" unicode="2" horiz-adv-x="407" 
d="M430 508c0 -96.667 -59.334 -184.997 -178.001 -264.997c-35.333 -23.333 -73.666 -53.666 -114.999 -90.999c-34.667 -30.667 -54 -49.334 -58 -56.001l1 -5c13.333 5.33301 30.333 8 51 8c22 0 51 -9.16699 87 -27.5s59.667 -27.5 71 -27.5c30.667 0 53 17 67 51
c7.33301 3.33301 11.666 0.666016 12.999 -8.00098c-4.66699 -14 -17 -31 -37 -51c-26 -26 -51.333 -39 -76 -39c-19.333 0 -45 8.66699 -77 26s-62 26 -90 26c-25.333 0 -48 -15.667 -68 -47c-2.66699 -4.66699 -6.66699 -6.66699 -12 -6c-10 0.666992 -12 6 -6 16l29 51
c20 31.333 44.333 62 73 92l102 100c49.333 50 87.333 95 114 135c35.333 54 53 102 53 144c0 36 -14.667 54 -44 54c-32 0 -70.5 -29.667 -115.5 -89s-67.5 -109.333 -67.5 -150c0 -16.667 4 -30.334 12 -41.001c0.666992 -2.66699 -0.666016 -5.33398 -3.99902 -8.00098
c-2.66699 -2 -5.66699 -2 -9 0c-14.667 15.333 -22 42.333 -22 81c0 47.333 19.667 95.333 59 144c43.333 53.333 92 80 146 80c30 0 54.333 -8.5 73 -25.5s28 -40.833 28 -71.5z" />
    <glyph glyph-name="three" unicode="3" horiz-adv-x="392" 
d="M441 506c0 -37.333 -24.6699 -76.334 -74.0029 -117.001c-29.333 -24.667 -58.666 -44 -87.999 -58l-1 -4c12.667 -2 25.667 -7.66699 39 -17c22 -15.333 33 -37 33 -65c0 -60 -26.5 -116.167 -79.5 -168.5s-108.833 -78.5 -167.5 -78.5c-24 0 -44 5.66699 -60 17
c-13.333 9.33301 -21.666 20 -24.999 32c0 2.66699 0.666992 4.66699 2 6c-7.33301 6.66699 -11 16.667 -11 30c0 16 5.83301 31 17.5 45s25.167 21 40.5 21c20.667 0 31 -12 31 -36c0 -15.333 -5.33301 -30.666 -16 -45.999s-22.667 -23 -36 -23h-11
c12.667 -18.667 31.667 -28 57 -28c40.667 0 83.334 30 128.001 90c42.667 56.667 64 106 64 148c0 36 -14 54 -42 54c-6.66699 0 -15.667 -2.66699 -27 -8l-21 -10c-2 -0.666992 -4.83301 0.333008 -8.5 3s-5.5 5.66699 -5.5 9c0 2.66699 2.33301 5 7 7
c45.333 18.667 79.333 38 102 58c27.333 24.667 50.333 52.667 69 84s28 59.333 28 84c0 34 -15 51 -45 51c-32.667 0 -65.5 -18.333 -98.5 -55s-49.5 -71.334 -49.5 -104.001c0 -11.333 1.66699 -20.333 5 -27c3.33301 -4.66699 1.66602 -8 -5.00098 -10
c-7.33301 -2 -13.333 4.33301 -18 19c-4 12 -6 22 -6 30c0 44.667 16.333 83.334 49 116.001s72.334 49 119.001 49c32 0 57.333 -9.5 76 -28.5s28 -42.167 28 -69.5z" />
    <glyph glyph-name="four" unicode="4" horiz-adv-x="425" 
d="M446 586l-136.999 -354.002l105 2c9.33301 0 14 -2 14 -6c0 -4.66699 -6.33301 -10.667 -19 -18c-15.333 -8.66699 -32.666 -13 -51.999 -13l-62 -1l-66 -169c-6 -16 -14 -24.333 -24 -25l-45 -5c-2.66699 -0.666992 -4.66699 -0.166992 -6 1.5
s-1.66602 4.83398 -0.999023 9.50098c0.666992 3.33301 2 7.33301 4 12l75 176l-191 -1c-8.66699 0 -13 3 -13 9c0 2.66699 1.66699 5.66699 5 9c69.333 60 139 125.333 209 196c85.333 86.667 140.666 147.334 165.999 182.001c5.33301 8 14.666 12 27.999 12
c11.333 0 14.666 -5.66699 9.99902 -17zM363.001 504.998l-5 0.999023l-240 -261c-4 -3.33301 -5.66699 -6.66602 -5 -9.99902c0 -3.33301 2.33301 -5 7 -5l127 2z" />
    <glyph glyph-name="five" unicode="5" horiz-adv-x="422" 
d="M502 600c0 -8 -8.66406 -18.334 -25.9971 -31.001c-20 -16 -42.667 -24 -68 -24h-113c-7.33301 0 -12.333 -3.33301 -15 -10l-66 -145c-1.33301 -3.33301 -2 -5.66602 -2 -6.99902c0.666992 -1.33301 2 -1.66602 4 -0.999023c29.333 15.333 60 23 92 23
c31.333 0 56.166 -8.16699 74.499 -24.5s27.5 -39.5 27.5 -69.5c0 -75.333 -31.833 -146.5 -95.5 -213.5s-128.834 -100.5 -195.501 -100.5c-25.333 0 -46.5 7.33301 -63.5 22s-25.5 34.334 -25.5 59.001c0 20 6.16699 37.333 18.5 52s26.166 22 41.499 22
c24.667 0 37 -14.667 37 -44c0 -16 -5.16699 -29.167 -15.5 -39.5s-22.166 -15.5 -35.499 -15.5c-2.66699 0 -6.33398 0.666992 -11.001 2s-7.66699 2 -9 2c-2 0 -3 -1 -3 -3c0 -8 5 -15.667 15 -23c12.667 -8.66699 27 -13 43 -13c56.667 0 110.667 39.667 162 119
c45.333 70.667 68 133 68 187c0 38 -18.667 57 -56 57c-26 0 -54.333 -11.333 -85 -34c-20 -14.667 -34 -28.334 -42 -41.001c-4 -4.66699 -9.66699 -6.66699 -17 -6c-7.33301 1.33301 -9 6.66602 -5 15.999l122 269c4.66699 10.667 11 15.667 19 15
c43.333 -3.33301 83.333 -4.33301 120 -3c17.333 0.666992 38 2.66699 62 6s35.667 5 35 5c5.33301 0 8 -2.66699 8 -8z" />
    <glyph glyph-name="six" unicode="6" horiz-adv-x="421" 
d="M471 590c2 -4 1.66602 -7.83301 -1.00098 -11.5s-6 -5.16699 -10 -4.5c-6.66699 8 -20 12 -40 12c-31.333 0 -70.666 -27.333 -117.999 -82c-40.667 -47.333 -81 -107.333 -121 -180c44.667 57.333 91.334 86 140.001 86c24.667 0 45 -8.66699 61 -26
c16.667 -19.333 25 -46 25 -80c0 -64.667 -28.667 -132 -86 -202s-115 -105 -173 -105c-72 0 -108 40.333 -108 121c0 47.333 20.333 110.5 61 189.5s88.334 146.5 143.001 202.5c63.333 63.333 121.666 95 174.999 95c23.333 0 40.666 -5 51.999 -15zM350.999 335
c0 34.667 -13.999 51.999 -41.999 51.999c-18.667 0 -41.667 -11.333 -69 -34c-21.333 -17.333 -39.333 -35.666 -54 -54.999c-3.33301 -4.66699 -7 -7 -11 -7c-4.66699 0 -7.33398 1.66699 -8.00098 5c-52 -100 -78 -172.333 -78 -217c0 -43.333 16.667 -65 50 -65
c42 0 88.333 40.667 139 122c48.667 78.667 73 145 73 199z" />
    <glyph glyph-name="seven" unicode="7" horiz-adv-x="398" 
d="M486 567c0 -0.666992 -4.99805 -6.33691 -14.998 -17.0039c-70.667 -79.333 -130.334 -165.666 -179.001 -258.999l-29 -57l127 1c7.33301 0 11 -2.33301 11 -7c0 -9.33301 -8.66699 -16.666 -26 -21.999c-14 -4.66699 -26.333 -7 -37 -7h-92
c-34.667 -71.333 -60.667 -128.666 -78 -171.999c-3.33301 -9.33301 -9.33301 -15 -18 -17l-48 -13c-11.333 -3.33301 -17 0 -17 10c0 1.33301 0.666992 3 2 5c20 50.667 50.333 113 91 187l-77 -1c-6.66699 0 -10 3.66699 -10 11c0 16.667 7.33301 25 22 25h85
c16.667 28 32.667 53.333 48 76c33.333 49.333 88.666 118.666 165.999 207.999l-3 4c-4 -1.33301 -11.667 -2 -23 -2c-12.667 0 -35.5 4.83301 -68.5 14.5s-58.5 14.5 -76.5 14.5c-24 0 -43.333 -6.66699 -58 -20s-21.667 -31.666 -21 -54.999
c-0.666992 -2 -3 -3.66699 -7 -5c-4.66699 -0.666992 -8 0 -10 2c-0.666992 5.33301 -1 10.333 -1 15c0 32.667 12.833 59.834 38.5 81.501s57.5 32.5 95.5 32.5c20 0 46.167 -4.16699 78.5 -12.5s56.833 -12.5 73.5 -12.5c8 0 16.833 0.5 26.5 1.5l14.5 1.5
c10 0 15 -3.66699 15 -11z" />
    <glyph glyph-name="eight" unicode="8" horiz-adv-x="415" 
d="M464 514c0 -35.333 -14.333 -68.667 -43 -100c-26 -28 -59.333 -51 -100 -69c-12.667 -6 -23.334 -11.333 -32.001 -16c20.667 -47.333 32.667 -76 36 -86c12 -32 18 -60.667 18 -86c0 -44.667 -18 -82.667 -54 -114s-77 -47 -123 -47c-38 0 -69 10.833 -93 32.5
s-36 49.167 -36 82.5c0 52 25 99.333 75 142c30.667 26.667 68 49.334 112 68.001c-22 54 -33 97.667 -33 131c0 46 17.667 83.667 53 113c32.667 28 71 42 115 42c32.667 0 58.334 -9.33301 77.001 -28s28 -40.334 28 -65.001zM417 522.999
c0 42.667 -20.333 63.999 -61 63.999c-26.667 0 -50.667 -12.333 -72 -37s-32 -51.667 -32 -81c0 -34 9.66699 -74.667 29 -122c31.333 14.667 60.333 37.334 87 68.001c32.667 37.333 49 73.333 49 108zM279 135.998c0 35.333 -16 91 -48 167
c-30.667 -12.667 -61.334 -37.667 -92.001 -75c-34.667 -42.667 -52 -83 -52 -121c0 -60.667 27 -91 81 -91c30.667 0 56.834 11.5 78.501 34.5s32.5 51.5 32.5 85.5z" />
    <glyph glyph-name="nine" unicode="9" horiz-adv-x="421" 
d="M463 484c0 -47.333 -19.998 -110 -59.998 -188c-41.333 -80 -89.333 -148 -144 -204c-63.333 -63.333 -122 -95 -176 -95c-23.333 0 -40.333 5 -51 15c-2 4 -1.66699 7.83301 1 11.5s5.66699 5.16699 9 4.5c6.66699 -8 20 -12 40 -12c32 0 71.333 27.333 118 82
c41.333 47.333 81.666 107.333 120.999 180c-44.667 -57.333 -91 -86 -139 -86c-24.667 0 -45.334 9.16699 -62.001 27.5s-25 44.5 -25 78.5c0 64.667 28.667 132 86 202s115 105 173 105c72.667 0 109 -40.333 109 -121zM414.002 523c0 43.333 -16.668 65 -50.001 65
c-48 0 -97 -46.333 -147 -139c-44.667 -81.333 -67 -145 -67 -191c0 -28.667 14.333 -43 43 -43c19.333 0 42.666 11 69.999 33c20.667 17.333 38.334 36 53.001 56c3.33301 4.66699 7.33301 7 12 7s7.33398 -1.66699 8.00098 -5c52 100 78 172.333 78 217z" />
    <glyph glyph-name="colon" unicode=":" horiz-adv-x="215" 
d="M225 283c0 -16 -6.5 -32.333 -19.5 -49s-27.167 -25 -42.5 -25c-18 0 -27 10.667 -27 32c0 16.667 6.33301 33.167 19 49.5s27 24.5 43 24.5c18 0 27 -10.667 27 -32zM135 61c0 -16.667 -6.5 -33.167 -19.5 -49.5s-27.5 -24.5 -43.5 -24.5c-18 0 -27 10.667 -27 32
c0 16 6.5 32.333 19.5 49s27.5 25 43.5 25c18 0 27 -10.667 27 -32z" />
    <glyph glyph-name="semicolon" unicode=";" horiz-adv-x="214" 
d="M225 283c0 -16 -6.5 -32.333 -19.5 -49s-27.167 -25 -42.5 -25c-18 0 -27 10.667 -27 32c0 16.667 6.33301 33.167 19 49.5s27 24.5 43 24.5c18 0 27 -10.667 27 -32zM132 55c0 -40 -13.333 -79 -40 -117s-59 -62.667 -97 -74l-9 13c22.667 10 42.334 24 59.001 42
c19.333 20.667 30.666 41.667 33.999 63c-22.667 2.66699 -34 15 -34 37c0 18 5.83301 34.833 17.5 50.5s25.5 23.5 41.5 23.5c18.667 0 28 -12.667 28 -38z" />
    <glyph glyph-name="less" unicode="&#x3c;" horiz-adv-x="711" 
d="M662 509l-17 -49l-472 -165l338 -165l-17 -37l-390 190l13 33z" />
    <glyph glyph-name="equal" unicode="=" horiz-adv-x="690" 
d="M664 391l-16 -38h-483l15 38h484zM603 241l-15 -38h-484l16 38h483z" />
    <glyph glyph-name="greater" unicode="&#x3e;" horiz-adv-x="693" 
d="M635 314l-13 -34l-545 -192l17 49l472 165l-338 165l17 37z" />
    <glyph glyph-name="question" unicode="?" horiz-adv-x="454" 
d="M523 531c0 -36.667 -13.332 -73.668 -39.999 -111.001s-70.667 -82.666 -132 -135.999c-56 -49.333 -98.333 -97.333 -127 -144c-4 -2.66699 -7.66699 -4 -11 -4c-7.33301 0 -13 3.66699 -17 11c9.33301 30.667 36.666 69 81.999 115c65.333 66 104 106.667 116 122
c39.333 50 59 98.667 59 146c0 23.333 -7 41.333 -21 54s-32.333 19 -55 19c-33.333 0 -70.333 -16 -111 -48c-43.333 -34.667 -65 -69.667 -65 -105s16 -53 48 -53c24.667 0 46.667 9.33301 66 28c4.66699 -0.666992 7 -3.66699 7 -9c0 -9.33301 -8.5 -18.333 -25.5 -27
s-35.167 -13 -54.5 -13c-17.333 0 -32.666 6.33301 -45.999 19s-20 29 -20 49c0 50 26.667 94.333 80 133c49.333 36 100.666 54 153.999 54c34 0 60.667 -8.33301 80 -25c22 -17.333 33 -42.333 33 -75zM203.001 60.999c0 -16.667 -6.33301 -33.167 -19 -49.5
s-27 -24.5 -43 -24.5c-18 0 -27 10.667 -27 32c0 16 6.5 32.333 19.5 49s27.167 25 42.5 25c18 0 27 -10.667 27 -32z" />
    <glyph glyph-name="at" unicode="@" horiz-adv-x="922" 
d="M907 379c0 -80 -21.333 -152 -64 -216c-46 -68.667 -102.667 -103 -170 -103c-59.333 0 -92 35.333 -98 106c-44.667 -70 -95 -105 -151 -105c-36 0 -66.333 13.667 -91 41c-27.333 30 -41 69.667 -41 119c0 64 25.5 125.333 76.5 184s103.833 88 158.5 88
c53.333 0 89 -32.667 107 -98l27 87h64l-84 -294c-4 -20 -6 -37 -6 -51c0 -36.667 15 -55 45 -55c42 0 84 22 126 66c54.667 56 82 131.667 82 227c0 92 -30 166.667 -90 224c-62.667 59.333 -147.334 89 -254.001 89c-119.333 0 -218.666 -37.333 -297.999 -112
c-86 -81.333 -129 -191.333 -129 -330c0 -97.333 31.333 -179 94 -245c72.667 -75.333 174 -113 304 -113c112.667 0 214 33.333 304 100l16 -15c-46 -32.667 -88 -56.667 -126 -72c-60.667 -24 -127.667 -36 -201 -36c-119.333 0 -220.333 30.667 -303 92
c-94.667 71.333 -142 171 -142 299c0 120.667 42.667 225 128 313c90 92.667 204 139 342 139c126 0 222.667 -35.667 290 -107c56 -60 84 -134 84 -222zM612 357c0.666992 31.333 -6.66504 57.668 -21.998 79.001c-17.333 24.667 -42 37 -74 37
c-41.333 0 -80.333 -38.667 -117 -116c-30.667 -66 -46 -121 -46 -165c0 -27.333 5.66699 -51.333 17 -72c14 -24.667 34 -37 60 -37c51.333 0 95.666 34 132.999 102c31.333 57.333 47.666 114.666 48.999 171.999z" />
    <glyph glyph-name="A" unicode="A" horiz-adv-x="1333" 
d="M1466 738l-191.004 -334.996c-25.333 -43.333 -50.666 -89 -75.999 -137c38.667 -1.33301 65.334 -2 80.001 -2c16 0 38.667 2 68 6c8.66699 -4 9.66699 -10.667 3 -20c-20.667 -10 -76.334 -15 -167.001 -15c-6 -10.667 -11.667 -21.334 -17 -32.001
c44 -24.667 66 -58.334 66 -101.001c0 -32 -11.167 -57.5 -33.5 -76.5s-47.166 -28.5 -74.499 -28.5c-24 0 -44.167 8.66699 -60.5 26s-24.5 39.666 -24.5 66.999c0 23.333 15.333 63.333 46 120c-42.667 12.667 -95.667 20.667 -159 24
c-199.333 -160 -391.333 -240 -576 -240c-84 0 -154.333 17.667 -211 53c-64.667 40 -97 96 -97 168c0 84 46 155 138 213c84.667 53.333 179.334 80 284.001 80c110.667 0 198 -22 262 -66c2 -2 3 -4 3 -6c0 -11.333 -6 -15.333 -18 -12c-47.333 38 -118.333 57 -213 57
c-100 0 -192.333 -29 -277 -87c-89.333 -60.667 -134 -131 -134 -211c0 -50.667 25.667 -92 77 -124c48 -29.333 106.333 -44 175 -44c182.667 0 366 73.333 550 220l-96 2l-416 2h-33c-6.66699 1.33301 -10 4.66602 -10 9.99902c0 6 9.16699 14.167 27.5 24.5
s34.833 15.5 49.5 15.5c10 0 73.667 -2 191 -6c131.333 -4.66699 222 -7.66699 272 -9l61 -1c17.333 14.667 32 28 44 40l428 420c10.667 9.33301 24.334 16 41.001 20c14 3.33301 21 1.33301 21 -6c0 -2 -1 -5 -3 -9zM1376 671.004l-7.99902 0.999023
c-4.66699 -5.33301 -48.334 -50.666 -131.001 -135.999l-183 -187c-26 -26 -53.667 -51.667 -83 -77l146 -4l97 153zM1188 119.003c0 22.667 -11.332 42.667 -33.999 60c-38 -75.333 -57 -121 -57 -137c0 -19.333 8.33301 -29 25 -29c15.333 0 30.166 11 44.499 33
s21.5 46.333 21.5 73z" />
    <glyph glyph-name="B" unicode="B" horiz-adv-x="1076" 
d="M1160 650c0 -58.667 -33.001 -114.334 -99.001 -167.001c-51.333 -41.333 -115.666 -75.666 -192.999 -102.999c18.667 3.33301 37 5 55 5c46 0 81.333 -12 106 -36c22.667 -22 34 -51.333 34 -88c0 -58.667 -28.333 -117 -85 -175
c-58.667 -59.333 -120.667 -89 -186 -89c-70.667 0 -106 29 -106 87c0 16.667 5.33301 31.5 16 44.5s23.334 19.5 38.001 19.5c28.667 0 43 -15.333 43 -46c0 -16.667 -5.83301 -30.167 -17.5 -40.5s-24.5 -15.5 -38.5 -15.5c-8.66699 0 -13 -1.66699 -13 -5
s5 -7.66602 15 -12.999c12.667 -6.66699 27 -10 43 -10c48.667 0 96.834 24.333 144.501 73s71.5 101.667 71.5 159c0 34.667 -11.667 61.667 -35 81c-20 17.333 -44 26 -72 26c-20.667 0 -37 -2 -49 -6c-5.33301 -2.66699 -10.333 -5.33398 -15 -8.00098
c-3.33301 0 -6 2 -8 6s-2.33301 7.66699 -1 11c5.33301 4.66699 16 9 32 13c-3.33301 1.33301 -5 3.33301 -5 6c0 3.33301 2.66699 6 8 8c58.667 23.333 112 56.666 160 99.999c60 55.333 90 111.333 90 168c0 24.667 -8.33301 43 -25 55c-20.667 13.333 -56.667 20 -108 20
c-108 0 -232.833 -31.5 -374.5 -94.5s-260.5 -139.5 -356.5 -229.5c-105.333 -99.333 -158 -193.333 -158 -282c0 -34 14.167 -60.833 42.5 -80.5s66.5 -29.5 114.5 -29.5c77.333 0 153.333 24.667 228 74c62 40.667 116 92.667 162 156
c18 25.333 60.667 89.666 128 192.999c53.333 82 91 135 113 159c53.333 57.333 87.666 86 102.999 86c8 0 12 -3.33301 12 -10c0 -1.33301 -6.33301 -7.66602 -19 -18.999c-16.667 -15.333 -31.334 -32 -44.001 -50l-79 -141c-47.333 -84 -93 -152.667 -137 -206
c-143.333 -175.333 -301.333 -263 -474 -263c-62 0 -111.333 14.833 -148 44.5s-55 70.5 -55 122.5c0 86 54.667 177 164 273c100.667 88.667 225 163.334 373 224.001c151.333 62 287 93 407 93c132 0 198 -33.333 198 -100z" />
    <glyph glyph-name="C" unicode="C" horiz-adv-x="976" 
d="M1153 665c0 -68.667 -54.666 -138.666 -163.999 -209.999c-86 -56.667 -197.667 -109.334 -335 -158.001c-113.333 -40 -205.666 -65.333 -276.999 -76c-16.667 -38.667 -25 -72.667 -25 -102c0 -30.667 12.667 -54.667 38 -72s57.666 -26 96.999 -26
c78.667 0 162.334 17.667 251.001 53c77.333 30.667 146.666 69.667 207.999 117c12.667 0 17.667 -4.33301 15 -13c-49.333 -45.333 -115.666 -85.666 -198.999 -120.999c-95.333 -41.333 -184.333 -62 -267 -62c-132.667 0 -199 60 -199 180c0 11.333 1.33301 24 4 38
c-17.333 -1.33301 -32.333 -2 -45 -2c-51.333 0 -99.333 8.33301 -144 25c-38 14 -62.667 29.333 -74 46c-2 5.33301 -1.33301 9.16602 2 11.499s8.33301 3.5 15 3.5c50 -40 118.333 -60 205 -60c13.333 0 29 0.666992 47 2c21.333 79.333 75.666 160 162.999 242
c81.333 77.333 174.666 141.333 279.999 192c108 52 203.333 78 286 78c38 0 67.667 -8.33301 89 -25c19.333 -14.667 29 -35 29 -61zM1121 681.001c0 32.667 -22.668 49 -68.001 49c-117.333 0 -244.666 -53 -381.999 -159c-126 -97.333 -219 -203.333 -279 -318
c60 12 144 39.667 252 83c130 52 236.333 105 319 159c105.333 68.667 158 130.667 158 186z" />
    <glyph glyph-name="D" unicode="D" horiz-adv-x="1231" 
d="M1255 410c0 -118.667 -55.3311 -217.33 -165.998 -295.997c-108 -76.667 -241 -115 -399 -115c-59.333 0 -138.833 9.83301 -238.5 29.5s-191.167 29.5 -274.5 29.5c-48.667 0 -93 -16 -133 -48c-4.66699 -2 -8.33398 -1.33301 -11.001 2s-3 7.66602 -1 12.999
c12.667 15.333 35.334 31.666 68.001 48.999c46.667 24.667 95 37 145 37c60 0 153.5 -12.833 280.5 -38.5s217.167 -38.5 270.5 -38.5c93.333 0 178.666 31.667 255.999 95c86 71.333 129 160 129 266c0 75.333 -32.667 139.666 -98 192.999
c-18.667 -23.333 -50 -75 -94 -155c-48 -88 -85 -150.333 -111 -187c61.333 22.667 129 59 203 109c10.667 3.33301 16 0.666016 16 -8.00098c0 -2 -0.666992 -4.33301 -2 -7c-63.333 -54 -146 -99.333 -248 -136c-16 -23.333 -38 -48 -66 -74
c-31.333 -30 -58 -49.333 -80 -58c-8.66699 -3.33301 -13 -1.66602 -13 5.00098c0 4 2.66699 7.66699 8 11c32 18.667 61.667 50.334 89 95.001c-90 -26 -180 -39 -270 -39c-118 0 -214 24.667 -288 74c-76.667 50.667 -115 117.667 -115 201s60.333 159.666 181 228.999
c118.667 68.667 246.667 103 384 103c176.667 0 319.667 -33.333 429 -100c38.667 26.667 70 41.667 94 45c2.66699 -0.666992 4 -2.66699 4 -6c-0.666992 -3.33301 -2.33398 -6 -5.00098 -8c-20 -10 -43 -25.667 -69 -47c83.333 -58.667 125 -133.667 125 -225z
M1054 610.004c-100.667 68 -236.333 102 -407 102c-138.667 0 -259.667 -32 -363 -96c-96.667 -60 -145 -124.667 -145 -194c0 -68.667 39 -123.667 117 -165c76 -40 174 -60 294 -60c100.667 0 186.667 9 258 27l109 203c44 76 89.667 137 137 183z" />
    <glyph glyph-name="E" unicode="E" horiz-adv-x="709" 
d="M832 695c0 -49.333 -40.332 -89.665 -120.999 -120.998c-71.333 -28 -160 -44.333 -266 -49c-5.33301 -14 -8 -27 -8 -39c0 -15.333 4.66699 -27.333 14 -36c41.333 6 81.666 9 120.999 9c41.333 0 75 -2.83301 101 -8.5s39 -12.5 39 -20.5
c0 -8.66699 -12.667 -16.334 -38 -23.001s-54 -10 -86 -10c-52.667 0 -98.667 10 -138 30c-94 -22 -173 -62.833 -237 -122.5s-96 -120.5 -96 -182.5c0 -65.333 47.333 -98 142 -98c177.333 0 328 60.667 452 182c9.33301 0 12.666 -4.66699 9.99902 -14
c-44 -59.333 -113 -107.333 -207 -144c-85.333 -33.333 -169 -50 -251 -50c-76 0 -133.667 16 -173 48c-34.667 29.333 -52 69 -52 119c0 68.667 39.667 129.334 119 182.001c70.667 46.667 159.334 79.334 266.001 98.001c-26 21.333 -39.333 47.666 -40 78.999
c-53.333 2 -110.666 14.333 -171.999 37c-54 19.333 -88.333 37.666 -103 54.999c-1.33301 3.33301 -0.666016 6.5 2.00098 9.5s5.66699 4.5 9 4.5c12.667 -12 40.667 -26.333 84 -43c58.667 -23.333 119 -37 181 -41c9.33301 51.333 49.666 98.666 120.999 141.999
s145.666 65 222.999 65c69.333 0 104 -19.333 104 -58zM793.001 703.001c0 20.667 -16.667 31 -50 31c-52.667 0 -109 -20 -169 -60c-56 -38.667 -96.333 -81.667 -121 -129c78 4 154.167 23 228.5 57s111.5 67.667 111.5 101z" />
    <glyph glyph-name="F" unicode="F" horiz-adv-x="1175" 
d="M1402 693c-6.66699 -16.667 -19.333 -31.6689 -38 -45.002c-24.667 -18.667 -53 -28 -85 -28c-21.333 0 -74.166 15.333 -158.499 46s-152.166 46 -203.499 46c-66 0 -132 -22.333 -198 -67s-108.333 -94.334 -127 -149.001c69.333 -14 135.333 -42 198 -84
c1.33301 -2 2 -4 2 -6c0 -5.33301 -4 -8 -12 -8c-2.66699 0 -5.66699 0.666992 -9 2c-53.333 36 -115 61 -185 75c-2 -9.33301 -3 -18.333 -3 -27c0 -17.333 4.33301 -36.666 13 -57.999c1.33301 -4.66699 -0.333984 -7.33398 -5.00098 -8.00098s-9.33398 1 -14.001 5
c-13.333 22 -20 45 -20 69c0 6 0.333008 12.333 1 19l1 4c-20 2.66699 -39.333 4 -58 4c-102.667 0 -193 -28.667 -271 -86c-74.667 -55.333 -112 -116 -112 -182c0 -67.333 33.333 -118.333 100 -153c56.667 -30 131.667 -45 225 -45c187.333 0 332 83.333 434 250l-145 -2
c-78 0 -129.667 -16 -155 -48c-4 -3.33301 -9 -3.66602 -15 -0.999023c-6.66699 2 -9.66699 5.33301 -9 10c10.667 16 27.334 30.667 50.001 44c33.333 19.333 71.333 29.333 114 30c28.667 0 89.334 1.33301 182.001 4l77 139c26 46.667 48 79.334 66 98.001
c23.333 24.667 52.333 46.334 87 65.001c26 14.667 45.333 23 58 25c8.66699 1.33301 13 -0.666992 13 -6s-4.33301 -9.66602 -13 -12.999c-32.667 -14 -66.667 -45.333 -102 -94c-11.333 -16 -27.333 -46 -48 -90l-58 -122l197 5c14.667 -1.33301 22 -4.33301 22 -9
c0 -2.66699 -1.33301 -5.66699 -4 -9c-6 -10 -10 -15.667 -12 -17c-4 -3.33301 -10.333 -5 -19 -5c-6 0 -74 -1 -204 -3c-15.333 -28 -30 -50.667 -44 -68c-41.333 -52 -101.333 -97 -180 -135c-94.667 -46 -194.334 -69 -299.001 -69c-113.333 0 -203.5 21.167 -270.5 63.5
s-100.5 97.833 -100.5 166.5c0 70 38.667 133.333 116 190c82 60.667 179.333 91 292 91c31.333 0 61.666 -2.33301 90.999 -7c18.667 63.333 69 119.666 151 168.999c90.667 55.333 193.667 83 309 83c42 0 102.167 -12.833 180.5 -38.5s122.833 -38.5 133.5 -38.5
c20 0 36.333 10.667 49 32c4.66699 2.66699 8.66699 3 12 1c4 -2.66699 5 -7.66699 3 -15z" />
    <glyph glyph-name="G" unicode="G" horiz-adv-x="824" 
d="M919 662c0 -54.667 -38.3291 -122.331 -114.996 -202.998c-71.333 -74.667 -157.666 -142.334 -258.999 -203.001c-152 -90.667 -287.667 -157.667 -407 -201c17.333 -26.667 45.666 -40 84.999 -40c73.333 0 170.666 37.333 291.999 112
c99.333 61.333 172.666 117.333 219.999 168c10.667 5.33301 19 6.33301 25 3l4 6c27.333 42 45.333 64.667 54 68c12.667 5.33301 22.667 8 30 8c8.66699 0 13 -3.33301 13 -10c0 -3.33301 -3.33301 -8 -10 -14s-11.334 -10.667 -14.001 -14
c-9.33301 -14.667 -41 -76.334 -95 -185.001c-48.667 -98.667 -86 -163.334 -112 -194.001c-36.667 -44.667 -86 -85.667 -148 -123c-54.667 -32.667 -97.667 -51.334 -129 -56.001c-8 4.66699 -8 10 0 16c16.667 4.66699 42.667 19.334 78 44.001
c39.333 26.667 71.166 54 95.499 82s62.833 85.333 115.5 172l106 180c-62.667 -72.667 -143.334 -136.334 -242.001 -191.001c-106 -60 -200.667 -90 -284 -90c-49.333 0 -86.666 16 -111.999 48c-36 -12 -64.333 -18.667 -85 -20c-7.33301 6.66699 -7 14 1 22
c20 1.33301 44.333 6.33301 73 15c-14 24.667 -21 55.334 -21 92.001c0 82.667 41.333 172.334 124 269.001c77.333 91.333 172.333 168.333 285 231c117.333 65.333 223.333 98 318 98c76 0 114 -30 114 -90zM887.004 678.003c0 37.333 -29.002 56 -87.002 56
c-88.667 0 -189 -41 -301 -123c-99.333 -72.667 -186.666 -159.834 -261.999 -261.501s-113 -181.5 -113 -239.5c0 -14 2 -26.333 6 -37c70 24.667 151.333 63.334 244 116.001c88.667 50 166.667 100.667 234 152c80.667 60.667 146.334 121 197.001 181
c54.667 64 82 116 82 156z" />
    <glyph glyph-name="H" unicode="H" horiz-adv-x="1226" 
d="M1153 734c-20.667 -15.333 -49.667 -30.668 -87 -46.001c-49.333 -20.667 -93.333 -31 -132 -31c-38 0 -106 10 -204 30s-179 30 -243 30c-102 0 -189.333 -18.333 -262 -55c-58 -29.333 -103.333 -68.333 -136 -117c-26 -38 -39 -72.333 -39 -103
c0 -14.667 1.33301 -27.667 4 -39c0 -4 -2.33301 -7 -7 -9c-4 -1.33301 -8 -0.333008 -12 3c-6 13.333 -9 30 -9 50c0 105.333 67.333 187 202 245c100.667 43.333 206.334 65 317.001 65c71.333 0 155.166 -8.66699 251.499 -26s155.833 -26 178.5 -26
c73.333 0 128.333 15 165 45c9.33301 0.666992 14 -3.66602 14 -12.999c0 -1.33301 -0.333008 -2.33301 -1 -3zM1404 708.998c0 -32.667 -20 -69.666 -60 -110.999c-45.333 -47.333 -109.333 -90 -192 -128c-16.667 -7.33301 -35.334 -14.666 -56.001 -21.999
c-94.667 -162.667 -142 -290.334 -142 -383.001c0 -30.667 15.667 -46 47 -46c34.667 0 76 16.333 124 49c39.333 27.333 70.333 56 93 86c4.66699 2.66699 8.66699 3.33398 12 2.00098s4.66602 -4.33301 3.99902 -9c-17.333 -27.333 -44 -55.333 -80 -84
c-55.333 -43.333 -111 -65 -167 -65c-66.667 0 -100 32.667 -100 98c0 79.333 42.333 187.666 127 324.999c-35.333 -10.667 -72.333 -19.667 -111 -27c-50.667 -86.667 -102.334 -154.334 -155.001 -203.001c-61.333 -58 -137.666 -104.833 -228.999 -140.5
s-178.666 -53.5 -261.999 -53.5c-52 0 -93.333 10 -124 30s-46 48 -46 84c0 52.667 29.167 102.334 87.5 149.001s139.833 84.334 244.5 113.001c61.333 16.667 134.333 28.667 219 36l215 16c30 48 68.667 106 116 174c24 28 58.333 55.667 103 83
c4.66699 0.666992 8 -0.333008 10 -3s1.66699 -5.33398 -1 -8.00098c-22 -12.667 -42.667 -34.334 -62 -65.001l-92 -172c40 6 76.667 13.333 110 22c54.667 82.667 110.334 151 167.001 205c61.333 59.333 111.333 89 150 89c33.333 0 50 -13.667 50 -41zM1367 709.999
c0 14 -6.33301 20.999 -19 20.999c-24 0 -58 -24.333 -102 -73c-42 -46 -85 -104.667 -129 -176c51.333 20 102.333 49.333 153 88c64.667 50.667 97 97.334 97 140.001zM822 378.998c-36.667 -6 -116 -15.998 -238 -29.998c-88.667 -10.667 -153.667 -21.334 -195 -32.001
c-69.333 -18.667 -131.333 -46.667 -186 -84c-62.667 -42 -94 -83 -94 -123c0 -28 12.667 -50.667 38 -68s58.666 -26 99.999 -26c67.333 0 138.833 14.667 214.5 44s140.834 67.666 195.501 114.999c44.667 39.333 99.667 107.333 165 204z" />
    <glyph glyph-name="I" unicode="I" horiz-adv-x="836" 
d="M1035 697c-6.66699 -4.66699 -16 -10.333 -28 -17c4 -0.666992 6.66699 -2 8 -4c1.33301 -2.66699 0 -5.66699 -4 -9c-36 -32.667 -62.667 -65.334 -80 -98.001c-1.33301 -2.66699 -20 -53.667 -56 -153c-29.333 -81.333 -62.666 -146.333 -99.999 -195
c-50 -65.333 -119.333 -118.833 -208 -160.5s-176.334 -62.5 -263.001 -62.5c-82.667 0 -146.334 16.333 -191.001 49c-40.667 30.667 -61 72.334 -61 125.001c0 76 51.333 138.667 154 188c83.333 40 164 60 242 60c84.667 0 147.334 -11 188.001 -33
c2 -3.33301 1.5 -6.33301 -1.5 -9s-7.16699 -3.66699 -12.5 -3c-26 16 -70.667 24 -134 24c-84 0 -169 -25 -255 -75c-92.667 -53.333 -139 -112.333 -139 -177c0 -43.333 20 -76.333 60 -99c36 -20 85.333 -30 148 -30c81.333 0 161.666 22.667 240.999 68
c76.667 44 135 98.667 175 164c18 30 47 88.333 87 175c32.667 72 60 121 82 147c32.667 40 66 72.667 100 98c-46 -22 -88.667 -33 -128 -33c-44 0 -113.333 14.5 -208 43.5s-169 43.5 -223 43.5c-84 0 -160 -24.667 -228 -74c-62.667 -45.333 -94 -91 -94 -137
c0 -17.333 1.66699 -30 5 -38c-3.33301 -6.66699 -9 -5.66699 -17 3c-6.66699 11.333 -10 24.333 -10 39c0 65.333 33.667 119.666 101 162.999c74 47.333 173 71 297 71c68 0 154.333 -11.167 259 -33.5s164.667 -33.5 180 -33.5c40.667 0 74.334 8.33301 101.001 25
c5.33301 0.666992 9.33301 -0.166016 12 -2.49902s3 -5.5 1 -9.5z" />
    <glyph glyph-name="J" unicode="J" horiz-adv-x="742" 
d="M916 702c-6.66699 -7.33301 -21.332 -15.665 -43.999 -24.998c8.66699 -1.33301 9 -6.33301 1 -15c-12 -14 -29.333 -37.333 -52 -70l-185 -383c42 11.333 67 19 75 23c40.667 18.667 63.334 38 68.001 58c2.66699 2 6.33398 2.33301 11.001 1
c4.66699 -0.666992 7.66699 -2.33398 9 -5.00098c-6 -27.333 -33 -52 -81 -74c-10.667 -5.33301 -43.667 -17 -99 -35c-32 -59.333 -58.333 -103.666 -79 -132.999c-48 -68 -108.667 -126.333 -182 -175s-140 -73 -200 -73c-60.667 0 -91 25.667 -91 77
c0 74 72.333 147.667 217 221c51.333 26 141.666 57 270.999 93l96 202c36 70.667 70.333 127.667 103 171c40 52.667 75.333 90 106 112c-43.333 -16 -88.333 -24 -135 -24c-32.667 0 -93.667 10.333 -183 31s-154.666 31 -195.999 31c-72 0 -137 -25.667 -195 -77
c-54.667 -49.333 -82 -101 -82 -155c0 -20 4.33301 -37.333 13 -52c-0.666992 -2.66699 -3.33398 -5.33398 -8.00098 -8.00098s-8.33398 -3.33398 -11.001 -2.00098c-12 16.667 -18 42.667 -18 78c0 77.333 42 141 126 191c75.333 44.667 160 67 254 67
c43.333 0 108.666 -9.83301 195.999 -29.5s155 -29.5 203 -29.5c33.333 0 60.333 7.66699 81 23c9.33301 -2 13 -6.66699 11 -14zM538.002 150.001c-115.333 -39.333 -196.668 -72 -244.001 -98c-136 -73.333 -204 -135.333 -204 -186c0 -34 18.667 -51 56 -51
c58.667 0 123 25.333 193 76c74.667 54 132.334 122 173.001 204z" />
    <glyph glyph-name="K" unicode="K" horiz-adv-x="1325" 
d="M1492 736c0 -4.66699 -4.00293 -6.66602 -12.0029 -5.99902c-2 0 -7.5 0.5 -16.5 1.5s-16.5 1.5 -22.5 1.5c-34.667 0 -73 -23.333 -115 -70c-20.667 -23.333 -56.334 -71.333 -107.001 -144c-43.333 -62.667 -77 -104 -101 -124c-36.667 -30 -74.667 -54.667 -114 -74
c-28 -13.333 -49.333 -21.333 -64 -24c-6 -0.666992 -10 -1.66699 -12 -3c-0.666992 -1.33301 0.333008 -3.66602 3 -6.99902c42 -54 96.333 -119.667 163 -197c40 -40.667 80.333 -61 121 -61c30 0 59.667 15 89 45c8.66699 -0.666992 13 -5 13 -13
c-8.66699 -14 -23 -26.333 -43 -37c-26.667 -14 -57 -21 -91 -21c-83.333 0 -164.333 51 -243 153c-28 36 -46.667 59 -56 69c-18.667 20 -36.334 32.667 -53.001 38c-62 -84.667 -139.167 -150.334 -231.5 -197.001s-191.5 -70 -297.5 -70
c-75.333 0 -135.666 13.333 -180.999 40c-48 29.333 -72 70.333 -72 123c0 64 36 119.333 108 166c78 50 178.667 75 302 75c59.333 0 105.333 -6.33301 138 -19c2.66699 -2.66699 3.33398 -6.33398 2.00098 -11.001c-0.666992 -4 -3 -6.66699 -7 -8
c-24.667 10.667 -61.334 16 -110.001 16c-95.333 0 -183.666 -23.333 -264.999 -70c-85.333 -50 -128 -108 -128 -174c0 -34.667 18.5 -63 55.5 -85s82.5 -33 136.5 -33c175.333 0 321.666 65.333 438.999 196c30 33.333 73.333 99.333 130 198
c52.667 92.667 94.667 153.667 126 183c24 23.333 52.667 47 86 71c-66 -23.333 -120.333 -35 -163 -35c-32.667 0 -113.5 14.667 -242.5 44s-220.5 44 -274.5 44c-78 0 -148.5 -26.333 -211.5 -79s-94.5 -108.667 -94.5 -168c0 -15.333 2 -29.666 6 -42.999
c-1.33301 -2.66699 -3.66602 -4.66699 -6.99902 -6c-4 -0.666992 -7 0 -9 2c-8 15.333 -12 37.333 -12 66c0 81.333 44.333 146.666 133 195.999c76.667 43.333 165 65 265 65c44 0 136.5 -11 277.5 -33s223.5 -33 247.5 -33c66.667 0 122.334 12 167.001 36
c2.66699 -0.666992 5 -3 7 -7c1.33301 -4.66699 1 -8.33398 -1 -11.001c-8 -6 -28 -15 -60 -27c3.33301 -5.33301 1.33301 -10.666 -6 -15.999c-18 -12.667 -38.667 -33.667 -62 -63c-10 -12 -31.667 -51.333 -65 -118c-38 -74.667 -71.333 -133.667 -100 -177
c70.667 6.66699 133.334 37.667 188.001 93c14.667 14.667 48.667 59.667 102 135c48.667 69.333 91.667 120.333 129 153c54.667 48 110.334 72 167.001 72c32.667 0 49 -6 49 -18z" />
    <glyph glyph-name="L" unicode="L" horiz-adv-x="1277" 
d="M1329 622c0 -104.667 -82.665 -199.667 -247.998 -285c-154 -80 -325 -127 -513 -141c-33.333 -38 -67.666 -66.667 -102.999 -86c2 0 5.33301 0.333008 10 1h10c84.667 0 170.334 -7 257.001 -21c40.667 -6.66699 104 -19.667 190 -39c62 -14 105.667 -21 131 -21
c74.667 0 125.667 12.667 153 38c14 -0.666992 20.333 -6 19 -16c-12.667 -14 -39.334 -26.667 -80.001 -38c-50.667 -13.333 -110 -20 -178 -20c-72 0 -176 14.667 -312 44s-207 44 -213 44c-20.667 0 -34.334 -2 -41.001 -6c-20 -12 -53.333 -26 -100 -42
c-66 -22 -125.333 -33 -178 -33c-46 0 -69 5.33301 -69 16c0 14 24.667 30 74 48c70 26 166.333 41 289 45c14 10.667 30.333 26.667 49 48c6 7.33301 14 19 24 35h-18c-102.667 0 -169.334 14.333 -200.001 43c-0.666992 2 -1 3.66699 -1 5c0 6.66699 6.66699 9.66699 20 9
c12 -8 39.5 -15.833 82.5 -23.5s81.5 -11.5 115.5 -11.5c-2.66699 0 2 0 14 0c37.333 72 90.666 167 159.999 285c44.667 64.667 97.667 118 159 160c88.667 60 187.667 90 297 90c70 0 122.333 -13.667 157 -41c28.667 -22.667 43 -51.667 43 -87zM1278 633
c0 64.667 -47.333 97 -142 97c-70.667 0 -143 -24 -217 -72c-68 -44.667 -121.333 -98.334 -160 -161.001l-79 -137c-34.667 -58.667 -65.667 -105.667 -93 -141c113.333 10.667 225 39.667 335 87c104 44 189.333 96.333 256 157s100 117.334 100 170.001z" />
    <glyph glyph-name="M" unicode="M" horiz-adv-x="1565" 
d="M1621 735c-54 -83.333 -116.331 -194.661 -186.998 -333.994c-36 -70.667 -68.333 -140.334 -97 -209.001c-31.333 -76 -47 -124.667 -47 -146c0 -18 8.33301 -27 25 -27c31.333 0 74 21.333 128 64c51.333 40 85.333 76 102 108c10 3.33301 16.333 0 19 -10
c-20.667 -36 -57.334 -74.667 -110.001 -116c-56.667 -44.667 -103 -67 -139 -67c-60 0 -90 31.667 -90 95c0 30.667 11 69.667 33 117c14 31.333 39.667 78.666 77 141.999l138 228l-11 -7l-220 -290c-42.667 -52.667 -99.334 -113.334 -170.001 -182.001
c-57.333 -55.333 -92.666 -87.333 -105.999 -96c-6.66699 -4.66699 -11.667 -6 -15 -4c-4.66699 2.66699 -4.33398 8.66699 0.999023 18c18 28 50 84 96 168c58 118 111 218.333 159 301l97 162l-7 1l-293 -323c-71.333 -82 -158.333 -152.333 -261 -211
c-137.333 -79.333 -275 -119 -413 -119c-82.667 0 -149.334 17.667 -200.001 53c-54 37.333 -81 88.666 -81 153.999c0 91.333 54.333 169.666 163 234.999c104 62 223 93 357 93c60.667 0 116 -6.66699 166 -20c38 -10.667 64 -22 78 -34
c0.666992 -2 -1.66602 -4 -6.99902 -6s-11 -2.33301 -17 -1c-46.667 25.333 -116 38 -208 38c-114.667 0 -224.667 -34.833 -330 -104.5s-158 -142.834 -158 -219.501c0 -110.667 80 -166 240 -166c112.667 0 229.334 31 350.001 93c112.667 57.333 209.667 131 291 221
c219.333 242.667 347.666 377.334 384.999 404.001c6 4 17.333 8 34 12c13.333 3.33301 20 0.666016 20 -8.00098c0 -2 -1.33301 -4.33301 -4 -7c-18.667 -16.667 -52 -71 -100 -163l-164 -322c-36.667 -62.667 -65.667 -106.667 -87 -132l3 -3
c9.33301 8 37.666 39.667 84.999 95c60 70 114.667 137.333 164 202l245 314c4.66699 6 16.667 12.667 36 20c10 3.33301 18.333 5 25 5c10.667 0 12.334 -5.33301 5.00098 -16z" />
    <glyph glyph-name="N" unicode="N" horiz-adv-x="1242" 
d="M1449 672c0 -75.333 -59.999 -187.669 -179.999 -337.002c-54.667 -66.667 -118 -135.667 -190 -207c-60 -58.667 -106.667 -100.334 -140 -125.001c-4 -3.33301 -8 -5 -12 -5c-5.33301 0 -8 3 -8 9c0 4 1.66699 8.33301 5 13c32.667 46 63.334 100.333 92.001 163
c26.667 66.667 68 164.334 124 293.001c28.667 61.333 49.334 103.333 62.001 126l-5 3c-11.333 -19.333 -48.333 -66 -111 -140c-80 -93.333 -151.333 -166 -214 -218c-198.667 -166.667 -388.667 -250 -570 -250c-76 0 -138 17.667 -186 53
c-50.667 36.667 -76 86.667 -76 150c0 82.667 45 152 135 208s202.667 84 338 84c115.333 0 212.333 -20.667 291 -62c1.33301 -2.66699 0.666016 -6 -2.00098 -10s-5.66699 -6 -9 -6c-81.333 37.333 -168.333 56 -261 56c-112 0 -214.667 -30 -308 -90
c-95.333 -61.333 -143 -130.333 -143 -207c0 -48.667 21.667 -87.334 65 -116.001c39.333 -26.667 86.666 -40 141.999 -40c91.333 0 192.166 25.5 302.499 76.5s211.166 119.5 302.499 205.5c82 76.667 168.667 171.334 260 284.001l120 154c10 10 21 15 33 15
c6.66699 0 10 -3.66699 10 -11c0 -1.33301 -4.33301 -8.66602 -13 -21.999c-11.333 -16.667 -20.333 -32.667 -27 -48c-25.333 -78.667 -65.666 -189 -120.999 -331c-44 -93.333 -83.333 -164.666 -118 -213.999h5c12.667 7.33301 42.334 35.666 89.001 84.999
c56 60.667 103.333 119.667 142 177c94 138.667 141 242.667 141 312c0 12 -1.33301 22 -4 30c1.33301 8.66699 6.66602 12.334 15.999 11.001c15.333 -17.333 23 -40.333 23 -69z" />
    <glyph glyph-name="O" unicode="O" horiz-adv-x="870" 
d="M949 561c0 -98 -36.665 -192.332 -109.998 -282.999c-66 -83.333 -151.167 -151.166 -255.5 -203.499s-203.833 -78.5 -298.5 -78.5c-17.333 0 -34.333 1.33301 -51 4c8 -22.667 21.333 -44.334 40 -65.001c0.666992 -4 -1.33301 -7.5 -6 -10.5
s-9.33398 -3.5 -14.001 -1.5c-22.667 21.333 -38.334 48.666 -47.001 81.999c-102 24 -153 89.667 -153 197c0 95.333 37.667 187.666 113 276.999c67.333 80 154.333 146 261 198c104 50 202 75 294 75c60.667 0 108 -7 142 -21c2 -3.33301 2 -6.66602 0 -9.99902
c-2.66699 -3.33301 -6 -5.33301 -10 -6c-29.333 10.667 -73.333 16 -132 16c-82 0 -172.333 -29.667 -271 -89c-96 -58 -176.333 -129.667 -241 -215c-69.333 -92 -104 -180 -104 -264c0 -70 32 -115.333 96 -136c-4 21.333 -6 45 -6 71c0 93.333 27.167 188 81.5 284
s123.833 174.333 208.5 235c90.667 64.667 182.667 97 276 97c60 0 107 -15.667 141 -47c30.667 -28 46 -63.333 46 -106zM911.002 574.001c0 38 -13.999 67.332 -41.999 87.999s-63.667 31 -107 31c-82 0 -167 -35 -255 -105c-80 -64 -147.5 -144.667 -202.5 -242
s-82.5 -186.333 -82.5 -267c0 -20.667 2 -40 6 -58c11.333 -2 22 -3 32 -3c83.333 0 176.666 27.833 279.999 83.5s189.333 124.834 258 207.501c75.333 90.667 113 179 113 265z" />
    <glyph glyph-name="P" unicode="P" horiz-adv-x="1046" 
d="M1163 553c0 -84 -46.668 -162.668 -140.001 -236.001c-90.667 -70.667 -184 -106 -280 -106c-10.667 0 -20.667 0.333008 -30 1c-54 -116.667 -127 -216 -219 -298c-96 -86 -187.333 -129 -274 -129c-46.667 0 -80.667 9.66699 -102 29c-4 10 0.666992 15.333 14 16
c25.333 -14.667 52 -22 80 -22c52.667 0 105.834 18.667 159.501 56s103.834 89.666 150.501 156.999c32 46.667 71.333 115.334 118 206.001c-65.333 24.667 -98 69.667 -98 135c0 72.667 34.333 134.667 103 186c48.667 36.667 94.667 58.334 138 65.001
c5.33301 -0.666992 9 -2.66699 11 -6c2 -2.66699 1.33301 -5.33398 -2 -8.00098c-34.667 -8.66699 -72.334 -31.334 -113.001 -68.001c-58.667 -52 -88 -111.333 -88 -178c0 -53.333 19.667 -88.666 59 -105.999l71 137c26 48.667 48 87 66 115
c32.667 50.667 63.667 92.334 93 125.001c27.333 31.333 46 47 56 47s15 -2.66699 15 -8c-8 -10 -17 -20.333 -27 -31c-30 -36.667 -97.333 -169.667 -202 -399h9c87.333 -1.33301 171.333 39 252 121c76.667 78 115 153 115 225c0 98 -66.333 147 -199 147
c-134.667 0 -265.667 -30.333 -393 -91c-119.333 -56.667 -216.666 -131 -291.999 -223s-113 -184.333 -113 -277c0 -22.667 3 -45 9 -67c1.33301 -8.66699 -2.33398 -13 -11.001 -13c-3.33301 0 -6.33301 0.666992 -9 2c-10 22 -15 59.333 -15 112
c0 110 42.667 212 128 306c76.667 84 177.667 151.667 303 203c120.667 48.667 239.667 73 357 73c200 0 300 -66 300 -198z" />
    <glyph glyph-name="Q" unicode="Q" horiz-adv-x="924" 
d="M1022 548c0 -78.667 -39.167 -163.999 -117.5 -255.999s-172.5 -165.667 -282.5 -221c61.333 -25.333 107.333 -38 138 -38c42 0 78.333 12.333 109 37c4 0 7 -3 9 -9c2 -6.66699 1.33301 -12 -2 -16c-40 -29.333 -87 -44 -141 -44c-45.333 0 -105 13.667 -179 41
c-76 -30 -148.667 -45 -218 -45c-90.667 0 -155 31.333 -193 94c-40.667 -16.667 -72 -38.334 -94 -65.001c-4.66699 -2 -8.66699 -1.5 -12 1.5s-4.33301 7.16699 -3 12.5c19.333 26 51.666 50.667 96.999 74c-11.333 26 -17 55.333 -17 88
c0 101.333 40.667 196.666 122 285.999c71.333 78.667 164.333 142.667 279 192c109.333 46.667 213 70 311 70c11.333 0 26.333 -1.33301 45 -4c25.333 -4 38 -8.33301 38 -13c0 -4 -4 -5.33301 -12 -4c-22.667 2.66699 -49.667 4 -81 4c-86 0 -180 -28.333 -282 -85
s-186.667 -127 -254 -211c-73.333 -91.333 -110 -180.666 -110 -267.999c0 -12.667 1 -25 3 -37c49.333 18 102 27 158 27c55.333 0 137 -23 245 -69c108.667 59.333 204.667 142.666 288 249.999c80.667 102.667 121 189.667 121 261c0 34 -12.333 59.333 -37 76
c-19.333 13.333 -42.666 20 -69.999 20c-82 0 -164.667 -31.667 -248 -95c-72 -53.333 -133.333 -120.666 -184 -201.999c-48 -75.333 -72 -137.333 -72 -186c0 -22.667 -3.33301 -34 -10 -34c-4.66699 0 -7 10 -7 30c0 128 51.333 244.833 154 350.5s218 158.5 346 158.5
c108.667 0 163 -57 163 -171zM512 59.001c-99.333 38 -176.667 57 -232 57c-32.667 0 -65 -4.33301 -97 -13c20.667 -56 69.667 -84 147 -84c58 0 118.667 13.333 182 40z" />
    <glyph glyph-name="R" unicode="R" horiz-adv-x="1177" 
d="M1228 617c0 -68.667 -44.668 -133.336 -134.001 -194.003c-86 -57.333 -190.667 -96.333 -314 -117c50 -53.333 91 -95.333 123 -126c102.667 -98.667 169.334 -148 200.001 -148c18.667 0 35 3.66699 49 11c10 -4 12 -10.333 6 -19c-24 -16 -53.667 -24 -89 -24
c-57.333 0 -117 28.333 -179 85c-73.333 66.667 -132.333 125.667 -177 177c-18 -23.333 -35.667 -44.666 -53 -63.999c-58.667 -66.667 -134.667 -118.667 -228 -156c-78.667 -31.333 -152.334 -47 -221.001 -47c-62 0 -111.667 14 -149 42
c-39.333 28.667 -59 68.334 -59 119.001c0 111.333 61.333 216 184 314c103.333 82.667 236 151.334 398 206.001c146.667 48.667 273.334 73 380.001 73c175.333 0 263 -44 263 -132zM1147 615.998c0 30 -13.998 55 -41.998 75c-32.667 23.333 -80 35 -142 35
c-95.333 0 -214 -26.667 -356 -80c-152 -57.333 -278.333 -127.333 -379 -210c-117.333 -97.333 -176 -195.333 -176 -294c0 -42 14.667 -73.833 44 -95.5s68.666 -32.5 117.999 -32.5c70.667 0 144.167 21.5 220.5 64.5s141.166 100.833 194.499 173.5l30 42h-26
c-12.667 0 -19 3 -19 9c0 6.66699 6.33301 10 19 10s26 0.333008 40 1l103 154c35.333 52.667 64.333 91.667 87 117c28.667 33.333 55.667 60 81 80c19.333 14.667 32.333 22 39 22c8.66699 0 13 -4.33301 13 -13c-18.667 -15.333 -38.334 -37 -59.001 -65
c-12 -16.667 -36.667 -56 -74 -118c-40 -68 -74 -122.667 -102 -164l1 -1c102.667 20.667 191.334 57 266.001 109c79.333 56.667 119 117 119 181z" />
    <glyph glyph-name="S" unicode="S" horiz-adv-x="902" 
d="M1158 691c0 -47.333 -25.0049 -101.333 -75.0049 -162c-52.667 -63.333 -119 -117.333 -199 -162c-99.333 -245.333 -279.666 -368 -540.999 -368c-91.333 0 -164.333 19.333 -219 58s-82 89 -82 151c0 92 53.667 168 161 228c93.333 51.333 193.333 77 300 77
c78 0 137.333 -11.333 178 -34c0 -10 -4 -15 -12 -15c-38 18.667 -85.333 28 -142 28c-101.333 0 -196.666 -27 -285.999 -81c-97.333 -59.333 -146 -129.333 -146 -210c0 -58.667 22.333 -103.167 67 -133.5s107.334 -45.5 188.001 -45.5
c192.667 0 339.334 100 440.001 300c-81.333 -31.333 -162.666 -47 -243.999 -47c-71.333 0 -123.333 10.667 -156 32c-2.66699 2.66699 -4 5.66699 -4 9c0 6 4 9 12 9c38.667 -14 84.667 -21 138 -21c96.667 0 186.334 16.333 269.001 49c14.667 32.667 29 68.667 43 108
c29.333 85.333 70.666 157 123.999 215c49.333 53.333 93 80 131 80c36.667 0 55 -21.667 55 -65zM1127 708c0 18.667 -8 28 -24 28c-30 0 -62 -25 -96 -75c-36.667 -53.333 -68 -124 -94 -212c-4.66699 -16 -10 -32.333 -16 -49c72 44 130 98.667 174 164
c37.333 55.333 56 103.333 56 144z" />
    <glyph glyph-name="T" unicode="T" horiz-adv-x="1218" 
d="M1330 697c-7.33301 -6 -24.3301 -13.334 -50.9971 -22.001c-32.667 -10.667 -65.334 -17.334 -98.001 -20.001c-2.66699 -3.33301 -7.33398 -6.33301 -14.001 -9c-47.333 -16.667 -85 -31.334 -113 -44.001c-72 -33.333 -132.333 -72 -181 -116
c-56.667 -50.667 -101.334 -106 -134.001 -166c-31.333 -56 -47 -105.667 -47 -149c0 -44 14.667 -79.333 44 -106c32.667 -28 78.667 -42 138 -42c60 0 121.333 12.667 184 38c52.667 21.333 95 46 127 74c6 1.33301 10.333 0.5 13 -2.5s3 -7.16699 1 -12.5
c-29.333 -28 -69.666 -53.333 -120.999 -76c-68 -30.667 -136.333 -46 -205 -46c-78.667 0 -142.167 16.833 -190.5 50.5s-72.5 79.167 -72.5 136.5c0 56.667 23 117 69 181c44.667 62 102.667 116 174 162c77.333 48.667 169.333 90.667 276 126
c-56 0.666992 -164.333 10 -325 28c-154.667 16.667 -275.334 25 -362.001 25c-100.667 0 -192.667 -21.333 -276 -64c-80.667 -41.333 -121 -85 -121 -131c0 -35.333 21.333 -62.666 64 -81.999c33.333 -14.667 71.666 -22 114.999 -22c114.667 0 228 18.667 340 56
c100 32.667 183 74.667 249 126c5.33301 0.666992 9 -0.166016 11 -2.49902s2.33301 -6.16602 1 -11.499c-44 -42.667 -115.667 -85 -215 -127c-117.333 -49.333 -225.333 -74 -324 -74c-76 0 -138 11.667 -186 35c-50 24.667 -75 58 -75 100c0 58.667 47 111.667 141 159
c106 53.333 242.667 80 410 80c85.333 0 211 -8.66699 377 -26s254.333 -26 265 -26c41.333 0 75 6.33301 101 19c4.66699 0 8.33398 -2.33301 11.001 -7c2.66699 -4 2.66699 -8 0 -12z" />
    <glyph glyph-name="U" unicode="U" horiz-adv-x="1227" 
d="M1300 726l-157.998 -331.998c-90.667 -193.333 -136 -310 -136 -350c0 -4.66699 2.16699 -9.5 6.5 -14.5s9.16602 -7.5 14.499 -7.5c27.333 0 63.666 24.333 108.999 73c35.333 38.667 63.333 76 84 112c4.66699 3.33301 9 5 13 5
c4.66699 -0.666992 7 -3.33398 7 -8.00098c-16.667 -38.667 -42.334 -78.334 -77.001 -119.001c-49.333 -57.333 -96.333 -86 -141 -86c-50.667 0 -76 24.667 -76 74c0 50.667 33 141 99 271c-48.667 -64 -88.334 -113 -119.001 -147c-122.667 -135.333 -220 -203 -292 -203
c-50.667 0 -76 26.333 -76 79c0 40 26.333 104.667 79 194c0.666992 2 49.334 78.667 146.001 230c52.667 82.667 79 135.667 79 159c0 20.667 -13.167 38 -39.5 52s-59.5 21 -99.5 21c-105.333 0 -211.666 -28 -318.999 -84c-92.667 -47.333 -171.667 -107 -237 -179
c-61.333 -68 -92 -124.667 -92 -170c0 -57.333 32.333 -86 97 -86c46.667 0 98.667 11 156 33c60 23.333 114.333 54.333 163 93c51.333 40.667 100.333 91.667 147 153c40.667 53.333 66 94.333 76 123c7.33301 22 14 33 20 33c4 0 6 -4 6 -12
c0 -6.66699 -1.66699 -15 -5 -25c-9.33301 -30.667 -31.333 -71.334 -66 -122.001c-46.667 -67.333 -100.667 -125.333 -162 -174c-51.333 -40.667 -108.333 -72.334 -171 -95.001c-56.667 -20 -109.667 -30 -159 -30c-91.333 0 -137 40 -137 120
c0 58.667 30.333 122.834 91 192.501s138.334 127.5 233.001 173.5c105.333 50.667 213.666 76 324.999 76c146 0 219 -43.333 219 -130c0 -40 -26.333 -105 -79 -195c-15.333 -26 -64.333 -103 -147 -231c-53.333 -81.333 -80 -130.666 -80 -147.999
c0 -18.667 14.333 -28 43 -28c24.667 0 63.5 20.333 116.5 61s102.167 88.667 147.5 144c64 78 139 176.333 225 295l100 196c3.33301 9.33301 11.333 16.333 24 21c26 9.33301 39.333 14 40 14c4.66699 0 7 -2.33301 7 -7c0 -3.33301 -1.66699 -8.33301 -5 -15z" />
    <glyph glyph-name="V" unicode="V" horiz-adv-x="1115" 
d="M1250 604c0 -86.667 -36.3301 -180.67 -108.997 -282.003c-63.333 -88 -141.333 -164.667 -234 -230c-89.333 -64 -162 -96 -218 -96c-30 0 -55.333 9.83301 -76 29.5s-31 46.5 -31 80.5c0 39.333 23 97.333 69 174l129 198c46 74 69 127.667 69 161
c0 25.333 -15 46.333 -45 63c-32 18 -75.333 27 -130 27c-70.667 0 -155 -21 -253 -63c-102.667 -44 -187.667 -98 -255 -162c-78 -73.333 -117 -147 -117 -221c0 -60 36.333 -90 109 -90c104.667 0 218.667 52 342 156c105.333 88 186.666 183.667 243.999 287
c9.33301 4.66699 14.666 2.33398 15.999 -6.99902c-62.667 -128.667 -147.334 -236 -254.001 -322c-114 -91.333 -227 -137 -339 -137c-46 0 -82.167 11.833 -108.5 35.5s-39.5 56.834 -39.5 99.501c0 86 38 165.333 114 238c64.667 62 149.667 112.333 255 151
c96 35.333 185.333 53 268 53c160.667 0 241 -47.333 241 -142c0 -42.667 -23 -103.334 -69 -182.001l-129 -203c-46.667 -74 -70 -126 -70 -156c0 -33.333 19.333 -50 58 -50c60 0 131.667 35.333 215 106c80 68.667 148.333 150.334 205 245.001
c61.333 102.667 92 194.334 92 275.001c0 44.667 -10.333 73.667 -31 87c-2 5.33301 0.666992 9.66602 8 12.999c18.667 -7.33301 35 -21.666 49 -42.999c16.667 -26 25 -57 25 -93z" />
    <glyph glyph-name="W" unicode="W" horiz-adv-x="1441" 
d="M1567 566c0 -81.333 -30.001 -167.998 -90.001 -259.998c-56 -86.667 -126.333 -159.334 -211 -218.001c-87.333 -60.667 -169 -91 -245 -91c-64 0 -97.667 33.667 -101 101c-92.667 -68.667 -168.667 -103 -228 -103c-24 0 -44.333 8.66699 -61 26
s-25 40.666 -25 69.999c0 43.333 23 104 69 182l126 199c45.333 72.667 68 123.667 68 153c0 30.667 -15 54.667 -45 72c-32.667 19.333 -78 29 -136 29c-83.333 0 -175 -24.667 -275 -74c-94.667 -46.667 -174.667 -104.334 -240 -173.001
c-68.667 -71.333 -103 -137 -103 -197c0 -52.667 32.333 -79 97 -79c83.333 0 169.666 25.333 258.999 76c72.667 42 140 95.667 202 161c53.333 56.667 86.666 103.334 99.999 140.001c8 5.33301 14.667 4.66602 20 -2.00098c-38 -96 -108.667 -184.333 -212 -265
c-113.333 -88.667 -227 -133 -341 -133c-103.333 0 -155 39 -155 117c0 66 30.333 134.5 91 205.5s138.667 129.167 234 174.5c102.667 48.667 207.334 73 314.001 73c76.667 0 135.667 -14.667 177 -44c39.333 -27.333 59 -64.333 59 -111c0 -38 -23.667 -98.667 -71 -182
c-9.33301 -16.667 -52.666 -87.667 -129.999 -213c-46.667 -75.333 -70 -122.666 -70 -141.999c0 -28 14.667 -42 44 -42c61.333 0 138.666 38 231.999 114c6 59.333 31.333 132.333 76 219c42.667 82.667 90.667 154 144 214c56.667 64.667 102.667 97 138 97
c26.667 0 40 -14 40 -42c0 -52.667 -34.667 -126.334 -104 -221.001c-67.333 -92 -145.666 -176 -234.999 -252c-6.66699 -27.333 -10 -50.666 -10 -69.999c0 -40 22 -60 66 -60c64 0 134.333 32 211 96c72.667 61.333 134.334 136.666 185.001 225.999
c52.667 94 79 180.667 79 260c0 56.667 -22.667 98 -68 124c-4.66699 10 -1 15.667 11 17c24 -8.66699 47.333 -26.667 70 -54c29.333 -35.333 44 -74.666 44 -117.999zM1292 622.002c0 13.333 -5.00098 20 -15.001 20c-28.667 0 -75.167 -51.167 -139.5 -153.5
s-112.166 -200.5 -143.499 -294.5c78.667 74.667 148 155.167 208 241.5s90 148.5 90 186.5z" />
    <glyph glyph-name="X" unicode="X" horiz-adv-x="1154" 
d="M1356 675c0 -19.333 -5.99902 -37 -17.999 -53c-14 -17.333 -30.333 -26 -49 -26c-29.333 0 -44 16.333 -44 49c0 16.667 6.33301 31.667 19 45s27 20 43 20c4.66699 0 7 1.66699 7 5c0 6 -9 9 -27 9c-61.333 0 -134.333 -44.333 -219 -133
c-77.333 -81.333 -143 -175.333 -197 -282c108.667 2.66699 172 4.5 190 5.5s38.333 3.16699 61 6.5l30 4c6 0 9 -3.33301 9 -10s-13 -14.667 -39 -24c-28 -9.33301 -56 -14 -84 -14c-22 0 -83.333 -1 -184 -3c-36.667 -78.667 -55 -143.334 -55 -194.001
c0 -18.667 5.66699 -33.834 17 -45.501s25.666 -17.5 42.999 -17.5c46 0 102 22 168 66c58 38.667 99.667 76.334 125 113.001c9.33301 1.33301 14.666 -2.66699 15.999 -12c-20 -38.667 -62.333 -79 -127 -121c-69.333 -44.667 -129.666 -67 -180.999 -67
c-32 0 -57.667 10.167 -77 30.5s-29 46.833 -29 79.5c0 41.333 8 87.333 24 138c-58.667 -72 -126 -130.667 -202 -176c-78 -47.333 -150.667 -71 -218 -71c-23.333 0 -42.666 6.66699 -57.999 20s-23 31 -23 53c0 19.333 6.5 35.333 19.5 48s27.5 19 43.5 19
c33.333 0 50 -15 50 -45c0 -16 -6.66699 -29.5 -20 -40.5s-27.666 -16.5 -42.999 -16.5l-12 2c-3.33301 0 -5 -1 -5 -3c0 -4 4 -8.33301 12 -13s18.667 -7 32 -7c58 0 122.667 25.333 194 76c66.667 47.333 127.667 108 183 182l-126 -2c-13.333 0 -20 3.66699 -20 11
c0 6 3 11.333 9 16s12 7 18 7c8.66699 0 56.667 1 144 3c68.667 101.333 103 192 103 272c0 99.333 -66.667 149 -200 149c-83.333 0 -175.333 -28 -276 -84c-91.333 -51.333 -170.333 -113.5 -237 -186.5s-100 -134.5 -100 -184.5c0 -26 7.83301 -47.167 23.5 -63.5
s36.167 -24.5 61.5 -24.5c86 0 191.667 51 317 153c115.333 94 187.666 178 216.999 252c4 1.33301 8.5 1.16602 13.5 -0.500977s7.83301 -4.5 8.5 -8.5c-30.667 -81.333 -102.667 -169.333 -216 -264c-123.333 -102.667 -231 -154 -323 -154c-36 0 -65.333 8.66699 -88 26
c-26 20.667 -39 51 -39 91c0 60 30.167 127.333 90.5 202s136.166 136.667 227.499 186c102.667 55.333 206.334 83 311.001 83c88 0 155 -17.333 201 -52c41.333 -31.333 62 -73.666 62 -126.999c0 -30 -4 -61 -12 -93c55.333 76.667 115.666 138.334 180.999 185.001
c70 50.667 135 76 195 76c25.333 0 44.833 -6 58.5 -18s20.5 -27.667 20.5 -47z" />
    <glyph glyph-name="Y" unicode="Y" horiz-adv-x="1080" 
d="M1289 723c-32.667 -48 -87.6641 -150.005 -164.997 -306.005l-128 -268c-50.667 -104 -93 -176.333 -127 -217c-87.333 -106 -178 -159 -272 -159c-25.333 0 -46.166 7.5 -62.499 22.5s-24.5 34.833 -24.5 59.5c0 18.667 5.5 33.667 16.5 45s24.5 17 40.5 17
c14 0 26 -4.83301 36 -14.5s15 -22.167 15 -37.5c0 -13.333 -4.83301 -25 -14.5 -35s-20.834 -15 -33.501 -15c-8 0 -12.667 -1.33301 -14 -4s0.666992 -6.16699 6 -10.5s16 -6.5 32 -6.5c69.333 0 140 50.667 212 152c25.333 36 62.666 101.667 111.999 197l115 227
c-60.667 -74.667 -113 -135 -157 -181c-120.667 -126.667 -213.667 -190 -279 -190c-48 0 -72 25.667 -72 77c0 35.333 25.333 94.333 76 177l141 217c50.667 80.667 76 137.334 76 170.001c0 54.667 -39.333 82 -118 82c-109.333 0 -215.666 -27.667 -318.999 -83
c-87.333 -47.333 -161 -107 -221 -179c-55.333 -66.667 -83 -123.334 -83 -170.001c0 -29.333 8.66699 -51.666 26 -66.999c15.333 -13.333 34.666 -20 57.999 -20c103.333 0 204 42.333 302 127c49.333 42 96.666 92 141.999 150c42.667 54 68 94.333 76 121
c8.66699 11.333 15.667 10 21 -4c-8.66699 -29.333 -31 -70 -67 -122c-46.667 -66.667 -99.334 -123 -158.001 -169c-105.333 -84 -207 -126 -305 -126c-84.667 0 -127 40.333 -127 121c0 58.667 28.5 123.334 85.5 194.001s129.833 129.334 218.5 176.001
c98.667 52 199.667 78 303 78c144.667 0 217 -46 217 -138c0 -47.333 -26 -114.666 -78 -201.999c-20.667 -34.667 -69.334 -107 -146.001 -217c-52 -75.333 -78 -121.666 -78 -138.999c0 -18.667 11.333 -28 34 -28c54.667 0 141 63 259 189
c132 141.333 219.667 250 263 326l105 185c0.666992 2 13.334 6 38.001 12c17.333 4.66699 26 2.66699 26 -6c0 -2 -1 -4.66699 -3 -8z" />
    <glyph glyph-name="Z" unicode="Z" horiz-adv-x="1120" 
d="M1278 732c0 -15.333 -24.6699 -34.002 -74.0029 -56.002c-54 -24.667 -115.667 -42.667 -185 -54c-22 -15.333 -41.333 -31.666 -58 -48.999l-156 -178l109 -1c54 0 86.667 2 98 6c6.66699 2.66699 11 2 13 -2c1.33301 -4 -1.66699 -8 -9 -12
c-26.667 -16 -65.334 -24 -116.001 -24h-125l-117 -124c50 -22.667 117 -66.334 201 -131.001c64.667 -50 114 -75 148 -75c32.667 0 59.667 8 81 24c8.66699 0 13.334 -3.66699 14.001 -11c-12 -10.667 -30 -20.334 -54 -29.001c-30 -11.333 -59.333 -17 -88 -17
c-37.333 0 -75.333 12 -114 36c-21.333 12.667 -55.833 39.334 -103.5 80.001s-87.167 70.334 -118.5 89.001c-14 -13.333 -26 -24.333 -36 -33c-132 -118.667 -270.667 -178 -416 -178c-100 0 -150 28 -150 84c0 52.667 37.667 100.334 113 143.001
c80 45.333 174.667 68 284 68c71.333 0 139.333 -12 204 -36l98 111h-159c-10.667 0 -14.667 6 -12 18s10.334 18 23.001 18c0.666992 0 59.667 -1 177 -3c52 60 91.333 102.333 118 127c45.333 40.667 84.333 72 117 94c-32 -3.33301 -62.667 -5 -92 -5
c-71.333 0 -166.833 16.5 -286.5 49.5s-201.167 49.5 -244.5 49.5c-68.667 0 -131.667 -22 -189 -66c-53.333 -41.333 -80 -83 -80 -125c0 -19.333 2 -33.333 6 -42c-3.33301 -7.33301 -9.66602 -9 -18.999 -5c-8.66699 10.667 -13 28.667 -13 54
c0 60.667 36.333 112.667 109 156c69.333 40.667 147.333 61 234 61c54 0 156 -17.833 306 -53.5s247 -53.5 291 -53.5l92 60c60.667 35.333 110.334 53 149.001 53c20 0 30 -6 30 -18zM593.997 219.998c-59.333 30 -122.668 45 -190.001 45
c-83.333 0 -161.666 -20.667 -234.999 -62s-110 -85 -110 -131c0 -37.333 35 -56 105 -56c156 0 299.333 68 430 204z" />
    <glyph glyph-name="bracketleft" unicode="[" horiz-adv-x="367" 
d="M530 763l-11.002 -28.999h-57c-17.333 0 -30.166 -3.33301 -38.499 -10s-16.166 -18.334 -23.499 -35.001l-280 -693c-3.33301 -9.33301 -5 -17.333 -5 -24c0 -15.333 9 -23 27 -23h59l-11 -29h-154l340 843h154z" />
    <glyph glyph-name="backslash" unicode="\" horiz-adv-x="339" 
d="M312 -92h-39l-264 791h39z" />
    <glyph glyph-name="bracketright" unicode="]" horiz-adv-x="368" 
d="M492 763l-340 -843h-154l11 29h59c27.333 0 47.333 15.667 60 47l280 693c4.66699 12 7 21 7 27c0 12 -10.667 18 -32 18h-57l12 29h154z" />
    <glyph glyph-name="asciicircum" unicode="^" horiz-adv-x="671" 
d="M635 522h-68l-231 220l-232 -220h-65l258 277h80z" />
    <glyph glyph-name="underscore" unicode="_" horiz-adv-x="496" 
d="M493 -94h-490v51h490v-51z" />
    <glyph glyph-name="grave" unicode="`" horiz-adv-x="215" 
d="M176 651c0 -1.33301 -1.33301 -2.33203 -4 -2.99902c-11.333 0 -32.666 15 -63.999 45c-33.333 31.333 -50 56.666 -50 75.999c0 12 6.66699 18 20 18s22.666 -9.66699 27.999 -29c8 -29.333 15.5 -49 22.5 -59s17.167 -20.667 30.5 -32c11.333 -8.66699 17 -14 17 -16z
" />
    <glyph glyph-name="a" unicode="a" horiz-adv-x="352" 
d="M332 298c0 -2 -1.99805 -6 -5.99805 -12c-1.33301 -2 -19 -42 -53 -120c-30 -68.667 -45 -110.334 -45 -125.001c0 -10 4 -15 12 -15c15.333 0 40.666 20.667 75.999 62c2.66699 0.666992 5.5 -0.333008 8.5 -3s4.16699 -5.66699 3.5 -9
c-36 -51.333 -73.333 -77 -112 -77c-31.333 0 -47 15.667 -47 47c0 10.667 5.33301 30.334 16 59.001c-54.667 -69.333 -98.334 -104 -131.001 -104c-34 0 -51 21 -51 63c0 58.667 29 114.667 87 168c56 51.333 113.667 77 173 77c30 0 51.667 -2 65 -6
c2.66699 -1.33301 4 -3 4 -5zM247.002 265c0 12 -4.66797 17.999 -14.001 17.999c-27.333 0 -64.166 -32 -110.499 -96s-69.5 -111.667 -69.5 -143c0 -12 5.33301 -18 16 -18c17.333 0 52.333 33 105 99c24 30.667 42.167 58.334 54.5 83.001s18.5 43.667 18.5 57z" />
    <glyph glyph-name="b" unicode="b" horiz-adv-x="299" 
d="M364 561c0 -14.667 -6 -34.668 -18 -60.001c-14.667 -30.667 -34.667 -60.334 -60 -89.001c-32 -35.333 -75.667 -71 -131 -107l-26 -60c40 42.667 74.333 64 103 64c37.333 0 56 -20 56 -60c0 -51.333 -22.333 -105.333 -67 -162c-46.667 -58.667 -93 -88 -139 -88
c-22 0 -39 5.66699 -51 17s-18 25.333 -18 42c0 42.667 18.333 108.334 55 197.001s77.667 165.334 123 230.001c52 74.667 96.333 112 133 112c26.667 0 40 -12 40 -36zM326 556.999c0 10.667 -4.33105 15.999 -12.998 15.999c-10.667 0 -25.834 -13.667 -45.501 -41
s-38.834 -61.666 -57.501 -102.999c-10 -20.667 -22.333 -47.667 -37 -81c37.333 22 69.333 51.667 96 89c38 52.667 57 92.667 57 120zM228.002 259.998c0 13.333 -5.33398 19.999 -16.001 19.999c-10 0 -26.333 -10.667 -49 -32c-24.667 -23.333 -46 -49.666 -64 -78.999
c-25.333 -66.667 -38 -108 -38 -124c0 -17.333 8 -26 24 -26c26.667 0 57.334 30.667 92.001 92c34 59.333 51 109 51 149z" />
    <glyph glyph-name="c" unicode="c" horiz-adv-x="262" 
d="M253 256c0 -16.667 -4.83203 -29.4971 -14.499 -38.4971s-19.834 -13.5 -30.501 -13.5c-20 0 -30 9.66699 -30 29c0 9.33301 5.16699 18.166 15.5 26.499s15.5 14.5 15.5 18.5c0 6.66699 -3.33301 10 -10 10c-22.667 0 -50.334 -34 -83.001 -102
c-30 -64 -45 -111 -45 -141c0 -14.667 6.33301 -22 19 -22c16.667 0 37.334 10.667 62.001 32c20.667 17.333 35 32.666 43 45.999c3.33301 1.33301 6.83301 0.5 10.5 -2.5s5.5 -6.83301 5.5 -11.5c-12 -16.667 -27.667 -33.334 -47 -50.001
c-29.333 -25.333 -57.333 -38 -84 -38c-43.333 0 -65 27.667 -65 83c0 48 21.167 98 63.5 150s83.833 78 124.5 78c33.333 0 50 -18 50 -54z" />
    <glyph glyph-name="d" unicode="d" horiz-adv-x="348" 
d="M437 566l-167.998 -400.999c-30 -68.667 -45 -110.334 -45 -125.001c0 -10 3 -15 9 -15c11.333 0 26.333 9 45 27l34 35c7.33301 0 11 -4 11 -12c-36 -51.333 -73 -77 -111 -77c-29.333 0 -44 14.333 -44 43c0 13.333 5.33301 34.333 16 63
c-54.667 -69.333 -98 -104 -130 -104c-14.667 0 -26.834 6.5 -36.501 19.5s-14.5 29.5 -14.5 49.5c0 48 24.333 98 73 150c54.667 58.667 116.667 88 186 88c-1.33301 0 0.666992 0 6 0c66.667 155.333 103 239.333 109 252c2.66699 4.66699 5 8 7 10
s5.66699 3.83301 11 5.5s14.666 4.16699 27.999 7.5c10.667 2.66699 16 -0.333008 16 -9c0 -2 -0.666992 -4.33301 -2 -7zM249.002 263.001c0 12 -5.66699 18.001 -17 18.001c-28 0 -65.333 -33.667 -112 -101c-44.667 -64.667 -67 -110.334 -67 -137.001
c0 -12 4 -18 12 -18c20 0 56 33 108 99c24.667 30.667 43 58 55 82c14 29.333 21 48.333 21 57z" />
    <glyph glyph-name="e" unicode="e" horiz-adv-x="267" 
d="M258 265c0 -43.333 -25 -82.334 -75 -117.001c-40 -26.667 -76.667 -41.667 -110 -45c-8 -21.333 -12 -37.666 -12 -48.999c0 -23.333 12.333 -35 37 -35c20 0 42.667 9 68 27c20 14.667 35.333 29.334 46 44.001c8.66699 4.66699 14 1.66699 16 -9
c-11.333 -16 -27 -31.667 -47 -47c-31.333 -22.667 -62 -34 -92 -34c-51.333 0 -77 25.333 -77 76c0 51.333 22.333 103.166 67 155.499s86.667 78.5 126 78.5c35.333 0 53 -15 53 -45zM217 270.999c0 12.667 -4.66699 19.001 -14 19.001c-14 0 -34 -18.667 -60 -56
c-24 -33.333 -44.667 -69.666 -62 -108.999c30 1.33301 60.167 18.666 90.5 51.999s45.5 64.666 45.5 93.999z" />
    <glyph glyph-name="f" unicode="f" horiz-adv-x="239" 
d="M375 552c0 -45.333 -39.665 -112.332 -118.998 -200.999c-36.667 -40 -70.334 -72 -101.001 -96l-23 -55c22 -0.666992 38.333 -1 49 -1c24.667 0 43.667 3 57 9c5.33301 2.66699 8.66602 2.66699 9.99902 0c2 -2.66699 1.33301 -6 -2 -10
c-18.667 -19.333 -48.667 -29 -90 -29h-36l-144 -348c-4 -8.66699 -14.333 -16.334 -31 -23.001c-4.66699 -1.33301 -8 -0.833008 -10 1.5s-2.33301 7.5 -1 15.5c3.33301 18 46.333 136.333 129 355h-22c-18.667 0 -26 0 -22 0c-6.66699 0.666992 -10 3.66699 -10 9
c0 3.33301 8.33301 9 25 17c22 11.333 38.667 21.333 50 30l36 94c23.333 58 55 114.333 95 169c48.667 65.333 90.667 98 126 98c22.667 0 34 -11.667 34 -35zM341.002 552.001c0 10.667 -4 16 -12 16c-20 0 -50.667 -38.667 -92 -116c-8 -16 -30.667 -69.667 -68 -161
c34 33.333 63.333 66.666 88 99.999c56 76.667 84 130.334 84 161.001z" />
    <glyph glyph-name="g" unicode="g" horiz-adv-x="321" 
d="M325 298c-0.666992 -2 -2.33594 -6 -5.00293 -12l-90 -224c18 13.333 30.333 24.333 37 33c8 0 13.667 -4.33301 17 -13c-11.333 -13.333 -33.666 -31 -66.999 -53l-7 -20c-20 -53.333 -50.333 -103.333 -91 -150c-46.667 -54 -90 -81 -130 -81c-28 0 -42 14 -42 42
c0 16 9.33301 35.833 28 59.5s42 45.167 70 64.5c18.667 13.333 53.334 35.333 104.001 66l35 95c-54.667 -69.333 -98 -104 -130 -104c-34.667 0 -52 21 -52 63c0 58.667 29 114.667 87 168c56.667 51.333 114.334 77 173.001 77c26 0 46 -2 60 -6
c2.66699 -1.33301 3.66699 -3 3 -5zM245.998 265c0 12 -4.66602 17.999 -13.999 17.999c-26.667 0 -63.167 -32 -109.5 -96s-69.5 -111.667 -69.5 -143c0 -12 5.33301 -18 16 -18c17.333 0 52.333 33 105 99c23.333 30.667 41.166 58.334 53.499 83.001s18.5 43.667 18.5 57
zM136.999 -21.001c-32.667 -20 -53.667 -33.667 -63 -41c-21.333 -18 -40 -37.667 -56 -59c-18.667 -24.667 -28 -44.334 -28 -59.001c0 -12 5.33301 -18 16 -18c17.333 0 38 15.833 62 47.5s44.333 67.834 61 108.501z" />
    <glyph glyph-name="h" unicode="h" horiz-adv-x="325" 
d="M377 540c0 -40 -28.6689 -91.6699 -86.002 -155.003c-50 -56 -96.667 -95.333 -140 -118l-52 -129c20 27.333 46.667 58 80 92s57.333 55.5 72 64.5s29.334 13.5 44.001 13.5c8 0 12 -3.66699 12 -11c0 2 -4.66699 -6.33301 -14 -25c-14 -28 -33 -68.333 -57 -121
c-28.667 -66 -43 -104 -43 -114s5.66699 -15 17 -15c24.667 0 49.334 21.333 74.001 64c12 4 18.333 2 19 -6c-10 -16.667 -22.667 -32.667 -38 -48c-22.667 -22 -44.667 -33 -66 -33c-37.333 0 -56 15 -56 45c0 21.333 10.333 56 31 104c14 33.333 26.667 59.666 38 78.999
l-3 5c-5.33301 -3.33301 -19 -16.666 -41 -39.999c-23.333 -26 -42 -48.333 -56 -67c-27.333 -37.333 -46 -69.666 -56 -96.999c-3.33301 -8.66699 -22 -18 -56 -28c-4 -1.33301 -6.66699 -0.666016 -8 2.00098c-2 3.33301 -1.66699 8.33301 1 15l156 376
c20.667 48.667 48.667 92.334 84 131.001c38.667 41.333 73.667 62 105 62c26 0 39 -15.333 39 -46zM337.998 544.997c0 10.667 -4 15.999 -12 15.999c-16.667 0 -39 -22.667 -67 -68c-21.333 -32.667 -52 -95.667 -92 -189c32 18.667 67.667 54.334 107 107.001
c42.667 57.333 64 102 64 134z" />
    <glyph glyph-name="i" unicode="i" horiz-adv-x="210" 
d="M231 410c0 -12 -4.16699 -23.167 -12.5 -33.5s-18.5 -15.5 -30.5 -15.5c-22.667 0 -34 13 -34 39c0 12 4.16699 23.167 12.5 33.5s18.5 15.5 30.5 15.5c22.667 0 34 -13 34 -39zM189 294l-65.002 -132c-34.667 -71.333 -52 -113 -52 -125c0 -8.66699 3.66699 -13 11 -13
c10 0 25 8.33301 45 25c16.667 13.333 29.334 25.666 38.001 36.999c2 0.666992 4.66699 -0.166016 8 -2.49902s4.66602 -5.16602 3.99902 -8.49902c-9.33301 -13.333 -22.333 -27.333 -39 -42c-26.667 -22.667 -51 -34 -73 -34c-33.333 0 -50 16 -50 48
c0 13.333 15.667 54.666 47 123.999l44 95c2.66699 7.33301 0.333984 11 -6.99902 11c-14.667 0 -22 5 -22 15s5.66699 14.667 17 14c28.667 -2 56 -0.666992 82 4c4.66699 0.666992 8.33398 -0.5 11.001 -3.5s3 -7.16699 1 -12.5z" />
    <glyph glyph-name="j" unicode="j" horiz-adv-x="183" 
d="M216 399c0 -12 -4 -23 -12 -33s-17.667 -15 -29 -15c-22 0 -33 12.667 -33 38c0 12 4 22.833 12 32.5s17.667 14.5 29 14.5c22 0 33 -12.333 33 -37zM173 294l-77.002 -183.998c-3.33301 -8 -9.66602 -39 -18.999 -93c-9.33301 -50.667 -20.333 -88 -33 -112
c-15.333 -28 -35 -53.333 -59 -76s-44.333 -34 -61 -34c-24.667 0 -37 11.667 -37 35c0 32 25 80.333 75 145c20.667 27.333 42 48.666 64 63.999c2 30 5.33301 52.667 10 68l65 161c2 5.33301 -0.666992 8 -8 8c-17.333 0 -26 3.66699 -26 11c0 8 3.33301 12.667 10 14h42
c18.667 1.33301 32.334 4.33301 41.001 9c9.33301 4.66699 14 2 14 -8c0 -2.66699 -0.333008 -5.33398 -1 -8.00098zM22.998 10.002c-14.667 -12.667 -27 -26 -37 -40c-40 -54 -60 -95.667 -60 -125c0 -15.333 3.66699 -23 11 -23c10 0 23.167 13.167 39.5 39.5
s28.5 52.5 36.5 78.5c4.66699 16.667 8 40 10 70z" />
    <glyph glyph-name="k" unicode="k" horiz-adv-x="349" 
d="M376 540c0 -40 -28.666 -91.6689 -85.999 -155.002c-50 -56 -96.667 -95.333 -140 -118l-41 -101c28 34 49.667 58 65 72c49.333 45.333 89.333 68 120 68c30 0 45 -13.667 45 -41c0 -29.333 -20.667 -59.666 -62 -90.999s-84 -51 -128 -59c38 -54 68 -82 90 -84
c24.667 -2.66699 45 4.66602 61 21.999c1.33301 2 3 3 5 3c8 0 12 -3.66699 12 -11c0 -2 -1 -4 -3 -6c-31.333 -26 -64.666 -39 -99.999 -39c-24.667 0 -49.334 12.333 -74.001 37c-4.66699 4.66699 -23 27.334 -55 68.001c-18 -44.667 -28 -70.334 -30 -77.001
c-2.66699 -8.66699 -21.334 -18 -56.001 -28c-4 -1.33301 -6.66699 -0.666016 -8 2.00098c-2 3.33301 -1.66699 8.33301 1 15l156 376c20.667 48.667 48.667 92.334 84 131.001c38.667 41.333 73.667 62 105 62c26 0 39 -15.333 39 -46zM337.001 544.998
c0 10.667 -4 15.999 -12 15.999c-16.667 0 -39 -22.667 -67 -68c-21.333 -32.667 -52 -95.667 -92 -189c32 18.667 67.667 54.334 107 107.001c42.667 57.333 64 102 64 134zM280.001 273.997c0 6 -3.66602 9.00098 -10.999 9.00098c-16.667 0 -47.334 -24 -92.001 -72
c-42.667 -44.667 -64 -69.667 -64 -75c0 -4 5.66699 -6 17 -6c26 0 57.5 17.667 94.5 53s55.5 65.666 55.5 90.999z" />
    <glyph glyph-name="l" unicode="l" horiz-adv-x="220" 
d="M363 545c0 -19.333 -9.00098 -46.3311 -27.001 -80.998c-16.667 -32 -37 -62.333 -61 -91c-41.333 -50.667 -86.333 -91.667 -135 -123c-57.333 -128.667 -86 -201.334 -86 -218.001c0 -10 4.66699 -15 14 -15c14 0 32.333 7.66699 55 23
c19.333 12.667 32.333 23.667 39 33c10 -1.33301 15 -5.33301 15 -12c-9.33301 -12 -22.666 -24 -39.999 -36c-26 -17.333 -51.667 -26 -77 -26c-35.333 0 -53 15.667 -53 47c0 24.667 18.333 80 55 166c32.667 77.333 63 140.666 91 189.999
c26.667 47.333 55.667 88 87 122c36 38.667 66.667 58 92 58c20.667 0 31 -12.333 31 -37zM326.999 546.002c0 7.33301 -3 11 -9 11c-8 0 -24 -16.833 -48 -50.5s-44.333 -69.167 -61 -106.5l-51 -111c42 34.667 77 74 105 118c42.667 66.667 64 113 64 139z" />
    <glyph glyph-name="m" unicode="m" horiz-adv-x="482" 
d="M458 297c0 2 -4.66602 -6.33496 -13.999 -25.002c-14 -28 -32.667 -68.333 -56 -121c-29.333 -66 -44 -104 -44 -114s6 -15 18 -15c24 0 48.333 21.333 73 64c12 4 18.333 2 19 -6c-9.33301 -16.667 -22 -32.667 -38 -48c-22.667 -22 -44.334 -33 -65.001 -33
c-38 0 -57 15 -57 45c0 21.333 10.333 56 31 104c14 33.333 26.667 59.666 38 78.999l-3 5c-16.667 -9.33301 -49 -45 -97 -107c-24.667 -32.667 -47.667 -68.334 -69 -107.001c-4 -8.66699 -20 -14.667 -48 -18c-9.33301 -1.33301 -14 0.333984 -14 5.00098
c0 3.33301 15.333 37 46 101c33.333 68.667 52 108.334 56 119.001l-4 5c-16 -8.66699 -48.333 -44.334 -97 -107.001c-31.333 -40 -56.666 -73.667 -75.999 -101c-2 -4 -8 -8.5 -18 -13.5s-19 -7.5 -27 -7.5s-12 4 -12 12c0 4.66699 18.333 44 55 118
c32.667 66.667 49 108.334 49 125.001c0 12.667 -4.66699 19 -14 19c-1.33301 0 -13 -3.66699 -35 -11c-2.66699 0 -4.83398 2.16699 -6.50098 6.5s-1.83398 7.5 -0.500977 9.5c24 18 50.333 27 79 27c26.667 0 40 -11.667 40 -35c0 -21.333 -17.333 -66.666 -52 -135.999
l4 -1c19.333 26.667 46 57.334 80 92.001s58.333 56.5 73 65.5s31 13.5 49 13.5c9.33301 0 14 -2.66699 14 -8c0 0.666992 -4.66699 -8.33301 -14 -27l-57 -115c57.333 71.333 103.333 117.333 138 138c14.667 9.33301 29.334 14 44.001 14c8 0 12 -3.66699 12 -11z" />
    <glyph glyph-name="n" unicode="n" horiz-adv-x="347" 
d="M323 297c0 2 -4.66895 -6.33398 -14.002 -25.001c-14 -28 -32.667 -68.333 -56 -121c-29.333 -66 -44 -104 -44 -114s6 -15 18 -15c24 0 48.333 21.333 73 64c12.667 4 19 2 19 -6c-9.33301 -16.667 -21.666 -32.667 -36.999 -48c-23.333 -22 -45.333 -33 -66 -33
c-38 0 -57 15 -57 45c0 21.333 10.333 56 31 104c14.667 33.333 27.667 59.666 39 78.999l-4 5c-16 -9.33301 -48.333 -45 -97 -107c-31.333 -40.667 -56.666 -74.667 -75.999 -102c-9.33301 -14 -23 -21 -41 -21c-8 0 -12 4 -12 12c0 1.33301 18.333 41 55 119
c32 68.667 48 109.334 48 122.001s-4.66699 19 -14 19c-3.33301 0 -16.333 -3.66699 -39 -11c-7.33301 2.66699 -9.66602 8 -6.99902 16c25.333 18.667 52.666 28 81.999 28c9.33301 0 17.833 -3.16699 25.5 -9.5s11.5 -15.166 11.5 -26.499c0 -20.667 -17 -65 -51 -133
l4 -2c19.333 26.667 46 57.5 80 92.5s58.333 57 73 66s29.667 13.5 45 13.5c7.33301 0 11 -3.66699 11 -11z" />
    <glyph glyph-name="o" unicode="o" 
d="M298 141c-11.333 -11.333 -24.002 -17.001 -38.002 -17.001c-2 0 -5 0.333008 -9 1c-19.333 -35.333 -44 -65.166 -74 -89.499s-57.667 -36.5 -83 -36.5c-51.333 0 -77 25.667 -77 77c0 55.333 22 108.5 66 159.5s93.333 76.5 148 76.5c9.33301 0 14 -2 14 -6
c0 -6.66699 -4.66699 -10 -14 -10c-37.333 0 -75 -32.667 -113 -98c-34.667 -60 -52 -110.333 -52 -151c0 -21.333 10 -32 30 -32c18 0 38.833 12.333 62.5 37s43.834 53.667 60.501 87c-21.333 16 -32 38.333 -32 67c0 25.333 5.66699 45 17 59c10 12 21 18 33 18
c28.667 0 43 -19 43 -57c0 -26.667 -7 -54.667 -21 -84c4.66699 -0.666992 7.33398 -1 8.00098 -1c8 0 16.333 3.66699 25 11c6.66699 -1.33301 8.66699 -5 6 -11zM246.998 230.999c0 22.667 -4.66699 34 -14 34c-12 0 -18 -18.667 -18 -56c0 -24 4.33301 -41.333 13 -52
c12.667 29.333 19 54 19 74z" />
    <glyph glyph-name="p" unicode="p" 
d="M303 259c0 -46 -20.665 -99.667 -61.998 -161c-44.667 -66 -88.334 -99 -131.001 -99c-22.667 0 -41.334 6 -56.001 18c-28 -60.667 -63.667 -134 -107 -220c-2 -4 -7 -8.16699 -15 -12.5s-15.333 -6.5 -22 -6.5c-10.667 0 -16 4 -16 12c0 2.66699 0.666992 6 2 10
l193 444c2 4.66699 3 9 3 13c0 10.667 -4 16 -12 16c-2.66699 0 -10.667 -5.66699 -24 -17c-10 -4 -16.333 -0.333008 -19 11c19.333 28 44 42 74 42c23.333 0 35 -14 35 -42c0 -24 -6.33301 -48.667 -19 -74c50 77.333 91.667 116 125 116c34 0 51 -16.667 51 -50z
M247.002 267c0 11.333 -3 16.999 -9 16.999c-10 0 -32.333 -23 -67 -69c-30.667 -41.333 -59 -83.666 -85 -126.999l-24 -55c9.33301 -8.66699 20 -13 32 -13c32 0 66.333 33.333 103 100c33.333 60.667 50 109.667 50 147z" />
    <glyph glyph-name="q" unicode="q" horiz-adv-x="328" 
d="M337 296c0 -2.66699 -4.00098 -8.66699 -12.001 -18c-1.33301 -1.33301 -33.666 -77.333 -96.999 -228c-53.333 -127.333 -90 -211.333 -110 -252c-6 -10.667 -21 -16 -45 -16c-10.667 0 -16 3 -16 9c0 2 1 5 3 9l121 279l-4 3c-6 -10.667 -20.333 -25.667 -43 -45
c-30.667 -26 -58 -39 -82 -39c-31.333 0 -47 20 -47 60c0 51.333 26 105 78 161c56 60 116 90 180 90c49.333 0 74 -4.33301 74 -13zM257.999 262c0.666992 2 1 4.00195 1 6.00195c0 8 -8.33301 12 -25 12c-34 0 -73.333 -34.667 -118 -104c-40 -64 -60 -110.333 -60 -139
c0 -12 4 -18 12 -18c14 0 34.667 13.333 62 40c24 23.333 44.833 48.166 62.5 74.499s39.5 69.166 65.5 128.499z" />
    <glyph glyph-name="r" unicode="r" horiz-adv-x="228" 
d="M202 83c-9.33301 -16 -22 -31.999 -38 -47.999c-24.667 -23.333 -48 -35 -70 -35c-14.667 0 -27.167 4.66699 -37.5 14s-15.5 21.333 -15.5 36c0 17.333 18.667 59 56 125c30.667 54 46 84 46 90c0 8.66699 -4 13 -12 13c-9.33301 0 -19 -7.33301 -29 -22
c-18 -25.333 -29.667 -40.666 -35 -45.999c-0.666992 -0.666992 -1.66699 -1 -3 -1c-3.33301 0 -6.83301 1.5 -10.5 4.5s-5.16699 6.16699 -4.5 9.5c18.667 24 29.334 39.333 32.001 46c-10 20 -15 37.667 -15 53c0 32.667 12 49 36 49c22 0 33 -11.667 33 -35
c0 -16.667 -2 -28.334 -6 -35.001l3 -3c21.333 8 35.666 12 42.999 12c16.667 0 25 -12 25 -36c0 -14.667 -6 -33.667 -18 -57c-0.666992 -2 -13 -24.667 -37 -68l-37 -65.5c-12 -21.667 -18 -37.167 -18 -46.5c0 -10 4 -15 12 -15c12.667 0 30 10.667 52 32
c14.667 13.333 27.667 27.666 39 42.999c8 -2 11 -6.66699 9 -14z" />
    <glyph glyph-name="s" unicode="s" horiz-adv-x="247" 
d="M232 332c0 -4.66699 -6.16504 -12 -18.498 -22s-18.5 -21.667 -18.5 -35c0 -11.333 2.83301 -24.666 8.5 -39.999s8.5 -32.333 8.5 -51c0 -52 -16.5 -95.667 -49.5 -131s-70.833 -53 -113.5 -53c-41.333 0 -62 19 -62 57c0 18 4.66699 32.667 14 44s19.666 17 30.999 17
c22.667 0 34 -11.667 34 -35c0 -13.333 -4.66699 -24 -14 -32s-19.333 -12 -30 -12c-6 0 -8.66699 -2 -8 -6c3.33301 -12 13 -18 29 -18c28 0 53 18 75 54s33 77 33 123c0 14.667 -3.33301 25 -10 31c-4 4.66699 -8.33301 4.66699 -13 0l-51 -54
c-3.33301 -1.33301 -7 -0.333008 -11 3s-5.66699 6.66602 -5 9.99902c15.333 16 40.666 45 75.999 87l42 55c12.667 16.667 24.667 25 36 25s17 -5.66699 17 -17z" />
    <glyph glyph-name="t" unicode="t" horiz-adv-x="230" 
d="M244 427l-62.999 -135h46c9.33301 0 14 -4.33301 14 -13s-4.66699 -13 -14 -13h-59l-93 -199c-5.33301 -11.333 -8 -21 -8 -29c0 -13.333 5 -20 15 -20c18 0 43.333 18.667 76 56c7.33301 2.66699 12.666 1 15.999 -5c-32 -46 -66.667 -69 -104 -69
c-38.667 0 -58 16 -58 48c0 12 3 24.667 9 38l86 180h-42c-8.66699 0 -13 4.33301 -13 13s4.33301 13 13 13h54l64 135c6 12.667 17.667 19 35 19c18 0 27 -4 27 -12c0 -2 -0.333008 -4.33301 -1 -7z" />
    <glyph glyph-name="u" unicode="u" horiz-adv-x="360" 
d="M336 296c-74 -140 -110.999 -226.003 -110.999 -258.003c0 -10.667 3.33301 -16 10 -16c10 0 24.167 9.83301 42.5 29.5s30.166 35.834 35.499 48.501c10 4 16.667 2.66699 20 -4c-7.33301 -16.667 -21 -35.334 -41 -56.001c-26 -27.333 -51.333 -41 -76 -41
c-10 0 -19 4 -27 12c-10 8.66699 -15 20.334 -15 35.001s5.66699 37.334 17 68.001c-58.667 -76 -103 -114 -133 -114s-45 14.667 -45 44c0 16.667 13.667 54.334 41 113.001l51 109c2.66699 7.33301 0 11 -8 11c-14.667 0 -22 5 -22 15s6 14.667 18 14
c28 -2 55 -0.666992 81 4c5.33301 1.33301 9.33301 0.333008 12 -3c2.66699 -2.66699 2.66699 -6.66699 0 -12l-60 -121c-37.333 -76.667 -56 -120.667 -56 -132c0 -6 3.33301 -9 10 -9c16.667 0 65.667 55 147 165l46 93c5.33301 11.333 11.333 17 18 17
c2.66699 0 8.16699 0.333008 16.5 1s13.833 1 16.5 1c12.667 0 16.667 -4.66699 12 -14z" />
    <glyph glyph-name="v" unicode="v" 
d="M291 228c0 -52.667 -24.332 -104.169 -72.999 -154.502s-95.334 -75.5 -140.001 -75.5c-18 0 -32.667 5.83301 -44 17.5s-17 26.834 -17 45.501c0 14.667 3.33301 29.334 10 44.001l65 146c7.33301 16 5.66602 24 -5.00098 24c-10 0 -22 -3.66699 -36 -11
c-7.33301 3.33301 -9.66602 10.333 -6.99902 21c22.667 14.667 47.667 22 75 22s41 -11.667 41 -35c0 -7.33301 -1.33301 -14 -4 -20l-83 -179c-6 -12.667 -9 -24 -9 -34c0 -14.667 6.66699 -22 20 -22c31.333 0 65.333 24.5 102 73.5s55 98.5 55 148.5c0 38 -18 57 -54 57
c-4 4 -6 8.33301 -6 13c0.666992 4.66699 2.66699 8 6 10c26 0 49 -7.33301 69 -22c23.333 -17.333 35 -40.333 35 -69z" />
    <glyph glyph-name="w" unicode="w" horiz-adv-x="457" 
d="M452 234c0 -54.667 -24.833 -108.671 -74.5 -162.004s-97.834 -80 -144.501 -80c-17.333 0 -31.333 4.83301 -42 14.5s-16 22.167 -16 37.5c0 39.333 21.667 102.333 65 189l-3 4c-18.667 -16.667 -50.334 -53.667 -95.001 -111c-42 -54.667 -72.667 -92.667 -92 -114
c-2.66699 -2.66699 -9 -5.66699 -19 -9s-17 -5 -21 -5c-9.33301 0 -10.666 6.66699 -3.99902 20c10.667 22.667 28 62.334 52 119.001c30.667 72.667 46 114.334 46 125.001c0 10 -4 15 -12 15c-10 0 -22.333 -4 -37 -12c-2 0 -3.5 2.33301 -4.5 7
s-1.16699 8.33398 -0.5 11.001c26.667 16.667 52.667 25 78 25c24.667 0 37 -12.667 37 -38c0 -8.66699 -1.66699 -17.667 -5 -27l-50 -120l5 -3c14 20.667 42 56 84 106c47.333 52.667 79.666 79 96.999 79c19.333 0 29 -3.66699 29 -11c0 1.33301 -3.66699 -6 -11 -22
c-59.333 -136.667 -89 -216.667 -89 -240c0 -13.333 6.33301 -20 19 -20c34.667 0 70.334 28.333 107.001 85c34.667 54.667 52 103.667 52 147c0 38.667 -16.667 58 -50 58c-3.33301 1.33301 -5.33301 4.33301 -6 9s0.333008 7.33398 3 8.00098
c28.667 0 52.834 -7.5 72.501 -22.5s29.5 -35.833 29.5 -62.5z" />
    <glyph glyph-name="x" unicode="x" horiz-adv-x="375" 
d="M383 278c0 -10 -4 -19.998 -12 -29.998s-16.667 -15 -26 -15c-16 0 -24 8 -24 24c0 13.333 6 23 18 29c5.33301 3.33301 4.33301 5 -3 5c-10.667 0 -25.167 -12.167 -43.5 -36.5s-35.5 -52.833 -51.5 -85.5h61c7.33301 0 11 -3 11 -9c0 -10 -6 -15 -18 -15h-64
c-16.667 -38.667 -25 -70.334 -25 -95.001c0 -22.667 8.66699 -34 26 -34c24.667 0 57.667 22 99 66c8 0.666992 12 -2.66602 12 -9.99902c-10.667 -14 -26 -28 -46 -42c-28 -20.667 -54 -31 -78 -31c-18 0 -32.833 5.5 -44.5 16.5s-17.5 25.5 -17.5 43.5
c0 7.33301 1 15.666 3 24.999c-49.333 -56 -95.666 -84 -138.999 -84c-28 0 -42 14 -42 42c0 13.333 4.16699 25 12.5 35s17.5 15 27.5 15c20.667 0 31 -9.33301 31 -28c0 -8.66699 -5 -17.334 -15 -26.001s-15 -14 -15 -16c0 -4 2.66699 -6 8 -6c34 0 75.333 43 124 129
h-54c-7.33301 0 -11 3 -11 9c0 10 6.33301 15 19 15h59c22.667 44 34 75.667 34 95c0 16 -7.66699 24 -23 24c-18 0 -40 -8 -66 -24c-20 -11.333 -36 -23 -48 -35c-9.33301 -1.33301 -14.333 2.66699 -15 12c7.33301 11.333 24.666 25 51.999 41c32 18 60.333 27 85 27
c16.667 0 30.667 -5.16699 42 -15.5s17 -23.5 17 -39.5c0 -4.66699 -0.333008 -9 -1 -13c38.667 45.333 74.667 68 108 68c22 0 33 -10.333 33 -31z" />
    <glyph glyph-name="y" unicode="y" horiz-adv-x="320" 
d="M307 291c-3.33301 -7.33301 -31.6729 -84 -85.0059 -230c18.667 13.333 31.334 24.666 38.001 33.999c8 0 13.667 -4.33301 17 -13c-11.333 -13.333 -33.666 -31 -66.999 -53l-7 -20c-20 -53.333 -50.333 -103.666 -91 -150.999c-46.667 -53.333 -90 -80 -130 -80
c-28 0 -42 14 -42 42c0 16 9.33301 35.833 28 59.5s42 45.167 70 64.5c18.667 12.667 53.334 34.667 104.001 66l31 77c-14 -18 -32.333 -36 -55 -54c-28 -22.667 -49.667 -34 -65 -34c-13.333 0 -24.5 4.66699 -33.5 14s-13.5 20.666 -13.5 33.999
c0 19.333 16 57.333 48 114c34.667 61.333 52 96.666 52 105.999c0 10.667 -4.33301 16 -13 16c-7.33301 0 -20.666 -5.33301 -39.999 -16c-7.33301 2 -12 6.66699 -14 14c14.667 18.667 39.334 28 74.001 28c31.333 0 47 -13.667 47 -41
c0 -14.667 -18.167 -55.667 -54.5 -123s-54.5 -104.666 -54.5 -111.999s3.33301 -11 10 -11c20 0 49 21.667 87 65c32.667 38.667 54.334 70.334 65.001 95.001l41 100c6 12.667 12 19.667 18 21c9.33301 2 16 3 20 3c11.333 0 17 -3 17 -9
c0 -1.33301 -0.666992 -3.33301 -2 -6zM129.993 -21c-32.667 -20 -53.667 -33.667 -63 -41c-21.333 -18 -40 -37.667 -56 -59c-18.667 -24.667 -28 -44.334 -28 -59.001c0 -12 5.33301 -18 16 -18c17.333 0 38 15.833 62 47.5s44.333 67.834 61 108.501z" />
    <glyph glyph-name="z" unicode="z" horiz-adv-x="334" 
d="M328 286c0 -15.333 -10.333 -30.165 -31 -44.498s-40 -21.5 -58 -21.5c-6 0 -12 0.666992 -18 2c-10 -10 -20.667 -25.333 -32 -46h57c6 0 9 -3 9 -9s-3 -9 -9 -9h-67c-4.66699 -8 -10.667 -19.333 -18 -34c21.333 -6 38.333 -17 51 -33
c2.66699 -3.33301 10 -16.333 22 -39c7.33301 -12.667 15.333 -19 24 -19c14 0 28 15.667 42 47c8.66699 1.33301 13.667 -2.33398 15 -11.001c-6.66699 -14.667 -16.334 -29 -29.001 -43c-16 -18 -32.333 -27 -49 -27c-20 0 -37 12.667 -51 38
c-19.333 34.667 -32 54.667 -38 60c-36.667 -66.667 -74 -100 -112 -100c-26 0 -39 10.667 -39 32c0 23.333 12.667 45.666 38 66.999s53.666 32 84.999 32c5.33301 0 11.333 -0.333008 18 -1l15 31h-38c-6 0 -9 3 -9 9s3 9 9 9h49c12.667 19.333 26.667 36.333 42 51
l-47 27c-20 11.333 -40 17 -60 17c-14.667 0 -27 -4.83301 -37 -14.5s-15 -20.5 -15 -32.5c0 -9.33301 1.33301 -16.333 4 -21c-1.33301 -1.33301 -4 -2.66602 -8 -3.99902c-4 -0.666992 -7.33301 -0.333984 -10 0.999023c-3.33301 7.33301 -5 15.333 -5 24
c0 19.333 10.5 38.333 31.5 57s44.167 28 69.5 28c20.667 0 41.834 -7.83301 63.501 -23.5s34.834 -23.5 39.501 -23.5c30.667 24.667 55.667 37 75 37c14 0 21 -4.33301 21 -13zM129 108.001c-6 2 -12 2.99902 -18 2.99902c-20.667 0 -38.667 -9.33301 -54 -28
c-14 -15.333 -21 -30.666 -21 -45.999c0 -13.333 4.33301 -20 13 -20c22 0 48.667 30.333 80 91z" />
    <glyph glyph-name="braceleft" unicode="{" horiz-adv-x="391" 
d="M615 740l-8.99609 -23.001c-56.667 -3.33301 -97 -16.333 -121 -39c-18.667 -17.333 -40 -55.666 -64 -114.999l-19 -47c-28.667 -70.667 -55.667 -118 -81 -142c-28.667 -27.333 -77.334 -48.333 -146.001 -63c30.667 -7.33301 52 -15.333 64 -24
c20 -12.667 30 -31.667 30 -57c0 -28 -12 -72.333 -36 -133l-20 -48c-19.333 -48 -29 -79.667 -29 -95c0 -30 31.333 -46 94 -48l-9 -23c-44.667 0 -75.334 2.66699 -92.001 8c-34 10 -51 31.333 -51 64c0 24 8 56 24 96l42 105c14.667 35.333 22 61 22 77
c0 34 -34.667 55.333 -104 64l11 27c61.333 9.33301 102 20.333 122 33c27.333 17.333 52 53.333 74 108l43 105c18.667 46.667 38 81.334 58 104.001c25.333 28 58.666 46.667 99.999 56c25.333 5.33301 57.666 8.66602 96.999 9.99902z" />
    <glyph glyph-name="bar" unicode="|" horiz-adv-x="349" 
d="M201 -234h-52v998h52v-998z" />
    <glyph glyph-name="braceright" unicode="}" horiz-adv-x="481" 
d="M451 324l-10.9971 -26.999c-44 -5.33301 -77.667 -13 -101 -23c-32 -14.667 -56.333 -38 -73 -70c-6.66699 -11.333 -14 -27.333 -22 -48l-43 -105c-26.667 -66.667 -57.834 -111.334 -93.501 -134.001s-89.167 -34 -160.5 -34l9 23c55.333 2 94.666 13 117.999 33
c18.667 16 39.667 52.667 63 110l19 48c29.333 72.667 57 122 83 148c30.667 30 80 52 148 66c-66 16.667 -99 44.334 -99 83.001c0 19.333 12.333 60 37 122l19 47c20.667 50.667 31 84.667 31 102c0 30.667 -30.333 48 -91 52l9 23c60.667 -2 101 -10 121 -24
c15.333 -10.667 23 -26.667 23 -48c0 -22.667 -8.66699 -55.334 -26 -98.001l-42 -105c-13.333 -33.333 -20 -59.666 -20 -78.999c0 -24.667 11.667 -41.334 35 -50.001c3.33301 -1.33301 25.666 -5.33301 66.999 -12z" />
    <glyph glyph-name="asciitilde" unicode="~" horiz-adv-x="653" 
d="M628 752c-11.333 -28.667 -28.668 -52.333 -52.001 -71c-29.333 -24 -64 -36 -104 -36c-31.333 0 -78.666 10.167 -141.999 30.5s-110 30.5 -140 30.5c-49.333 0 -91 -25.667 -125 -77l-27 15c24.667 41.333 49.5 70.833 74.5 88.5s55.167 26.5 90.5 26.5
c32 0 78.333 -10 139 -30s107 -30 139 -30c49.333 0 90 23 122 69z" />
    <glyph glyph-name="nonbreakingspace" unicode="&#xa0;" horiz-adv-x="221" 
 />
    <glyph glyph-name="exclamdown" unicode="&#xa1;" horiz-adv-x="308" 
d="M400 596c0 -16 -6.5 -32.333 -19.5 -49s-27.5 -25 -43.5 -25c-18 0 -27 10.667 -27 32c0 16.667 6.5 33.167 19.5 49.5s27.5 24.5 43.5 24.5c18 0 27 -10.667 27 -32zM320 475l-209 -488h-66l258 491z" />
    <glyph glyph-name="cent" unicode="&#xa2;" horiz-adv-x="525" 
d="M487 490c0 -35.333 -14.335 -53 -43.002 -53c-26 0 -39 12.667 -39 38c0 10.667 6.16699 20.667 18.5 30s18.5 15.666 18.5 18.999c0 10.667 -4 17.667 -12 21l-236 -485c3.33301 -0.666992 7 -1 11 -1c42.667 0 85.667 18.333 129 55c30 26 54.667 54 74 84
c10.667 0 16.334 -5.33301 17.001 -16c-21.333 -30 -48.666 -58.667 -81.999 -86c-50 -41.333 -97 -62 -141 -62c-6.66699 0 -13 0.666992 -19 2l-29 -58h-28l32 65c-42 17.333 -63 60.333 -63 129c0 80 35.167 163.833 105.5 251.5s139.833 133.834 208.5 138.501l31 63h28
l-31 -65c33.333 -8 50 -31.333 50 -70zM400.998 545c-53.333 -12 -108.667 -67.999 -166 -167.999c-55.333 -96 -83 -177 -83 -243c0 -28.667 6.66699 -49.334 20 -62.001z" />
    <glyph glyph-name="sterling" unicode="&#xa3;" horiz-adv-x="552" 
d="M583 545c0 -10 -6.33105 -20.001 -18.998 -30.001s-23.667 -15 -33 -15c-10.667 0 -16 5.66699 -16 17c0 2 0.333008 5.5 1 10.5s1 8.83301 1 11.5c0 26.667 -17 40 -51 40c-30 0 -59.5 -10.333 -88.5 -31s-49.167 -44.667 -60.5 -72s-20.333 -79.333 -27 -156h99
l-10 -32h-92c-10 -72.667 -43 -140 -99 -202c32.667 -16.667 67.667 -25 105 -25c76 0 131.667 38 167 114c3.33301 1.33301 6 2 8 2c6 0 9 -4 9 -12c0 -4 -0.333008 -6.66699 -1 -8c-4 -10 -13.333 -25 -28 -45c-54.667 -74.667 -117.667 -112 -189 -112
c-42.667 0 -77.334 16.667 -104.001 50c-42.667 -32 -77.667 -48 -105 -48c-11.333 0 -21.5 3.5 -30.5 10.5s-13.5 16.167 -13.5 27.5c0 20.667 9.66699 38.834 29 54.501s39.333 23.5 60 23.5s42.667 -7 66 -21c21.333 34 36 64.667 44 92
c6.66699 23.333 11.334 56.333 14.001 99h-83l10 32h75c3.33301 40.667 10.666 75 21.999 103c20 49.333 52.667 91.166 98 125.499s93.666 51.5 144.999 51.5c18 0 37.667 -5 59 -15c25.333 -11.333 38 -24.666 38 -39.999zM135.002 65.999
c-15.333 18 -32.332 27 -50.999 27c-13.333 0 -24.5 -4.5 -33.5 -13.5s-13.5 -20.167 -13.5 -33.5c0 -12.667 7.33301 -19 22 -19c25.333 0 50.666 13 75.999 39z" />
    <glyph glyph-name="currency" unicode="&#xa4;" horiz-adv-x="599" 
d="M594 514c0 -16 -4.33301 -29.8359 -13 -41.5029s-20.667 -17.5 -36 -17.5c-29.333 0 -44 12.667 -44 38c0 15.333 7 28.333 21 39s21 17.667 21 21c0 18 -9 27 -27 27c-34.667 0 -73.334 -22.333 -116.001 -67c-38.667 -40 -74.667 -91.667 -108 -155h182l-20 -28h-176
c-12 -25.333 -22.667 -50.666 -32 -75.999h168l-20 -28h-158c-14.667 -44.667 -22 -83 -22 -115c0 -56.667 20 -85 60 -85c48 0 97.667 22 149 66c36 30.667 63.333 61.334 82 92.001c11.333 0 17.333 -6 18 -18c-23.333 -34 -54 -66.333 -92 -97
c-56.667 -46.667 -110 -70 -160 -70c-81.333 0 -122 52 -122 156c0 22.667 3.33301 46.334 10 71.001h-145l20 28h132c8 25.333 18.667 50.666 32 75.999h-124l20 28h119c38.667 66.667 85.667 122.334 141 167.001c58 47.333 112 71 162 71
c24.667 0 44.334 -8.33301 59.001 -25c12.667 -15.333 19 -34.333 19 -57z" />
    <glyph glyph-name="section" unicode="&#xa7;" horiz-adv-x="404" 
d="M456 554c0 -16 -6.16797 -30.332 -18.501 -42.999s-26.5 -19 -42.5 -19c-14.667 0 -22 6.33301 -22 19c0 9.33301 7.83301 19.833 23.5 31.5s23.5 21.5 23.5 29.5c0 12.667 -14.333 19 -43 19c-24 0 -45 -7.83301 -63 -23.5s-27 -35.5 -27 -59.5
c0 -20 17.333 -49.833 52 -89.5s52 -73.167 52 -100.5c0 -36.667 -15.833 -67.167 -47.5 -91.5s-66.5 -36.5 -104.5 -36.5c23.333 -26 35 -51.333 35 -76c0 -36 -18.333 -66.333 -55 -91c-33.333 -21.333 -68.666 -32 -105.999 -32c-48.667 0 -73 16.333 -73 49
c0 15.333 5.5 30.333 16.5 45s23.833 22 38.5 22c16.667 0 25 -6 25 -18s-7.16699 -24.833 -21.5 -38.5s-21.5 -21.5 -21.5 -23.5c0 -14 15 -21 45 -21c25.333 0 47.333 6.66699 66 20c21.333 15.333 32 35.333 32 60c0 18.667 -17 49.667 -51 93s-51 78.333 -51 105
c0 34 16.667 63.333 50 88c30.667 22 63.667 33 99 33c-23.333 31.333 -35 56.666 -35 75.999c0 34.667 17.333 65 52 91c32 23.333 66 35 102 35c17.333 0 33 -4 47 -12c15.333 -10 23 -23.667 23 -41zM337.999 284.001c0 34 -19.332 69.334 -57.999 106.001
c-24 0 -46.333 -4.66699 -67 -14c-26 -12 -39 -28.667 -39 -50c0 -14.667 6.5 -35.834 19.5 -63.501s25.5 -46.167 37.5 -55.5c25.333 0 48.666 6.33301 69.999 19c24.667 14.667 37 34 37 58z" />
    <glyph glyph-name="dieresis" unicode="&#xa8;" horiz-adv-x="243" 
d="M210 768c0 -24.667 -11 -37 -33 -37c-14 0 -21 8 -21 24c0 22.667 10 34 30 34c16 0 24 -7 24 -21zM108 768c0 -24.667 -11 -37 -33 -37c-14.667 0 -22 8 -22 24c0 22.667 10 34 30 34c16.667 0 25 -7 25 -21z" />
    <glyph glyph-name="copyright" unicode="&#xa9;" horiz-adv-x="689" 
d="M653 299c0 -83.333 -29.5 -154.666 -88.5 -213.999s-130.167 -89 -213.5 -89c-84 0 -155.667 29.667 -215 89s-89 130.666 -89 213.999c0 84 29.667 155.5 89 214.5s131 88.5 215 88.5c83.333 0 154.5 -29.5 213.5 -88.5s88.5 -130.5 88.5 -214.5zM626 299
c0 76 -26.833 140.833 -80.5 194.5s-118.5 80.5 -194.5 80.5s-141 -26.833 -195 -80.5s-81 -118.5 -81 -194.5s27 -140.833 81 -194.5s119 -80.5 195 -80.5s140.833 26.833 194.5 80.5s80.5 118.5 80.5 194.5zM494 132c1.33301 -4.66699 0 -6.99707 -4 -6.99707
c-6.66699 0 -16 -1 -28 -3c-2 -0.666992 -15 -4.66699 -39 -12c-16 -4.66699 -36 -7 -60 -7c-55.333 0 -103 19 -143 57s-60 83 -60 135c0 51.333 20.667 96.166 62 134.499s90 57.5 146 57.5c12.667 0 28.334 -2.33301 47.001 -7c25.333 -6.66699 40.333 -10.667 45 -12
c18 -2.66699 26.667 -4.66699 26 -6v-2l-1 -2c-4.66699 -16.667 -6.66699 -39.334 -6 -68.001c-0.666992 -2 -2.66699 -3 -6 -3h-1c-4.66699 0.666992 -7 2.66699 -7 6v7c3.33301 22 -7.33398 39.667 -32.001 53c-20.667 11.333 -42.667 16.666 -66 15.999
c-44 -2 -80.833 -19.5 -110.5 -52.5s-44.5 -73.167 -44.5 -120.5c0 -48 15 -89 45 -123s66.667 -51 110 -51c38 0 67.667 9 89 27c14.667 12 20.667 28.333 18 49c0 3.33301 2.33301 5.33301 7 6h1c3.33301 0.666992 5.33301 -0.333008 6 -3
c-0.666992 -30.667 1.33301 -53.667 6 -69z" />
    <glyph glyph-name="ordfeminine" unicode="&#xaa;" horiz-adv-x="320" 
d="M340 594c0 -1.33301 -1.33496 -4.33398 -4.00195 -9.00098c-1.33301 -2 -15.666 -34 -42.999 -96c-24 -54.667 -36 -88 -36 -100c0 -8.66699 3 -13 9 -13c12.667 0 33.334 17 62.001 51c3.33301 -1.33301 6.33301 -4.66602 9 -9.99902
c-28.667 -41.333 -58.667 -62 -90 -62c-24.667 0 -37 12.667 -37 38c0 8 4 23.667 12 47c-43.333 -55.333 -78 -83 -104 -83c-27.333 0 -41 16.667 -41 50c0 47.333 22.833 91.833 68.5 133.5s92.167 62.5 139.5 62.5c24 0 41.333 -1.66699 52 -5
c2.66699 -0.666992 3.66699 -2 3 -4zM271.998 567.999c0 10 -3.66699 14.999 -11 14.999c-22 0 -51.5 -25.667 -88.5 -77s-55.5 -89.666 -55.5 -114.999c0 -10 4.33301 -15 13 -15c14 0 42 26.667 84 80c19.333 24 33.833 46 43.5 66s14.5 35.333 14.5 46z" />
    <glyph glyph-name="guillemotleft" unicode="&#xab;" horiz-adv-x="334" 
d="M280 365l-8.99902 -41l-3 -5l-83 -57l58 -102l-31 -20l-75 128c-2 4 -0.666992 7.33301 4 10l130 90c3.33301 2 5.66602 3 6.99902 3c2 -0.666992 2.66699 -2.66699 2 -6zM151.001 365l-7.99902 -41l-4 -5l-83 -57l58 -102l-35 -20l-75 128c-2 4 -0.666992 7.33301 4 10
l134 90c3.33301 2 6 2.66699 8 2c1.33301 0 1.66602 -1.66699 0.999023 -5z" />
    <glyph glyph-name="registered" unicode="&#xae;" horiz-adv-x="630" 
d="M599 504c0 -72.667 -25.833 -135 -77.5 -187s-114.167 -78 -187.5 -78c-72.667 0 -135 26 -187 78s-78 114.333 -78 187c0 73.333 26 135.833 78 187.5s114.333 77.5 187 77.5s135 -26 187 -78s78 -114.333 78 -187zM570 504c0 65.333 -23 121 -69 167
s-101.667 69 -167 69c-64.667 0 -120.167 -23 -166.5 -69s-69.5 -101.667 -69.5 -167c0 -64.667 23.167 -120.167 69.5 -166.5s101.833 -69.5 166.5 -69.5c65.333 0 121 23.167 167 69.5s69 101.833 69 166.5zM498 349c0 -4 -3.00098 -6.00098 -9.00098 -6.00098
c-34 0 -59.333 8 -76 24c-10 10 -19 28 -27 54c-9.33301 30.667 -19.333 51.334 -30 62.001c-13.333 13.333 -35.333 20 -66 20v-110c0 -18 8 -27.667 24 -29c12 -0.666992 18 -3.66699 18 -9c0 -6.66699 -2 -10 -6 -10c-6.66699 0 -16.667 0.5 -30 1.5s-23.333 1.5 -30 1.5
s-16.667 -0.5 -30 -1.5s-23 -1.5 -29 -1.5c-4.66699 2 -7 5.33301 -7 10c0 4 2.33301 7 7 9c12 0 20.333 1.66699 25 5s7 11.333 7 24v238c0 20 -7.33301 30 -22 30c2 0 -0.333008 0 -7 0s-10 3 -10 9c0 4.66699 2.33301 7.66699 7 9c10 0 26.333 -0.333008 49 -1h49h21
c9.33301 0.666992 16.333 1 21 1c24.667 0 45.834 -8 63.501 -24s26.5 -36.667 26.5 -62c0 -36 -22.333 -63 -67 -81c22 -8.66699 37.667 -19.667 47 -33c6 -8 11.667 -22 17 -42s11 -35.333 17 -46c9.33301 -15.333 23.333 -27.333 42 -36c3.33301 -2 5 -4 5 -6z
M383.999 592.999c0 42 -19 63 -57 63c-24.667 0 -37 -8.33301 -37 -25v-111c62.667 0 94 24.333 94 73z" />
    <glyph glyph-name="macron" unicode="&#xaf;" horiz-adv-x="269" 
d="M239 775c0 -11.333 -14.333 -17 -43 -17h-150c-5.33301 0 -8 2.33301 -8 7c0 3.33301 3.33301 7 10 11s15 6 25 6h154c8 0 12 -2.33301 12 -7z" />
    <glyph glyph-name="macron" unicode="&#x2c9;" horiz-adv-x="269" 
d="M239 775c0 -11.333 -14.333 -17 -43 -17h-150c-5.33301 0 -8 2.33301 -8 7c0 3.33301 3.33301 7 10 11s15 6 25 6h154c8 0 12 -2.33301 12 -7z" />
    <glyph glyph-name="acute" unicode="&#xb4;" horiz-adv-x="219" 
d="M171 775c0 -19.333 -16.167 -44.333 -48.5 -75s-54.166 -46 -65.499 -46c-2.66699 0.666992 -4 1.66699 -4 3c0 2 5.66699 7.33301 17 16c13.333 11.333 23.5 22 30.5 32s14.5 29.667 22.5 59c5.33301 19.333 14.666 29 27.999 29s20 -6 20 -18z" />
    <glyph glyph-name="paragraph" unicode="&#xb6;" horiz-adv-x="588" 
d="M575 723l-14 -35h-63l-278 -688h-39l278 688h-91l-278 -688h-41l155 383c-88 0.666992 -132 33 -132 97c0 67.333 30 125.333 90 174c56.667 46 118.667 69 186 69h227z" />
    <glyph glyph-name="periodcentered" unicode="&#xb7;" horiz-adv-x="172" 
d="M135 61c0 -16.667 -6.5 -33.167 -19.5 -49.5s-27.5 -24.5 -43.5 -24.5c-18 0 -27 10.667 -27 32c0 16 6.5 32.333 19.5 49s27.5 25 43.5 25c18 0 27 -10.667 27 -32z" />
    <glyph glyph-name="periodcentered" unicode="&#x2219;" horiz-adv-x="172" 
d="M135 61c0 -16.667 -6.5 -33.167 -19.5 -49.5s-27.5 -24.5 -43.5 -24.5c-18 0 -27 10.667 -27 32c0 16 6.5 32.333 19.5 49s27.5 25 43.5 25c18 0 27 -10.667 27 -32z" />
    <glyph glyph-name="cedilla" unicode="&#xb8;" horiz-adv-x="203" 
d="M66 -164c-13.333 0 -23.332 0.998047 -29.999 2.99805c-4 0.666992 -5.66699 2.33398 -5 5.00098c0.666992 3.33301 2.66699 5 6 5c60 -4 94.667 12 104 48c0.666992 2.66699 1 5.33398 1 8.00098c0 14 -11 21 -33 21h-23l-5 10l45 64h17l-39 -57h13
c41.333 0 62 -11 62 -33c0 -23.333 -14 -42.333 -42 -57c-22.667 -11.333 -46.334 -17 -71.001 -17z" />
    <glyph glyph-name="ordmasculine" unicode="&#xba;" horiz-adv-x="285" 
d="M308 466c-9.33301 -9.33301 -20 -14.0029 -32 -14.0029c-1.33301 0 -3.33301 0.333008 -6 1c-16 -28 -35.833 -51.667 -59.5 -71s-45.834 -29 -66.501 -29c-41.333 0 -62 20.333 -62 61c0 44.667 17.667 87.334 53 128.001s75 61 119 61c7.33301 0 11 -1.66699 11 -5
c0 -5.33301 -4 -8 -12 -8c-29.333 0 -59.333 -26 -90 -78c-27.333 -48 -41 -88.333 -41 -121c0 -17.333 8 -26 24 -26c14 0 30.5 10 49.5 30s35.167 43.333 48.5 70c-17.333 12.667 -26 30.334 -26 53.001c0 20 4.66699 36 14 48c8 9.33301 16.667 14 26 14
c23.333 0 35 -15.333 35 -46c0 -21.333 -5.66699 -43.666 -17 -66.999c4 -0.666992 6.33301 -1 7 -1c6 0 12.667 3 20 9c4.66699 -0.666992 6.33398 -3.66699 5.00098 -9zM266 538.997c0 18 -3.66699 27 -11 27c-9.33301 0 -14 -15 -14 -45
c0 -19.333 3.33301 -33.333 10 -42c10 23.333 15 43.333 15 60z" />
    <glyph glyph-name="guillemotright" unicode="&#xbb;" horiz-adv-x="342" 
d="M358 228c2 -4 0.999023 -7.66699 -3.00098 -11l-135 -89c-3.33301 -2 -5.66602 -3 -6.99902 -3c-2 0.666992 -2.66699 2.66699 -2 6l9 40l3 6l83 56l-58 103l36 20zM224.999 228c2 -4 0.999023 -7.66699 -3.00098 -11l-131 -89c-3.33301 -2 -5.66602 -3 -6.99902 -3
c-2 0.666992 -2.33301 2.66699 -1 6l8 40l3 6l84 56l-59 103l32 20z" />
    <glyph glyph-name="questiondown" unicode="&#xbf;" horiz-adv-x="405" 
d="M457 599c0 -16.667 -6.5 -33.167 -19.5 -49.5s-27.5 -24.5 -43.5 -24.5c-18 0 -27 10.667 -27 32c0 16 6.5 32.333 19.5 49s27.5 25 43.5 25c18 0 27 -10.667 27 -32zM395 174c0 -50 -26.667 -94.667 -80 -134c-50 -35.333 -101.667 -53 -155 -53
c-33.333 0 -60.333 8.5 -81 25.5s-31 41.833 -31 74.5c0 36.667 13 73 39 109c27.333 38.667 71.666 84.667 132.999 138c56 48.667 98.333 96.667 127 144c3.33301 2 7 3 11 3c7.33301 0 13 -3.66699 17 -11c-9.33301 -30 -37 -68.333 -83 -115
c-65.333 -66 -103.666 -106.667 -114.999 -122c-39.333 -50 -59 -98.667 -59 -146c0 -22.667 6.83301 -40.5 20.5 -53.5s32.167 -19.5 55.5 -19.5c33.333 0 70 16 110 48c43.333 34.667 65 70 65 106c0 34.667 -15.667 52 -47 52c-24.667 0 -46.667 -9.33301 -66 -28
c-4.66699 1.33301 -7 4.66602 -7 9.99902c0 8.66699 8.5 17.334 25.5 26.001s34.833 13 53.5 13c18 0 33.667 -6.33301 47 -19s20 -28.667 20 -48z" />
    <glyph glyph-name="Agrave" unicode="&#xc0;" horiz-adv-x="1333" 
d="M1469 738l-191.004 -334.996c-25.333 -43.333 -50.666 -89 -75.999 -137c38.667 -1.33301 65.334 -2 80.001 -2c16 0 38.667 2 68 6c8.66699 -4 9.66699 -10.667 3 -20c-20.667 -10 -76.334 -15 -167.001 -15c-6 -10.667 -11.667 -21.334 -17 -32.001
c44 -24.667 66 -58.334 66 -101.001c0 -32 -11.167 -57.5 -33.5 -76.5s-47.166 -28.5 -74.499 -28.5c-24 0 -44.167 8.66699 -60.5 26s-24.5 39.666 -24.5 66.999c0 23.333 15.333 63.333 46 120c-42.667 12.667 -95.667 20.667 -159 24
c-199.333 -160 -391.333 -240 -576 -240c-84 0 -154.333 17.667 -211 53c-64.667 40 -97 96 -97 168c0 84 46 155 138 213c84.667 53.333 179.334 80 284.001 80c110.667 0 198 -22 262 -66c2 -2 3 -4 3 -6c0 -11.333 -6 -15.333 -18 -12c-47.333 38 -118.333 57 -213 57
c-100 0 -192.333 -29 -277 -87c-89.333 -60.667 -134 -131 -134 -211c0 -50.667 25.667 -92 77 -124c48 -29.333 106.333 -44 175 -44c182.667 0 366 73.333 550 220l-96 2l-416 2h-33c-6.66699 1.33301 -10 4.66602 -10 9.99902c0 6 9.16699 14.167 27.5 24.5
s34.833 15.5 49.5 15.5c10 0 73.667 -2 191 -6c131.333 -4.66699 222 -7.66699 272 -9l61 -1c17.333 14.667 32 28 44 40l428 420c10.667 9.33301 24.334 16 41.001 20c14 3.33301 21 1.33301 21 -6c0 -2 -1 -5 -3 -9zM1379 671.004l-7.99902 0.999023
c-4.66699 -5.33301 -48.334 -50.666 -131.001 -135.999l-183 -187c-26 -26 -53.667 -51.667 -83 -77l146 -4l97 153zM1191 119.003c0 22.667 -11.332 42.667 -33.999 60c-38 -75.333 -57 -121 -57 -137c0 -19.333 8.33301 -29 25 -29c15.333 0 30.166 11 44.499 33
s21.5 46.333 21.5 73zM1499 777.003c0 -1.33301 -1.33301 -2.33203 -4 -2.99902c-11.333 0 -32.666 15 -63.999 45c-33.333 31.333 -50 56.666 -50 75.999c0 12 6.66699 18 20 18s22.666 -9.66699 27.999 -29c8 -29.333 15.5 -49 22.5 -59s17.167 -20.667 30.5 -32
c11.333 -8.66699 17 -14 17 -16z" />
    <glyph glyph-name="Aacute" unicode="&#xc1;" horiz-adv-x="1333" 
d="M1469 738l-191.004 -334.996c-25.333 -43.333 -50.666 -89 -75.999 -137c38.667 -1.33301 65.334 -2 80.001 -2c16 0 38.667 2 68 6c8.66699 -4 9.66699 -10.667 3 -20c-20.667 -10 -76.334 -15 -167.001 -15c-6 -10.667 -11.667 -21.334 -17 -32.001
c44 -24.667 66 -58.334 66 -101.001c0 -32 -11.167 -57.5 -33.5 -76.5s-47.166 -28.5 -74.499 -28.5c-24 0 -44.167 8.66699 -60.5 26s-24.5 39.666 -24.5 66.999c0 23.333 15.333 63.333 46 120c-42.667 12.667 -95.667 20.667 -159 24
c-199.333 -160 -391.333 -240 -576 -240c-84 0 -154.333 17.667 -211 53c-64.667 40 -97 96 -97 168c0 84 46 155 138 213c84.667 53.333 179.334 80 284.001 80c110.667 0 198 -22 262 -66c2 -2 3 -4 3 -6c0 -11.333 -6 -15.333 -18 -12c-47.333 38 -118.333 57 -213 57
c-100 0 -192.333 -29 -277 -87c-89.333 -60.667 -134 -131 -134 -211c0 -50.667 25.667 -92 77 -124c48 -29.333 106.333 -44 175 -44c182.667 0 366 73.333 550 220l-96 2l-416 2h-33c-6.66699 1.33301 -10 4.66602 -10 9.99902c0 6 9.16699 14.167 27.5 24.5
s34.833 15.5 49.5 15.5c10 0 73.667 -2 191 -6c131.333 -4.66699 222 -7.66699 272 -9l61 -1c17.333 14.667 32 28 44 40l428 420c10.667 9.33301 24.334 16 41.001 20c14 3.33301 21 1.33301 21 -6c0 -2 -1 -5 -3 -9zM1379 671.004l-7.99902 0.999023
c-4.66699 -5.33301 -48.334 -50.666 -131.001 -135.999l-183 -187c-26 -26 -53.667 -51.667 -83 -77l146 -4l97 153zM1191 119.003c0 22.667 -11.332 42.667 -33.999 60c-38 -75.333 -57 -121 -57 -137c0 -19.333 8.33301 -29 25 -29c15.333 0 30.166 11 44.499 33
s21.5 46.333 21.5 73zM1534 904.003c0 -19.333 -16.666 -44.667 -49.999 -76c-30.667 -30 -51.667 -45 -63 -45c-2.66699 0.666992 -4 1.66699 -4 3c0 2 5.66699 7.33301 17 16c13.333 11.333 23.5 22 30.5 32s14.5 29.667 22.5 59c5.33301 19.333 14.666 29 27.999 29
c12.667 0 19 -6 19 -18z" />
    <glyph glyph-name="Acircumflex" unicode="&#xc2;" horiz-adv-x="1333" 
d="M1469 738l-191.004 -334.996c-25.333 -43.333 -50.666 -89 -75.999 -137c38.667 -1.33301 65.334 -2 80.001 -2c16 0 38.667 2 68 6c8.66699 -4 9.66699 -10.667 3 -20c-20.667 -10 -76.334 -15 -167.001 -15c-6 -10.667 -11.667 -21.334 -17 -32.001
c44 -24.667 66 -58.334 66 -101.001c0 -32 -11.167 -57.5 -33.5 -76.5s-47.166 -28.5 -74.499 -28.5c-24 0 -44.167 8.66699 -60.5 26s-24.5 39.666 -24.5 66.999c0 23.333 15.333 63.333 46 120c-42.667 12.667 -95.667 20.667 -159 24
c-199.333 -160 -391.333 -240 -576 -240c-84 0 -154.333 17.667 -211 53c-64.667 40 -97 96 -97 168c0 84 46 155 138 213c84.667 53.333 179.334 80 284.001 80c110.667 0 198 -22 262 -66c2 -2 3 -4 3 -6c0 -11.333 -6 -15.333 -18 -12c-47.333 38 -118.333 57 -213 57
c-100 0 -192.333 -29 -277 -87c-89.333 -60.667 -134 -131 -134 -211c0 -50.667 25.667 -92 77 -124c48 -29.333 106.333 -44 175 -44c182.667 0 366 73.333 550 220l-96 2l-416 2h-33c-6.66699 1.33301 -10 4.66602 -10 9.99902c0 6 9.16699 14.167 27.5 24.5
s34.833 15.5 49.5 15.5c10 0 73.667 -2 191 -6c131.333 -4.66699 222 -7.66699 272 -9l61 -1c17.333 14.667 32 28 44 40l428 420c10.667 9.33301 24.334 16 41.001 20c14 3.33301 21 1.33301 21 -6c0 -2 -1 -5 -3 -9zM1379 671.004l-7.99902 0.999023
c-4.66699 -5.33301 -48.334 -50.666 -131.001 -135.999l-183 -187c-26 -26 -53.667 -51.667 -83 -77l146 -4l97 153zM1191 119.003c0 22.667 -11.332 42.667 -33.999 60c-38 -75.333 -57 -121 -57 -137c0 -19.333 8.33301 -29 25 -29c15.333 0 30.166 11 44.499 33
s21.5 46.333 21.5 73zM1543 772.003c-0.666992 -0.666992 -1.33398 -0.999023 -2.00098 -0.999023c-6.66699 0 -17.667 13 -33 39c-14 23.333 -22.667 40 -26 50c-20 -18.667 -43.667 -38.167 -71 -58.5s-43 -30.5 -47 -30.5c-2 0 -3 0.333008 -3 1
c0 1.33301 15.667 16.666 47 45.999c35.333 33.333 62.333 64 81 92h12c2.66699 -28 10.334 -58.5 23.001 -91.5s19 -48.5 19 -46.5z" />
    <glyph glyph-name="Atilde" unicode="&#xc3;" horiz-adv-x="1333" 
d="M1469 738l-191.004 -334.996c-25.333 -43.333 -50.666 -89 -75.999 -137c38.667 -1.33301 65.334 -2 80.001 -2c16 0 38.667 2 68 6c8.66699 -4 9.66699 -10.667 3 -20c-20.667 -10 -76.334 -15 -167.001 -15c-6 -10.667 -11.667 -21.334 -17 -32.001
c44 -24.667 66 -58.334 66 -101.001c0 -32 -11.167 -57.5 -33.5 -76.5s-47.166 -28.5 -74.499 -28.5c-24 0 -44.167 8.66699 -60.5 26s-24.5 39.666 -24.5 66.999c0 23.333 15.333 63.333 46 120c-42.667 12.667 -95.667 20.667 -159 24
c-199.333 -160 -391.333 -240 -576 -240c-84 0 -154.333 17.667 -211 53c-64.667 40 -97 96 -97 168c0 84 46 155 138 213c84.667 53.333 179.334 80 284.001 80c110.667 0 198 -22 262 -66c2 -2 3 -4 3 -6c0 -11.333 -6 -15.333 -18 -12c-47.333 38 -118.333 57 -213 57
c-100 0 -192.333 -29 -277 -87c-89.333 -60.667 -134 -131 -134 -211c0 -50.667 25.667 -92 77 -124c48 -29.333 106.333 -44 175 -44c182.667 0 366 73.333 550 220l-96 2l-416 2h-33c-6.66699 1.33301 -10 4.66602 -10 9.99902c0 6 9.16699 14.167 27.5 24.5
s34.833 15.5 49.5 15.5c10 0 73.667 -2 191 -6c131.333 -4.66699 222 -7.66699 272 -9l61 -1c17.333 14.667 32 28 44 40l428 420c10.667 9.33301 24.334 16 41.001 20c14 3.33301 21 1.33301 21 -6c0 -2 -1 -5 -3 -9zM1379 671.004l-7.99902 0.999023
c-4.66699 -5.33301 -48.334 -50.666 -131.001 -135.999l-183 -187c-26 -26 -53.667 -51.667 -83 -77l146 -4l97 153zM1191 119.003c0 22.667 -11.332 42.667 -33.999 60c-38 -75.333 -57 -121 -57 -137c0 -19.333 8.33301 -29 25 -29c15.333 0 30.166 11 44.499 33
s21.5 46.333 21.5 73zM1575 850.003c-1.33301 -8.66699 -6.66699 -18.668 -16 -30.001c-13.333 -16 -30.333 -23 -51 -21c-12 1.33301 -28.833 7.5 -50.5 18.5s-38.5 17.167 -50.5 18.5c-12.667 1.33301 -23.667 -3.16699 -33 -13.5s-14.333 -15.166 -15 -14.499
c-2 0 -2.66699 1.66699 -2 5c0.666992 7.33301 6.33398 17.333 17.001 30c13.333 16.667 27.666 24 42.999 22c12 -1.33301 29.833 -8 53.5 -20s41.5 -18.333 53.5 -19c14.667 -2 26.167 2.5 34.5 13.5s12.833 16.5 13.5 16.5c2 0 3 -2 3 -6z" />
    <glyph glyph-name="Adieresis" unicode="&#xc4;" horiz-adv-x="1333" 
d="M1469 738l-191.004 -334.996c-25.333 -43.333 -50.666 -89 -75.999 -137c38.667 -1.33301 65.334 -2 80.001 -2c16 0 38.667 2 68 6c8.66699 -4 9.66699 -10.667 3 -20c-20.667 -10 -76.334 -15 -167.001 -15c-6 -10.667 -11.667 -21.334 -17 -32.001
c44 -24.667 66 -58.334 66 -101.001c0 -32 -11.167 -57.5 -33.5 -76.5s-47.166 -28.5 -74.499 -28.5c-24 0 -44.167 8.66699 -60.5 26s-24.5 39.666 -24.5 66.999c0 23.333 15.333 63.333 46 120c-42.667 12.667 -95.667 20.667 -159 24
c-199.333 -160 -391.333 -240 -576 -240c-84 0 -154.333 17.667 -211 53c-64.667 40 -97 96 -97 168c0 84 46 155 138 213c84.667 53.333 179.334 80 284.001 80c110.667 0 198 -22 262 -66c2 -2 3 -4 3 -6c0 -11.333 -6 -15.333 -18 -12c-47.333 38 -118.333 57 -213 57
c-100 0 -192.333 -29 -277 -87c-89.333 -60.667 -134 -131 -134 -211c0 -50.667 25.667 -92 77 -124c48 -29.333 106.333 -44 175 -44c182.667 0 366 73.333 550 220l-96 2l-416 2h-33c-6.66699 1.33301 -10 4.66602 -10 9.99902c0 6 9.16699 14.167 27.5 24.5
s34.833 15.5 49.5 15.5c10 0 73.667 -2 191 -6c131.333 -4.66699 222 -7.66699 272 -9l61 -1c17.333 14.667 32 28 44 40l428 420c10.667 9.33301 24.334 16 41.001 20c14 3.33301 21 1.33301 21 -6c0 -2 -1 -5 -3 -9zM1379 671.004l-7.99902 0.999023
c-4.66699 -5.33301 -48.334 -50.666 -131.001 -135.999l-183 -187c-26 -26 -53.667 -51.667 -83 -77l146 -4l97 153zM1191 119.003c0 22.667 -11.332 42.667 -33.999 60c-38 -75.333 -57 -121 -57 -137c0 -19.333 8.33301 -29 25 -29c15.333 0 30.166 11 44.499 33
s21.5 46.333 21.5 73zM1549 837.003c0 -24.667 -11 -37 -33 -37c-14 0 -21 8 -21 24c0 22.667 10 34 30 34c16 0 24 -7 24 -21zM1447 837.003c0 -24.667 -11 -37 -33 -37c-14.667 0 -22 8 -22 24c0 22.667 10 34 30 34c16.667 0 25 -7 25 -21z" />
    <glyph glyph-name="Aring" unicode="&#xc5;" horiz-adv-x="1333" 
d="M1469 738l-191.004 -334.996c-25.333 -43.333 -50.666 -89 -75.999 -137c38.667 -1.33301 65.334 -2 80.001 -2c16 0 38.667 2 68 6c8.66699 -4 9.66699 -10.667 3 -20c-20.667 -10 -76.334 -15 -167.001 -15c-6 -10.667 -11.667 -21.334 -17 -32.001
c44 -24.667 66 -58.334 66 -101.001c0 -32 -11.167 -57.5 -33.5 -76.5s-47.166 -28.5 -74.499 -28.5c-24 0 -44.167 8.66699 -60.5 26s-24.5 39.666 -24.5 66.999c0 23.333 15.333 63.333 46 120c-42.667 12.667 -95.667 20.667 -159 24
c-199.333 -160 -391.333 -240 -576 -240c-84 0 -154.333 17.667 -211 53c-64.667 40 -97 96 -97 168c0 84 46 155 138 213c84.667 53.333 179.334 80 284.001 80c110.667 0 198 -22 262 -66c2 -2 3 -4 3 -6c0 -11.333 -6 -15.333 -18 -12c-47.333 38 -118.333 57 -213 57
c-100 0 -192.333 -29 -277 -87c-89.333 -60.667 -134 -131 -134 -211c0 -50.667 25.667 -92 77 -124c48 -29.333 106.333 -44 175 -44c182.667 0 366 73.333 550 220l-96 2l-416 2h-33c-6.66699 1.33301 -10 4.66602 -10 9.99902c0 6 9.16699 14.167 27.5 24.5
s34.833 15.5 49.5 15.5c10 0 73.667 -2 191 -6c131.333 -4.66699 222 -7.66699 272 -9l61 -1c17.333 14.667 32 28 44 40l428 420c10.667 9.33301 24.334 16 41.001 20c14 3.33301 21 1.33301 21 -6c0 -2 -1 -5 -3 -9zM1379 671.004l-7.99902 0.999023
c-4.66699 -5.33301 -48.334 -50.666 -131.001 -135.999l-183 -187c-26 -26 -53.667 -51.667 -83 -77l146 -4l97 153zM1191 119.003c0 22.667 -11.332 42.667 -33.999 60c-38 -75.333 -57 -121 -57 -137c0 -19.333 8.33301 -29 25 -29c15.333 0 30.166 11 44.499 33
s21.5 46.333 21.5 73zM1578 875.003c0 -23.333 -9.50098 -44.333 -28.501 -63s-40.5 -28 -64.5 -28c-17.333 0 -31.666 5.5 -42.999 16.5s-17 25.167 -17 42.5c0 24 9.33301 45.167 28 63.5s40 27.5 64 27.5c17.333 0 31.833 -5.5 43.5 -16.5s17.5 -25.167 17.5 -42.5z
M1550 869.003c0 25.333 -13 38 -39 38c-15.333 0 -29.166 -5.83301 -41.499 -17.5s-18.5 -25.167 -18.5 -40.5c0 -25.333 13 -38 39 -38c15.333 0 29.166 6 41.499 18s18.5 25.333 18.5 40z" />
    <glyph glyph-name="AE" unicode="&#xc6;" horiz-adv-x="1733" 
d="M1856 695c0 -49.333 -40.334 -89.6641 -121.001 -120.997c-71.333 -28 -160 -44.333 -266 -49c-5.33301 -14 -8 -27 -8 -39c0 -15.333 4.66699 -27.333 14 -36c41.333 6 81.666 9 120.999 9c41.333 0 75 -2.83301 101 -8.5s39 -12.5 39 -20.5
c0 -8.66699 -12.667 -16.334 -38 -23.001s-54 -10 -86 -10c-52.667 0 -98.667 10 -138 30c-94 -22 -173 -62.833 -237 -122.5s-96 -120.5 -96 -182.5c0 -65.333 47.333 -98 142 -98c177.333 0 328 60.667 452 182c9.33301 0 12.666 -4.66699 9.99902 -14
c-44 -59.333 -113 -107.333 -207 -144c-85.333 -33.333 -169 -50 -251 -50c-76 0 -133.667 16 -173 48c-34.667 29.333 -52 69 -52 119c0 22.667 4.33301 44.334 13 65.001c-22.667 3.33301 -53.667 4.66602 -93 3.99902c-48 -0.666992 -74 -0.666992 -78 0
c-199.333 -160 -391.333 -240 -576 -240c-84 0 -154.333 17.667 -211 53c-64.667 40 -97 96 -97 168c0 84 46 155 138 213c84.667 53.333 179.334 80 284.001 80c110.667 0 198 -22 262 -66c2 -2 3 -4 3 -6c0 -11.333 -6 -15.333 -18 -12c-47.333 38 -118.333 57 -213 57
c-100 0 -192.333 -29 -277 -87c-89.333 -60.667 -134 -131 -134 -211c0 -50.667 25.667 -92 77 -124c48 -29.333 106.333 -44 175 -44c182.667 0 366 73.333 550 220l-96 2l-416 2h-33c-6.66699 1.33301 -10 4.66602 -10 9.99902c0 6 9.16699 14.167 27.5 24.5
s34.833 15.5 49.5 15.5c10.667 0 74.334 -2 191.001 -6c133.333 -4.66699 224 -7.66699 272 -9l61 -1c17.333 14.667 32 28 44 40l428 420c10.667 9.33301 24.334 16 41.001 20c14 3.33301 21 1.33301 21 -6c0 -2 -1 -5 -3 -9l-191 -335l-13 -22
c60.667 29.333 129.667 50.666 207 63.999c-26 21.333 -39 52 -39 92c0 52 38 101 114 147c74 46 150.667 69 230 69c69.333 0 104 -19.333 104 -58zM1817 703.002c0 20.667 -16.667 31 -50 31c-52.667 0 -109 -20 -169 -60c-56 -38.667 -96.333 -81.667 -121 -129
c78 4 154.167 23 228.5 57s111.5 67.667 111.5 101zM1354 671.002l-7.99902 0.999023c-4.66699 -5.33301 -48.334 -50.666 -131.001 -135.999l-183 -187c-26 -26 -53.667 -51.667 -83 -77l146 -4l97 153z" />
    <glyph glyph-name="Ccedilla" unicode="&#xc7;" horiz-adv-x="976" 
d="M1153 665c0 -68.667 -54.665 -138.668 -163.998 -210.001c-86 -56.667 -197.667 -109.334 -335 -158.001c-113.333 -40 -205.666 -65.333 -276.999 -76c-16.667 -38.667 -25 -72.667 -25 -102c0 -30.667 12.667 -54.667 38 -72s57.666 -26 96.999 -26
c78.667 0 162.334 17.667 251.001 53c77.333 30.667 146.666 69.667 207.999 117c12.667 0 17.667 -4.33301 15 -13c-49.333 -45.333 -115.666 -85.666 -198.999 -120.999c-95.333 -41.333 -184.333 -62 -267 -62c-4.66699 0 -9 0.333008 -13 1l-37 -53h14
c40.667 0 61 -11 61 -33c0 -23.333 -13.667 -42.333 -41 -57c-22.667 -11.333 -46.667 -17 -72 -17c-12.667 0 -22.667 1 -30 3c-4 0.666992 -5.66699 2.33398 -5 5.00098c1.33301 3.33301 3.66602 5 6.99902 5c60 -4 94.667 12 104 48
c0.666992 2.66699 1 5.33398 1 8.00098c0 14 -11 21 -33 21h-23l-6 10l43 60c-112.667 8 -169 67.667 -169 179c0 11.333 1.33301 24 4 38c-17.333 -1.33301 -32.333 -2 -45 -2c-51.333 0 -99.333 8.33301 -144 25c-38 14 -62.667 29.333 -74 46
c-2 5.33301 -1.33301 9.16602 2 11.499s8.33301 3.5 15 3.5c50 -40 118.333 -60 205 -60c13.333 0 29 0.666992 47 2c21.333 79.333 75.666 160 162.999 242c81.333 77.333 174.666 141.333 279.999 192c108 52 203.333 78 286 78c38 0 67.667 -8.33301 89 -25
c19.333 -14.667 29 -35 29 -61zM1121 680.999c0 32.667 -22.668 49 -68.001 49c-117.333 0 -244.666 -53 -381.999 -159c-126 -97.333 -219 -203.333 -279 -318c60 12 144 39.667 252 83c130 52 236.333 105 319 159c105.333 68.667 158 130.667 158 186z" />
    <glyph glyph-name="Egrave" unicode="&#xc8;" horiz-adv-x="709" 
d="M835 695c0 -49.333 -40.332 -89.665 -120.999 -120.998c-71.333 -28 -160 -44.333 -266 -49c-5.33301 -14 -8 -27 -8 -39c0 -15.333 4.66699 -27.333 14 -36c41.333 6 81.666 9 120.999 9c41.333 0 75 -2.83301 101 -8.5s39 -12.5 39 -20.5
c0 -8.66699 -12.667 -16.334 -38 -23.001s-54 -10 -86 -10c-52.667 0 -98.667 10 -138 30c-94 -22 -173 -62.833 -237 -122.5s-96 -120.5 -96 -182.5c0 -65.333 47.333 -98 142 -98c177.333 0 328 60.667 452 182c9.33301 0 12.666 -4.66699 9.99902 -14
c-44 -59.333 -113 -107.333 -207 -144c-85.333 -33.333 -169 -50 -251 -50c-76 0 -133.667 16 -173 48c-34.667 29.333 -52 69 -52 119c0 68.667 39.667 129.334 119 182.001c70.667 46.667 159.334 79.334 266.001 98.001c-26 21.333 -39.333 47.666 -40 78.999
c-53.333 2 -110.666 14.333 -171.999 37c-54 19.333 -88.333 37.666 -103 54.999c-1.33301 3.33301 -0.666016 6.5 2.00098 9.5s5.66699 4.5 9 4.5c12.667 -12 40.667 -26.333 84 -43c58.667 -23.333 119 -37 181 -41c9.33301 51.333 49.666 98.666 120.999 141.999
s145.666 65 222.999 65c69.333 0 104 -19.333 104 -58zM796.001 703.001c0 20.667 -16.667 31 -50 31c-52.667 0 -109 -20 -169 -60c-56 -38.667 -96.333 -81.667 -121 -129c78 4 154.167 23 228.5 57s111.5 67.667 111.5 101zM786.001 779.001
c0 -1.33301 -1.33301 -2.33203 -4 -2.99902c-11.333 0 -32.666 15 -63.999 45c-33.333 31.333 -50 56.666 -50 75.999c0 12 6.66699 18 20 18s22.666 -9.66699 27.999 -29c8 -29.333 15.5 -49 22.5 -59s17.167 -20.667 30.5 -32c11.333 -8.66699 17 -14 17 -16z" />
    <glyph glyph-name="Eacute" unicode="&#xc9;" horiz-adv-x="709" 
d="M835 695c0 -49.333 -40.332 -89.665 -120.999 -120.998c-71.333 -28 -160 -44.333 -266 -49c-5.33301 -14 -8 -27 -8 -39c0 -15.333 4.66699 -27.333 14 -36c41.333 6 81.666 9 120.999 9c41.333 0 75 -2.83301 101 -8.5s39 -12.5 39 -20.5
c0 -8.66699 -12.667 -16.334 -38 -23.001s-54 -10 -86 -10c-52.667 0 -98.667 10 -138 30c-94 -22 -173 -62.833 -237 -122.5s-96 -120.5 -96 -182.5c0 -65.333 47.333 -98 142 -98c177.333 0 328 60.667 452 182c9.33301 0 12.666 -4.66699 9.99902 -14
c-44 -59.333 -113 -107.333 -207 -144c-85.333 -33.333 -169 -50 -251 -50c-76 0 -133.667 16 -173 48c-34.667 29.333 -52 69 -52 119c0 68.667 39.667 129.334 119 182.001c70.667 46.667 159.334 79.334 266.001 98.001c-26 21.333 -39.333 47.666 -40 78.999
c-53.333 2 -110.666 14.333 -171.999 37c-54 19.333 -88.333 37.666 -103 54.999c-1.33301 3.33301 -0.666016 6.5 2.00098 9.5s5.66699 4.5 9 4.5c12.667 -12 40.667 -26.333 84 -43c58.667 -23.333 119 -37 181 -41c9.33301 51.333 49.666 98.666 120.999 141.999
s145.666 65 222.999 65c69.333 0 104 -19.333 104 -58zM796.001 703.001c0 20.667 -16.667 31 -50 31c-52.667 0 -109 -20 -169 -60c-56 -38.667 -96.333 -81.667 -121 -129c78 4 154.167 23 228.5 57s111.5 67.667 111.5 101zM819.001 904.001
c0 -19.333 -16.167 -44.333 -48.5 -75s-54.166 -46 -65.499 -46c-2.66699 0.666992 -4 1.66699 -4 3c0 2 5.66699 7.33301 17 16c13.333 11.333 23.5 22 30.5 32s14.5 29.667 22.5 59c5.33301 19.333 14.666 29 27.999 29s20 -6 20 -18z" />
    <glyph glyph-name="Ecircumflex" unicode="&#xca;" horiz-adv-x="709" 
d="M835 695c0 -49.333 -40.332 -89.665 -120.999 -120.998c-71.333 -28 -160 -44.333 -266 -49c-5.33301 -14 -8 -27 -8 -39c0 -15.333 4.66699 -27.333 14 -36c41.333 6 81.666 9 120.999 9c41.333 0 75 -2.83301 101 -8.5s39 -12.5 39 -20.5
c0 -8.66699 -12.667 -16.334 -38 -23.001s-54 -10 -86 -10c-52.667 0 -98.667 10 -138 30c-94 -22 -173 -62.833 -237 -122.5s-96 -120.5 -96 -182.5c0 -65.333 47.333 -98 142 -98c177.333 0 328 60.667 452 182c9.33301 0 12.666 -4.66699 9.99902 -14
c-44 -59.333 -113 -107.333 -207 -144c-85.333 -33.333 -169 -50 -251 -50c-76 0 -133.667 16 -173 48c-34.667 29.333 -52 69 -52 119c0 68.667 39.667 129.334 119 182.001c70.667 46.667 159.334 79.334 266.001 98.001c-26 21.333 -39.333 47.666 -40 78.999
c-53.333 2 -110.666 14.333 -171.999 37c-54 19.333 -88.333 37.666 -103 54.999c-1.33301 3.33301 -0.666016 6.5 2.00098 9.5s5.66699 4.5 9 4.5c12.667 -12 40.667 -26.333 84 -43c58.667 -23.333 119 -37 181 -41c9.33301 51.333 49.666 98.666 120.999 141.999
s145.666 65 222.999 65c69.333 0 104 -19.333 104 -58zM796.001 703.001c0 20.667 -16.667 31 -50 31c-52.667 0 -109 -20 -169 -60c-56 -38.667 -96.333 -81.667 -121 -129c78 4 154.167 23 228.5 57s111.5 67.667 111.5 101zM838.001 774.001
c-0.666992 -0.666992 -1.33398 -0.999023 -2.00098 -0.999023c-6.66699 0 -17.667 13 -33 39c-14 23.333 -22.667 40 -26 50c-20 -18.667 -43.667 -38.167 -71 -58.5s-43 -30.5 -47 -30.5c-2 0 -3 0.333008 -3 1c0 1.33301 15.667 16.666 47 45.999
c35.333 33.333 62.333 64 81 92h12c2.66699 -28 10.334 -58.5 23.001 -91.5s19 -48.5 19 -46.5z" />
    <glyph glyph-name="Edieresis" unicode="&#xcb;" horiz-adv-x="709" 
d="M835 695c0 -49.333 -40.332 -89.665 -120.999 -120.998c-71.333 -28 -160 -44.333 -266 -49c-5.33301 -14 -8 -27 -8 -39c0 -15.333 4.66699 -27.333 14 -36c41.333 6 81.666 9 120.999 9c41.333 0 75 -2.83301 101 -8.5s39 -12.5 39 -20.5
c0 -8.66699 -12.667 -16.334 -38 -23.001s-54 -10 -86 -10c-52.667 0 -98.667 10 -138 30c-94 -22 -173 -62.833 -237 -122.5s-96 -120.5 -96 -182.5c0 -65.333 47.333 -98 142 -98c177.333 0 328 60.667 452 182c9.33301 0 12.666 -4.66699 9.99902 -14
c-44 -59.333 -113 -107.333 -207 -144c-85.333 -33.333 -169 -50 -251 -50c-76 0 -133.667 16 -173 48c-34.667 29.333 -52 69 -52 119c0 68.667 39.667 129.334 119 182.001c70.667 46.667 159.334 79.334 266.001 98.001c-26 21.333 -39.333 47.666 -40 78.999
c-53.333 2 -110.666 14.333 -171.999 37c-54 19.333 -88.333 37.666 -103 54.999c-1.33301 3.33301 -0.666016 6.5 2.00098 9.5s5.66699 4.5 9 4.5c12.667 -12 40.667 -26.333 84 -43c58.667 -23.333 119 -37 181 -41c9.33301 51.333 49.666 98.666 120.999 141.999
s145.666 65 222.999 65c69.333 0 104 -19.333 104 -58zM796.001 703.001c0 20.667 -16.667 31 -50 31c-52.667 0 -109 -20 -169 -60c-56 -38.667 -96.333 -81.667 -121 -129c78 4 154.167 23 228.5 57s111.5 67.667 111.5 101zM822.001 837.001
c0 -24.667 -11.333 -37 -34 -37c-14 0 -21 8 -21 24c0 22.667 10 34 30 34c16.667 0 25 -7 25 -21zM719.001 837.001c0 -24.667 -11 -37 -33 -37c-14 0 -21 8 -21 24c0 22.667 10 34 30 34c16 0 24 -7 24 -21z" />
    <glyph glyph-name="Igrave" unicode="&#xcc;" horiz-adv-x="836" 
d="M1038 697c-6.66699 -4.66699 -16 -10.333 -28 -17c4 -0.666992 6.66699 -2 8 -4c1.33301 -2.66699 0 -5.66699 -4 -9c-36 -32.667 -62.667 -65.334 -80 -98.001c-1.33301 -2.66699 -20 -53.667 -56 -153c-29.333 -81.333 -62.666 -146.333 -99.999 -195
c-50 -65.333 -119.333 -118.833 -208 -160.5s-176.334 -62.5 -263.001 -62.5c-82.667 0 -146.334 16.333 -191.001 49c-40.667 30.667 -61 72.334 -61 125.001c0 76 51.333 138.667 154 188c83.333 40 164 60 242 60c84.667 0 147.334 -11 188.001 -33
c2 -3.33301 1.5 -6.33301 -1.5 -9s-7.16699 -3.66699 -12.5 -3c-26 16 -70.667 24 -134 24c-84 0 -169 -25 -255 -75c-92.667 -53.333 -139 -112.333 -139 -177c0 -43.333 20 -76.333 60 -99c36 -20 85.333 -30 148 -30c81.333 0 161.666 22.667 240.999 68
c76.667 44 135 98.667 175 164c18 30 47 88.333 87 175c32.667 72 60 121 82 147c32.667 40 66 72.667 100 98c-46 -22 -88.667 -33 -128 -33c-44 0 -113.333 14.5 -208 43.5s-169 43.5 -223 43.5c-84 0 -160 -24.667 -228 -74c-62.667 -45.333 -94 -91 -94 -137
c0 -17.333 1.66699 -30 5 -38c-3.33301 -6.66699 -9 -5.66699 -17 3c-6.66699 11.333 -10 24.333 -10 39c0 65.333 33.667 119.666 101 162.999c74 47.333 173 71 297 71c68 0 154.333 -11.167 259 -33.5s164.667 -33.5 180 -33.5c40.667 0 74.334 8.33301 101.001 25
c5.33301 0.666992 9.33301 -0.166016 12 -2.49902s3 -5.5 1 -9.5zM853 772.001c0 -1.33301 -1.33301 -2.33203 -4 -2.99902c-11.333 0 -32.666 15 -63.999 45c-33.333 31.333 -50 56.666 -50 75.999c0 12 6.66699 18 20 18s22.666 -9.66699 27.999 -29
c8 -29.333 15.5 -49 22.5 -59s17.167 -20.667 30.5 -32c11.333 -8.66699 17 -14 17 -16z" />
    <glyph glyph-name="Iacute" unicode="&#xcd;" horiz-adv-x="836" 
d="M1038 697c-6.66699 -4.66699 -16 -10.333 -28 -17c4 -0.666992 6.66699 -2 8 -4c1.33301 -2.66699 0 -5.66699 -4 -9c-36 -32.667 -62.667 -65.334 -80 -98.001c-1.33301 -2.66699 -20 -53.667 -56 -153c-29.333 -81.333 -62.666 -146.333 -99.999 -195
c-50 -65.333 -119.333 -118.833 -208 -160.5s-176.334 -62.5 -263.001 -62.5c-82.667 0 -146.334 16.333 -191.001 49c-40.667 30.667 -61 72.334 -61 125.001c0 76 51.333 138.667 154 188c83.333 40 164 60 242 60c84.667 0 147.334 -11 188.001 -33
c2 -3.33301 1.5 -6.33301 -1.5 -9s-7.16699 -3.66699 -12.5 -3c-26 16 -70.667 24 -134 24c-84 0 -169 -25 -255 -75c-92.667 -53.333 -139 -112.333 -139 -177c0 -43.333 20 -76.333 60 -99c36 -20 85.333 -30 148 -30c81.333 0 161.666 22.667 240.999 68
c76.667 44 135 98.667 175 164c18 30 47 88.333 87 175c32.667 72 60 121 82 147c32.667 40 66 72.667 100 98c-46 -22 -88.667 -33 -128 -33c-44 0 -113.333 14.5 -208 43.5s-169 43.5 -223 43.5c-84 0 -160 -24.667 -228 -74c-62.667 -45.333 -94 -91 -94 -137
c0 -17.333 1.66699 -30 5 -38c-3.33301 -6.66699 -9 -5.66699 -17 3c-6.66699 11.333 -10 24.333 -10 39c0 65.333 33.667 119.666 101 162.999c74 47.333 173 71 297 71c68 0 154.333 -11.167 259 -33.5s164.667 -33.5 180 -33.5c40.667 0 74.334 8.33301 101.001 25
c5.33301 0.666992 9.33301 -0.166016 12 -2.49902s3 -5.5 1 -9.5zM856 896.001c0 -19.333 -14.499 -44.332 -43.499 -74.999s-49.167 -46 -60.5 -46c-2.66699 0 -5.66699 0.166992 -9 0.5s-5 1.16602 -5 2.49902c0 2 5.66699 7.33301 17 16c13.333 11.333 23.5 22 30.5 32
s14.5 29.667 22.5 59c5.33301 19.333 14.666 29 27.999 29s20 -6 20 -18z" />
    <glyph glyph-name="Icircumflex" unicode="&#xce;" horiz-adv-x="836" 
d="M1038 697c-6.66699 -4.66699 -16 -10.333 -28 -17c4 -0.666992 6.66699 -2 8 -4c1.33301 -2.66699 0 -5.66699 -4 -9c-36 -32.667 -62.667 -65.334 -80 -98.001c-1.33301 -2.66699 -20 -53.667 -56 -153c-29.333 -81.333 -62.666 -146.333 -99.999 -195
c-50 -65.333 -119.333 -118.833 -208 -160.5s-176.334 -62.5 -263.001 -62.5c-82.667 0 -146.334 16.333 -191.001 49c-40.667 30.667 -61 72.334 -61 125.001c0 76 51.333 138.667 154 188c83.333 40 164 60 242 60c84.667 0 147.334 -11 188.001 -33
c2 -3.33301 1.5 -6.33301 -1.5 -9s-7.16699 -3.66699 -12.5 -3c-26 16 -70.667 24 -134 24c-84 0 -169 -25 -255 -75c-92.667 -53.333 -139 -112.333 -139 -177c0 -43.333 20 -76.333 60 -99c36 -20 85.333 -30 148 -30c81.333 0 161.666 22.667 240.999 68
c76.667 44 135 98.667 175 164c18 30 47 88.333 87 175c32.667 72 60 121 82 147c32.667 40 66 72.667 100 98c-46 -22 -88.667 -33 -128 -33c-44 0 -113.333 14.5 -208 43.5s-169 43.5 -223 43.5c-84 0 -160 -24.667 -228 -74c-62.667 -45.333 -94 -91 -94 -137
c0 -17.333 1.66699 -30 5 -38c-3.33301 -6.66699 -9 -5.66699 -17 3c-6.66699 11.333 -10 24.333 -10 39c0 65.333 33.667 119.666 101 162.999c74 47.333 173 71 297 71c68 0 154.333 -11.167 259 -33.5s164.667 -33.5 180 -33.5c40.667 0 74.334 8.33301 101.001 25
c5.33301 0.666992 9.33301 -0.166016 12 -2.49902s3 -5.5 1 -9.5zM921 778.001c-0.666992 -0.666992 -1.33398 -0.999023 -2.00098 -0.999023c-6.66699 0 -17.667 13 -33 39c-14 23.333 -22.667 40 -26 50c-20 -18.667 -43.667 -38.167 -71 -58.5s-43 -30.5 -47 -30.5
c-2 0 -3 0.333008 -3 1c0 1.33301 15.667 16.666 47 45.999c35.333 33.333 62.333 64 81 92h12c2.66699 -28 10.334 -58.5 23.001 -91.5s19 -48.5 19 -46.5z" />
    <glyph glyph-name="Idieresis" unicode="&#xcf;" horiz-adv-x="836" 
d="M1038 697c-6.66699 -4.66699 -16 -10.333 -28 -17c4 -0.666992 6.66699 -2 8 -4c1.33301 -2.66699 0 -5.66699 -4 -9c-36 -32.667 -62.667 -65.334 -80 -98.001c-1.33301 -2.66699 -20 -53.667 -56 -153c-29.333 -81.333 -62.666 -146.333 -99.999 -195
c-50 -65.333 -119.333 -118.833 -208 -160.5s-176.334 -62.5 -263.001 -62.5c-82.667 0 -146.334 16.333 -191.001 49c-40.667 30.667 -61 72.334 -61 125.001c0 76 51.333 138.667 154 188c83.333 40 164 60 242 60c84.667 0 147.334 -11 188.001 -33
c2 -3.33301 1.5 -6.33301 -1.5 -9s-7.16699 -3.66699 -12.5 -3c-26 16 -70.667 24 -134 24c-84 0 -169 -25 -255 -75c-92.667 -53.333 -139 -112.333 -139 -177c0 -43.333 20 -76.333 60 -99c36 -20 85.333 -30 148 -30c81.333 0 161.666 22.667 240.999 68
c76.667 44 135 98.667 175 164c18 30 47 88.333 87 175c32.667 72 60 121 82 147c32.667 40 66 72.667 100 98c-46 -22 -88.667 -33 -128 -33c-44 0 -113.333 14.5 -208 43.5s-169 43.5 -223 43.5c-84 0 -160 -24.667 -228 -74c-62.667 -45.333 -94 -91 -94 -137
c0 -17.333 1.66699 -30 5 -38c-3.33301 -6.66699 -9 -5.66699 -17 3c-6.66699 11.333 -10 24.333 -10 39c0 65.333 33.667 119.666 101 162.999c74 47.333 173 71 297 71c68 0 154.333 -11.167 259 -33.5s164.667 -33.5 180 -33.5c40.667 0 74.334 8.33301 101.001 25
c5.33301 0.666992 9.33301 -0.166016 12 -2.49902s3 -5.5 1 -9.5zM838 837.001c0 -24.667 -11 -37 -33 -37c-14 0 -21 8 -21 24c0 22.667 10 34 30 34c16 0 24 -7 24 -21zM736 837.001c0 -24.667 -11 -37 -33 -37c-14.667 0 -22 8 -22 24c0 22.667 10 34 30 34
c16.667 0 25 -7 25 -21z" />
    <glyph glyph-name="Eth" unicode="&#xd0;" horiz-adv-x="1234" 
d="M1255 410c0 -118.667 -55.332 -217.326 -165.999 -295.993c-108 -76.667 -241 -115 -399 -115c-59.333 0 -138.833 9.83301 -238.5 29.5s-191.167 29.5 -274.5 29.5c-48.667 0 -93 -16 -133 -48c-4.66699 -2 -8.33398 -1.33301 -11.001 2s-3 7.66602 -1 12.999
c12.667 15.333 35.334 31.666 68.001 48.999c46.667 24.667 95 37 145 37c60 0 153.5 -12.833 280.5 -38.5s217.167 -38.5 270.5 -38.5c93.333 0 178.666 31.667 255.999 95c86 71.333 129 160 129 266c0 75.333 -32.667 139.666 -98 192.999
c-20.667 -26.667 -70.667 -108.667 -150 -246h123l-23 -39h-123c-23.333 -39.333 -44.333 -72.333 -63 -99c-16 -23.333 -38 -48 -66 -74c-31.333 -30 -58 -49.333 -80 -58c-8.66699 -3.33301 -13 -1.66602 -13 5.00098c0 4 2.66699 7.66699 8 11
c30.667 18 60.334 49.667 89.001 95c18.667 30.667 41 70.667 67 120h-147l23 39h144c64.667 123.333 125.334 212.666 182.001 267.999c-100.667 68 -236.334 102 -407.001 102c-138.667 0 -259.667 -32 -363 -96c-96.667 -60 -145 -124.667 -145 -194
s39 -124.333 117 -165c75.333 -40 173.333 -60 294 -60c34 0 70.333 5 109 15c35.333 9.33301 59.333 18.666 72 27.999c10.667 3.33301 16 0.666016 16 -8.00098c0 -2.66699 -0.666992 -5 -2 -7c-20.667 -16 -52 -32.333 -94 -49c-52 -21.333 -97.333 -32 -136 -32
c-116.667 0 -212.334 24.667 -287.001 74c-77.333 50.667 -116 117.667 -116 201s60.333 159.666 181 228.999c118.667 68.667 246.667 103 384 103c176.667 0 319.667 -33.333 429 -100c38.667 26.667 70 41.667 94 45c2.66699 -1.33301 4 -3.33301 4 -6
c0 -3.33301 -1.66699 -6 -5 -8c-23.333 -12.667 -46.333 -28.334 -69 -47.001c83.333 -58.667 125 -133.667 125 -225z" />
    <glyph glyph-name="Ntilde" unicode="&#xd1;" horiz-adv-x="1242" 
d="M1452 672c0 -75.333 -59.999 -187.669 -179.999 -337.002c-54.667 -66.667 -118 -135.667 -190 -207c-60 -58.667 -106.667 -100.334 -140 -125.001c-4 -3.33301 -8 -5 -12 -5c-5.33301 0 -8 3 -8 9c0 4 1.66699 8.33301 5 13c32.667 46 63.334 100.333 92.001 163
c26.667 66.667 68 164.334 124 293.001c28.667 61.333 49.334 103.333 62.001 126l-5 3c-11.333 -19.333 -48.333 -66 -111 -140c-80 -93.333 -151.333 -166 -214 -218c-198.667 -166.667 -388.667 -250 -570 -250c-76 0 -138 17.667 -186 53
c-50.667 36.667 -76 86.667 -76 150c0 82.667 45 152 135 208s202.667 84 338 84c115.333 0 212.333 -20.667 291 -62c1.33301 -2.66699 0.666016 -6 -2.00098 -10s-5.66699 -6 -9 -6c-81.333 37.333 -168.333 56 -261 56c-112 0 -214.667 -30 -308 -90
c-95.333 -61.333 -143 -130.333 -143 -207c0 -48.667 21.667 -87.334 65 -116.001c39.333 -26.667 86.666 -40 141.999 -40c91.333 0 192.166 25.5 302.499 76.5s211.166 119.5 302.499 205.5c82 76.667 168.667 171.334 260 284.001l120 154c10 10 21 15 33 15
c6.66699 0 10 -3.66699 10 -11c0 -1.33301 -4.33301 -8.66602 -13 -21.999c-11.333 -16.667 -20.333 -32.667 -27 -48c-25.333 -78.667 -65.666 -189 -120.999 -331c-44 -93.333 -83.333 -164.666 -118 -213.999h5c12.667 7.33301 42.334 35.666 89.001 84.999
c56 60.667 103.333 119.667 142 177c94 138.667 141 242.667 141 312c0 12 -1.33301 22 -4 30c1.33301 8.66699 6.66602 12.334 15.999 11.001c15.333 -17.333 23 -40.333 23 -69zM1488 852.997c-0.666992 -8.66699 -5.66699 -18.668 -15 -30.001
c-14 -16 -31.333 -23 -52 -21c-12 1.33301 -28.833 7.5 -50.5 18.5s-38.5 17.167 -50.5 18.5c-12.667 1.33301 -23.5 -3.16699 -32.5 -13.5s-13.833 -15.166 -14.5 -14.499c-2 0 -3 1.66699 -3 5c0.666992 7.33301 6.33398 17.333 17.001 30
c13.333 16.667 27.666 24 42.999 22c12.667 -1.33301 30.834 -8 54.501 -20s41.167 -18.333 52.5 -19c15.333 -2 27.166 2.5 35.499 13.5l12.5 16.5c2.66699 0 3.66699 -2 3 -6z" />
    <glyph glyph-name="Ograve" unicode="&#xd2;" horiz-adv-x="870" 
d="M952 561c0 -98 -36.665 -192.332 -109.998 -282.999c-66 -83.333 -151.167 -151.166 -255.5 -203.499s-203.833 -78.5 -298.5 -78.5c-17.333 0 -34.333 1.33301 -51 4c8 -22.667 21.333 -44.334 40 -65.001c0.666992 -4 -1.33301 -7.5 -6 -10.5
s-9.33398 -3.5 -14.001 -1.5c-22.667 21.333 -38.334 48.666 -47.001 81.999c-102 24 -153 89.667 -153 197c0 95.333 37.667 187.666 113 276.999c67.333 80 154.333 146 261 198c104 50 202 75 294 75c60.667 0 108 -7 142 -21c2 -3.33301 2 -6.66602 0 -9.99902
c-2.66699 -3.33301 -6 -5.33301 -10 -6c-29.333 10.667 -73.333 16 -132 16c-82 0 -172.333 -29.667 -271 -89c-96 -58 -176.333 -129.667 -241 -215c-69.333 -92 -104 -180 -104 -264c0 -70 32 -115.333 96 -136c-4 21.333 -6 45 -6 71c0 93.333 27.167 188 81.5 284
s123.833 174.333 208.5 235c90.667 64.667 182.667 97 276 97c60 0 107 -15.667 141 -47c30.667 -28 46 -63.333 46 -106zM914.002 574.001c0 38 -13.999 67.332 -41.999 87.999s-63.667 31 -107 31c-82 0 -167 -35 -255 -105c-80 -64 -147.5 -144.667 -202.5 -242
s-82.5 -186.333 -82.5 -267c0 -20.667 2 -40 6 -58c11.333 -2 22 -3 32 -3c83.333 0 176.666 27.833 279.999 83.5s189.333 124.834 258 207.501c75.333 90.667 113 179 113 265zM861.003 777c0 -1.33301 -1.33301 -2.33203 -4 -2.99902c-11.333 0 -32.666 15 -63.999 45
c-33.333 31.333 -50 56.666 -50 75.999c0 12 6.66699 18 20 18s22.666 -9.66699 27.999 -29c8 -29.333 15.5 -49 22.5 -59s17.167 -20.667 30.5 -32c11.333 -8.66699 17 -14 17 -16z" />
    <glyph glyph-name="Oacute" unicode="&#xd3;" horiz-adv-x="870" 
d="M952 561c0 -98 -36.665 -192.332 -109.998 -282.999c-66 -83.333 -151.167 -151.166 -255.5 -203.499s-203.833 -78.5 -298.5 -78.5c-17.333 0 -34.333 1.33301 -51 4c8 -22.667 21.333 -44.334 40 -65.001c0.666992 -4 -1.33301 -7.5 -6 -10.5
s-9.33398 -3.5 -14.001 -1.5c-22.667 21.333 -38.334 48.666 -47.001 81.999c-102 24 -153 89.667 -153 197c0 95.333 37.667 187.666 113 276.999c67.333 80 154.333 146 261 198c104 50 202 75 294 75c60.667 0 108 -7 142 -21c2 -3.33301 2 -6.66602 0 -9.99902
c-2.66699 -3.33301 -6 -5.33301 -10 -6c-29.333 10.667 -73.333 16 -132 16c-82 0 -172.333 -29.667 -271 -89c-96 -58 -176.333 -129.667 -241 -215c-69.333 -92 -104 -180 -104 -264c0 -70 32 -115.333 96 -136c-4 21.333 -6 45 -6 71c0 93.333 27.167 188 81.5 284
s123.833 174.333 208.5 235c90.667 64.667 182.667 97 276 97c60 0 107 -15.667 141 -47c30.667 -28 46 -63.333 46 -106zM914.002 574.001c0 38 -13.999 67.332 -41.999 87.999s-63.667 31 -107 31c-82 0 -167 -35 -255 -105c-80 -64 -147.5 -144.667 -202.5 -242
s-82.5 -186.333 -82.5 -267c0 -20.667 2 -40 6 -58c11.333 -2 22 -3 32 -3c83.333 0 176.666 27.833 279.999 83.5s189.333 124.834 258 207.501c75.333 90.667 113 179 113 265zM886.003 904c0 -19.333 -16.666 -44.667 -49.999 -76c-30.667 -30 -51.667 -45 -63 -45
c-2.66699 0.666992 -4 1.66699 -4 3c0 2 5.66699 7.33301 17 16c13.333 11.333 23.5 22 30.5 32s14.5 29.667 22.5 59c5.33301 19.333 14.666 29 27.999 29c12.667 0 19 -6 19 -18z" />
    <glyph glyph-name="Ocircumflex" unicode="&#xd4;" horiz-adv-x="870" 
d="M952 561c0 -98 -36.665 -192.332 -109.998 -282.999c-66 -83.333 -151.167 -151.166 -255.5 -203.499s-203.833 -78.5 -298.5 -78.5c-17.333 0 -34.333 1.33301 -51 4c8 -22.667 21.333 -44.334 40 -65.001c0.666992 -4 -1.33301 -7.5 -6 -10.5
s-9.33398 -3.5 -14.001 -1.5c-22.667 21.333 -38.334 48.666 -47.001 81.999c-102 24 -153 89.667 -153 197c0 95.333 37.667 187.666 113 276.999c67.333 80 154.333 146 261 198c104 50 202 75 294 75c60.667 0 108 -7 142 -21c2 -3.33301 2 -6.66602 0 -9.99902
c-2.66699 -3.33301 -6 -5.33301 -10 -6c-29.333 10.667 -73.333 16 -132 16c-82 0 -172.333 -29.667 -271 -89c-96 -58 -176.333 -129.667 -241 -215c-69.333 -92 -104 -180 -104 -264c0 -70 32 -115.333 96 -136c-4 21.333 -6 45 -6 71c0 93.333 27.167 188 81.5 284
s123.833 174.333 208.5 235c90.667 64.667 182.667 97 276 97c60 0 107 -15.667 141 -47c30.667 -28 46 -63.333 46 -106zM914.002 574.001c0 38 -13.999 67.332 -41.999 87.999s-63.667 31 -107 31c-82 0 -167 -35 -255 -105c-80 -64 -147.5 -144.667 -202.5 -242
s-82.5 -186.333 -82.5 -267c0 -20.667 2 -40 6 -58c11.333 -2 22 -3 32 -3c83.333 0 176.666 27.833 279.999 83.5s189.333 124.834 258 207.501c75.333 90.667 113 179 113 265zM895.003 780c0 -1.33301 -0.333984 -2 -1.00098 -2c-6.66699 0 -18 13 -34 39
c-14 23.333 -22.667 40 -26 50c-19.333 -18.667 -42.666 -38.167 -69.999 -58.5s-43 -30.5 -47 -30.5c-2 0 -3 0.666992 -3 2c0 0.666992 15.333 15.667 46 45c36 34 63.333 64.667 82 92h12c2 -28 9.66699 -59 23 -93c12 -31.333 18 -46 18 -44z" />
    <glyph glyph-name="Otilde" unicode="&#xd5;" horiz-adv-x="870" 
d="M952 561c0 -98 -36.665 -192.332 -109.998 -282.999c-66 -83.333 -151.167 -151.166 -255.5 -203.499s-203.833 -78.5 -298.5 -78.5c-17.333 0 -34.333 1.33301 -51 4c8 -22.667 21.333 -44.334 40 -65.001c0.666992 -4 -1.33301 -7.5 -6 -10.5
s-9.33398 -3.5 -14.001 -1.5c-22.667 21.333 -38.334 48.666 -47.001 81.999c-102 24 -153 89.667 -153 197c0 95.333 37.667 187.666 113 276.999c67.333 80 154.333 146 261 198c104 50 202 75 294 75c60.667 0 108 -7 142 -21c2 -3.33301 2 -6.66602 0 -9.99902
c-2.66699 -3.33301 -6 -5.33301 -10 -6c-29.333 10.667 -73.333 16 -132 16c-82 0 -172.333 -29.667 -271 -89c-96 -58 -176.333 -129.667 -241 -215c-69.333 -92 -104 -180 -104 -264c0 -70 32 -115.333 96 -136c-4 21.333 -6 45 -6 71c0 93.333 27.167 188 81.5 284
s123.833 174.333 208.5 235c90.667 64.667 182.667 97 276 97c60 0 107 -15.667 141 -47c30.667 -28 46 -63.333 46 -106zM914.002 574.001c0 38 -13.999 67.332 -41.999 87.999s-63.667 31 -107 31c-82 0 -167 -35 -255 -105c-80 -64 -147.5 -144.667 -202.5 -242
s-82.5 -186.333 -82.5 -267c0 -20.667 2 -40 6 -58c11.333 -2 22 -3 32 -3c83.333 0 176.666 27.833 279.999 83.5s189.333 124.834 258 207.501c75.333 90.667 113 179 113 265zM927.003 850c-1.33301 -8.66699 -6.66699 -18.668 -16 -30.001
c-13.333 -16 -30.333 -23 -51 -21c-12 1.33301 -28.833 7.5 -50.5 18.5s-38.5 17.167 -50.5 18.5c-12.667 1.33301 -23.667 -3.16699 -33 -13.5s-14.333 -15.166 -15 -14.499c-2 0 -2.66699 1.66699 -2 5c0.666992 7.33301 6.33398 17.333 17.001 30
c13.333 16.667 27.666 24 42.999 22c12 -1.33301 29.833 -8 53.5 -20s41.5 -18.333 53.5 -19c14.667 -2 26.167 2.5 34.5 13.5s12.833 16.5 13.5 16.5c2 0 3 -2 3 -6z" />
    <glyph glyph-name="Odieresis" unicode="&#xd6;" horiz-adv-x="870" 
d="M952 561c0 -98 -36.665 -192.332 -109.998 -282.999c-66 -83.333 -151.167 -151.166 -255.5 -203.499s-203.833 -78.5 -298.5 -78.5c-17.333 0 -34.333 1.33301 -51 4c8 -22.667 21.333 -44.334 40 -65.001c0.666992 -4 -1.33301 -7.5 -6 -10.5
s-9.33398 -3.5 -14.001 -1.5c-22.667 21.333 -38.334 48.666 -47.001 81.999c-102 24 -153 89.667 -153 197c0 95.333 37.667 187.666 113 276.999c67.333 80 154.333 146 261 198c104 50 202 75 294 75c60.667 0 108 -7 142 -21c2 -3.33301 2 -6.66602 0 -9.99902
c-2.66699 -3.33301 -6 -5.33301 -10 -6c-29.333 10.667 -73.333 16 -132 16c-82 0 -172.333 -29.667 -271 -89c-96 -58 -176.333 -129.667 -241 -215c-69.333 -92 -104 -180 -104 -264c0 -70 32 -115.333 96 -136c-4 21.333 -6 45 -6 71c0 93.333 27.167 188 81.5 284
s123.833 174.333 208.5 235c90.667 64.667 182.667 97 276 97c60 0 107 -15.667 141 -47c30.667 -28 46 -63.333 46 -106zM914.002 574.001c0 38 -13.999 67.332 -41.999 87.999s-63.667 31 -107 31c-82 0 -167 -35 -255 -105c-80 -64 -147.5 -144.667 -202.5 -242
s-82.5 -186.333 -82.5 -267c0 -20.667 2 -40 6 -58c11.333 -2 22 -3 32 -3c83.333 0 176.666 27.833 279.999 83.5s189.333 124.834 258 207.501c75.333 90.667 113 179 113 265zM861.003 837c0 -24.667 -11 -37 -33 -37c-14 0 -21 8 -21 24c0 22.667 10 34 30 34
c16 0 24 -7 24 -21zM759.003 837c0 -24.667 -11 -37 -33 -37c-14.667 0 -22 8 -22 24c0 22.667 10 34 30 34c16.667 0 25 -7 25 -21z" />
    <glyph glyph-name="Oslash" unicode="&#xd8;" horiz-adv-x="870" 
d="M979 743l-81.998 -70.999c34.667 -28 52 -65 52 -111c0 -98 -36.667 -192.333 -110 -283c-66 -83.333 -151.167 -151.166 -255.5 -203.499s-203.833 -78.5 -298.5 -78.5c-17.333 0 -34.333 1.33301 -51 4c8 -22.667 21.333 -44.334 40 -65.001
c0.666992 -4 -1.33301 -7.5 -6 -10.5s-9.33398 -3.5 -14.001 -1.5c-22.667 21.333 -38.334 48.666 -47.001 81.999c-22 5.33301 -42 13 -60 23l-109 -94v37l85 73c-46 36.667 -69 89.334 -69 158.001c0 95.333 37.667 187.666 113 276.999c67.333 80 154.333 146 261 198
c104 50 202 75 294 75c60.667 0 108 -7 142 -21c2 -3.33301 2 -6.66602 0 -9.99902c-2.66699 -3.33301 -6 -5.33301 -10 -6c-29.333 10.667 -73.333 16 -132 16c-82 0 -172.333 -29.667 -271 -89c-96 -58 -176.333 -129.667 -241 -215c-69.333 -92 -104 -180 -104 -264
c0 -40.667 12.667 -74.334 38 -101.001l52 45c2 92 30.333 185.333 85 280s124 172 208 232c89.333 63.333 180.333 95 273 95c43.333 0 80.333 -8.33301 111 -25l106 91v-37zM854.002 672.001c-25.333 14 -55.999 21.001 -91.999 21.001
c-78.667 0 -159.334 -31.333 -242.001 -94c-74 -56 -138.667 -128.667 -194 -218c-54 -86.667 -87.333 -169.334 -100 -248.001zM911.003 574.002c0 33.333 -11.332 60.332 -33.999 80.999l-655 -563v-13c0 -20.667 2 -40 6 -58c11.333 -2 22 -3 32 -3
c83.333 0 176.666 27.833 279.999 83.5s189.333 124.834 258 207.501c75.333 90.667 113 179 113 265zM202.004 27.001c-2.66699 13.333 -4.33301 28 -5 44l-31 -27c10.667 -7.33301 22.667 -13 36 -17z" />
    <glyph glyph-name="Ugrave" unicode="&#xd9;" horiz-adv-x="1227" 
d="M1303 726l-157.998 -331.998c-90.667 -193.333 -136 -310 -136 -350c0 -4.66699 2.16699 -9.5 6.5 -14.5s9.16602 -7.5 14.499 -7.5c27.333 0 63.666 24.333 108.999 73c35.333 38.667 63.333 76 84 112c4.66699 3.33301 9 5 13 5
c4.66699 -0.666992 7 -3.33398 7 -8.00098c-16.667 -38.667 -42.334 -78.334 -77.001 -119.001c-49.333 -57.333 -96.333 -86 -141 -86c-50.667 0 -76 24.667 -76 74c0 50.667 33 141 99 271c-48.667 -64 -88.334 -113 -119.001 -147c-122.667 -135.333 -220 -203 -292 -203
c-50.667 0 -76 26.333 -76 79c0 40 26.333 104.667 79 194c0.666992 2 49.334 78.667 146.001 230c52.667 82.667 79 135.667 79 159c0 20.667 -13.167 38 -39.5 52s-59.5 21 -99.5 21c-105.333 0 -211.666 -28 -318.999 -84c-92.667 -47.333 -171.667 -107 -237 -179
c-61.333 -68 -92 -124.667 -92 -170c0 -57.333 32.333 -86 97 -86c46.667 0 98.667 11 156 33c60 23.333 114.333 54.333 163 93c51.333 40.667 100.333 91.667 147 153c40.667 53.333 66 94.333 76 123c7.33301 22 14 33 20 33c4 0 6 -4 6 -12
c0 -6.66699 -1.66699 -15 -5 -25c-9.33301 -30.667 -31.333 -71.334 -66 -122.001c-46.667 -67.333 -100.667 -125.333 -162 -174c-51.333 -40.667 -108.333 -72.334 -171 -95.001c-56.667 -20 -109.667 -30 -159 -30c-91.333 0 -137 40 -137 120
c0 58.667 30.333 122.834 91 192.501s138.334 127.5 233.001 173.5c105.333 50.667 213.666 76 324.999 76c146 0 219 -43.333 219 -130c0 -40 -26.333 -105 -79 -195c-15.333 -26 -64.333 -103 -147 -231c-53.333 -81.333 -80 -130.666 -80 -147.999
c0 -18.667 14.333 -28 43 -28c24.667 0 63.5 20.333 116.5 61s102.167 88.667 147.5 144c64 78 139 176.333 225 295l100 196c3.33301 9.33301 11.333 16.333 24 21c26 9.33301 39.333 14 40 14c4.66699 0 7 -2.33301 7 -7c0 -3.33301 -1.66699 -8.33301 -5 -15z
M1124 773.002c0 -1.33301 -1.33203 -2.33301 -3.99902 -3c-11.333 0 -32.333 15 -63 45c-33.333 32 -50 57.333 -50 76c0 12 6.33301 18 19 18c13.333 0 22.666 -9.33301 27.999 -28c8 -30 15.5 -50 22.5 -60s17.167 -20.333 30.5 -31c11.333 -9.33301 17 -15 17 -17z" />
    <glyph glyph-name="Uacute" unicode="&#xda;" horiz-adv-x="1227" 
d="M1303 726l-157.998 -331.998c-90.667 -193.333 -136 -310 -136 -350c0 -4.66699 2.16699 -9.5 6.5 -14.5s9.16602 -7.5 14.499 -7.5c27.333 0 63.666 24.333 108.999 73c35.333 38.667 63.333 76 84 112c4.66699 3.33301 9 5 13 5
c4.66699 -0.666992 7 -3.33398 7 -8.00098c-16.667 -38.667 -42.334 -78.334 -77.001 -119.001c-49.333 -57.333 -96.333 -86 -141 -86c-50.667 0 -76 24.667 -76 74c0 50.667 33 141 99 271c-48.667 -64 -88.334 -113 -119.001 -147c-122.667 -135.333 -220 -203 -292 -203
c-50.667 0 -76 26.333 -76 79c0 40 26.333 104.667 79 194c0.666992 2 49.334 78.667 146.001 230c52.667 82.667 79 135.667 79 159c0 20.667 -13.167 38 -39.5 52s-59.5 21 -99.5 21c-105.333 0 -211.666 -28 -318.999 -84c-92.667 -47.333 -171.667 -107 -237 -179
c-61.333 -68 -92 -124.667 -92 -170c0 -57.333 32.333 -86 97 -86c46.667 0 98.667 11 156 33c60 23.333 114.333 54.333 163 93c51.333 40.667 100.333 91.667 147 153c40.667 53.333 66 94.333 76 123c7.33301 22 14 33 20 33c4 0 6 -4 6 -12
c0 -6.66699 -1.66699 -15 -5 -25c-9.33301 -30.667 -31.333 -71.334 -66 -122.001c-46.667 -67.333 -100.667 -125.333 -162 -174c-51.333 -40.667 -108.333 -72.334 -171 -95.001c-56.667 -20 -109.667 -30 -159 -30c-91.333 0 -137 40 -137 120
c0 58.667 30.333 122.834 91 192.501s138.334 127.5 233.001 173.5c105.333 50.667 213.666 76 324.999 76c146 0 219 -43.333 219 -130c0 -40 -26.333 -105 -79 -195c-15.333 -26 -64.333 -103 -147 -231c-53.333 -81.333 -80 -130.666 -80 -147.999
c0 -18.667 14.333 -28 43 -28c24.667 0 63.5 20.333 116.5 61s102.167 88.667 147.5 144c64 78 139 176.333 225 295l100 196c3.33301 9.33301 11.333 16.333 24 21c26 9.33301 39.333 14 40 14c4.66699 0 7 -2.33301 7 -7c0 -3.33301 -1.66699 -8.33301 -5 -15z
M1189 885.002c0 -18.667 -16.667 -43.999 -50 -75.999c-31.333 -29.333 -52.666 -44 -63.999 -44c-2.66699 0.666992 -4 1.66699 -4 3s6.16699 7.16602 18.5 17.499s22 20.5 29 30.5s14.5 29.667 22.5 59c5.33301 19.333 14.666 29 27.999 29s20 -6.33301 20 -19z" />
    <glyph glyph-name="Ucircumflex" unicode="&#xdb;" horiz-adv-x="1227" 
d="M1303 726l-157.998 -331.998c-90.667 -193.333 -136 -310 -136 -350c0 -4.66699 2.16699 -9.5 6.5 -14.5s9.16602 -7.5 14.499 -7.5c27.333 0 63.666 24.333 108.999 73c35.333 38.667 63.333 76 84 112c4.66699 3.33301 9 5 13 5
c4.66699 -0.666992 7 -3.33398 7 -8.00098c-16.667 -38.667 -42.334 -78.334 -77.001 -119.001c-49.333 -57.333 -96.333 -86 -141 -86c-50.667 0 -76 24.667 -76 74c0 50.667 33 141 99 271c-48.667 -64 -88.334 -113 -119.001 -147c-122.667 -135.333 -220 -203 -292 -203
c-50.667 0 -76 26.333 -76 79c0 40 26.333 104.667 79 194c0.666992 2 49.334 78.667 146.001 230c52.667 82.667 79 135.667 79 159c0 20.667 -13.167 38 -39.5 52s-59.5 21 -99.5 21c-105.333 0 -211.666 -28 -318.999 -84c-92.667 -47.333 -171.667 -107 -237 -179
c-61.333 -68 -92 -124.667 -92 -170c0 -57.333 32.333 -86 97 -86c46.667 0 98.667 11 156 33c60 23.333 114.333 54.333 163 93c51.333 40.667 100.333 91.667 147 153c40.667 53.333 66 94.333 76 123c7.33301 22 14 33 20 33c4 0 6 -4 6 -12
c0 -6.66699 -1.66699 -15 -5 -25c-9.33301 -30.667 -31.333 -71.334 -66 -122.001c-46.667 -67.333 -100.667 -125.333 -162 -174c-51.333 -40.667 -108.333 -72.334 -171 -95.001c-56.667 -20 -109.667 -30 -159 -30c-91.333 0 -137 40 -137 120
c0 58.667 30.333 122.834 91 192.501s138.334 127.5 233.001 173.5c105.333 50.667 213.666 76 324.999 76c146 0 219 -43.333 219 -130c0 -40 -26.333 -105 -79 -195c-15.333 -26 -64.333 -103 -147 -231c-53.333 -81.333 -80 -130.666 -80 -147.999
c0 -18.667 14.333 -28 43 -28c24.667 0 63.5 20.333 116.5 61s102.167 88.667 147.5 144c64 78 139 176.333 225 295l100 196c3.33301 9.33301 11.333 16.333 24 21c26 9.33301 39.333 14 40 14c4.66699 0 7 -2.33301 7 -7c0 -3.33301 -1.66699 -8.33301 -5 -15z
M1177 772.002c-0.666992 -0.666992 -1.33398 -0.999023 -2.00098 -0.999023c-6.66699 0 -17.667 13 -33 39c-14 23.333 -22.667 40 -26 50c-20 -18.667 -43.667 -38.167 -71 -58.5s-43 -30.5 -47 -30.5c-2 0 -3 0.333008 -3 1c0 1.33301 15.667 16.666 47 45.999
c35.333 33.333 62.333 64 81 92h12c2.66699 -28 10.334 -58.5 23.001 -91.5s19 -48.5 19 -46.5z" />
    <glyph glyph-name="Udieresis" unicode="&#xdc;" horiz-adv-x="1227" 
d="M1303 726l-157.998 -331.998c-90.667 -193.333 -136 -310 -136 -350c0 -4.66699 2.16699 -9.5 6.5 -14.5s9.16602 -7.5 14.499 -7.5c27.333 0 63.666 24.333 108.999 73c35.333 38.667 63.333 76 84 112c4.66699 3.33301 9 5 13 5
c4.66699 -0.666992 7 -3.33398 7 -8.00098c-16.667 -38.667 -42.334 -78.334 -77.001 -119.001c-49.333 -57.333 -96.333 -86 -141 -86c-50.667 0 -76 24.667 -76 74c0 50.667 33 141 99 271c-48.667 -64 -88.334 -113 -119.001 -147c-122.667 -135.333 -220 -203 -292 -203
c-50.667 0 -76 26.333 -76 79c0 40 26.333 104.667 79 194c0.666992 2 49.334 78.667 146.001 230c52.667 82.667 79 135.667 79 159c0 20.667 -13.167 38 -39.5 52s-59.5 21 -99.5 21c-105.333 0 -211.666 -28 -318.999 -84c-92.667 -47.333 -171.667 -107 -237 -179
c-61.333 -68 -92 -124.667 -92 -170c0 -57.333 32.333 -86 97 -86c46.667 0 98.667 11 156 33c60 23.333 114.333 54.333 163 93c51.333 40.667 100.333 91.667 147 153c40.667 53.333 66 94.333 76 123c7.33301 22 14 33 20 33c4 0 6 -4 6 -12
c0 -6.66699 -1.66699 -15 -5 -25c-9.33301 -30.667 -31.333 -71.334 -66 -122.001c-46.667 -67.333 -100.667 -125.333 -162 -174c-51.333 -40.667 -108.333 -72.334 -171 -95.001c-56.667 -20 -109.667 -30 -159 -30c-91.333 0 -137 40 -137 120
c0 58.667 30.333 122.834 91 192.501s138.334 127.5 233.001 173.5c105.333 50.667 213.666 76 324.999 76c146 0 219 -43.333 219 -130c0 -40 -26.333 -105 -79 -195c-15.333 -26 -64.333 -103 -147 -231c-53.333 -81.333 -80 -130.666 -80 -147.999
c0 -18.667 14.333 -28 43 -28c24.667 0 63.5 20.333 116.5 61s102.167 88.667 147.5 144c64 78 139 176.333 225 295l100 196c3.33301 9.33301 11.333 16.333 24 21c26 9.33301 39.333 14 40 14c4.66699 0 7 -2.33301 7 -7c0 -3.33301 -1.66699 -8.33301 -5 -15z
M1178 831.002c0 -24.667 -11 -37 -33 -37c-14 0 -21 8 -21 24c0 22.667 10 34 30 34c16 0 24 -7 24 -21zM1076 831.002c0 -24.667 -11 -37 -33 -37c-14.667 0 -22 8 -22 24c0 22.667 10 34 30 34c16.667 0 25 -7 25 -21z" />
    <glyph glyph-name="Yacute" unicode="&#xdd;" horiz-adv-x="1086" 
d="M1292 723c-32.667 -48 -87.6641 -150.005 -164.997 -306.005l-128 -268c-50.667 -104 -93 -176.333 -127 -217c-87.333 -106 -178 -159 -272 -159c-25.333 0 -46.166 7.5 -62.499 22.5s-24.5 34.833 -24.5 59.5c0 18.667 5.5 33.667 16.5 45s24.5 17 40.5 17
c14 0 26 -4.83301 36 -14.5s15 -22.167 15 -37.5c0 -13.333 -4.83301 -25 -14.5 -35s-20.834 -15 -33.501 -15c-8 0 -12.667 -1.33301 -14 -4s0.666992 -6.16699 6 -10.5s16 -6.5 32 -6.5c69.333 0 140 50.667 212 152c25.333 36 62.666 101.667 111.999 197l115 227
c-60.667 -74.667 -113 -135 -157 -181c-120.667 -126.667 -213.667 -190 -279 -190c-48 0 -72 25.667 -72 77c0 35.333 25.333 94.333 76 177l141 217c50.667 80.667 76 137.334 76 170.001c0 54.667 -39.333 82 -118 82c-109.333 0 -215.666 -27.667 -318.999 -83
c-87.333 -47.333 -161 -107 -221 -179c-55.333 -66.667 -83 -123.334 -83 -170.001c0 -29.333 8.66699 -51.666 26 -66.999c15.333 -13.333 34.666 -20 57.999 -20c103.333 0 204 42.333 302 127c49.333 42 96.666 92 141.999 150c42.667 54 68 94.333 76 121
c8.66699 11.333 15.667 10 21 -4c-8.66699 -29.333 -31 -70 -67 -122c-46.667 -66.667 -99.334 -123 -158.001 -169c-105.333 -84 -207 -126 -305 -126c-84.667 0 -127 40.333 -127 121c0 58.667 28.5 123.334 85.5 194.001s129.833 129.334 218.5 176.001
c98.667 52 199.667 78 303 78c144.667 0 217 -46 217 -138c0 -47.333 -26 -114.666 -78 -201.999c-20.667 -34.667 -69.334 -107 -146.001 -217c-52 -75.333 -78 -121.666 -78 -138.999c0 -18.667 11.333 -28 34 -28c54.667 0 141 63 259 189
c132 141.333 219.667 250 263 326l105 185c0.666992 2 13.334 6 38.001 12c17.333 4.66699 26 2.66699 26 -6c0 -2 -1 -4.66699 -3 -8zM1165 889.995c0 -19.333 -14.499 -44.332 -43.499 -74.999s-49.167 -46 -60.5 -46c-2.66699 0 -5.66699 0.166992 -9 0.5
s-5 1.16602 -5 2.49902c0 2 5.66699 7.33301 17 16c13.333 11.333 23.5 22 30.5 32s14.5 29.667 22.5 59c5.33301 19.333 14.666 29 27.999 29s20 -6 20 -18z" />
    <glyph glyph-name="Thorn" unicode="&#xde;" horiz-adv-x="1100" 
d="M1097 305c0 -84 -46.667 -162.333 -140 -235c-90.667 -71.333 -184 -107 -280 -107c-25.333 0 -48.666 2.33301 -69.999 7c-114 -123.333 -224.333 -185 -331 -185c-46.667 0 -80.667 9.66699 -102 29c-4.66699 10 0 15.333 14 16c25.333 -14.667 52 -22 80 -22
c98.667 0 194 60.333 286 181c-52 26 -78 67.667 -78 125c0 72.667 34.333 134.667 103 186c48.667 37.333 94.667 59.333 138 66c5.33301 -1.33301 9 -3.66602 11 -6.99902c2 -2.66699 1.33301 -5.33398 -2 -8.00098c-34.667 -8.66699 -72.334 -31.334 -113.001 -68.001
c-58.667 -52 -88 -111.333 -88 -178c0 -46.667 14.333 -79.334 43 -98.001c41.333 58 87.333 135 138 231l125 240c-134 0 -264.667 -30.333 -392 -91c-119.333 -57.333 -216.333 -131.333 -291 -222c-75.333 -92.667 -113 -185 -113 -277c0 -23.333 3 -45.666 9 -66.999
c1.33301 -9.33301 -2.33398 -14 -11.001 -14c-3.33301 0 -6.33301 1 -9 3c-10 22 -15 59.333 -15 112c0 110 42.667 211.667 128 305c76.667 84 177.667 151.667 303 203c120.667 48.667 239.667 73 357 73c16.667 0 32.334 -0.333008 47.001 -1
c17.333 30 31.666 54 42.999 72c32.667 50.667 63.334 92 92.001 124s48 48 58 48s15 -2.66699 15 -8l-12 -13c-28 -30 -73.333 -106.667 -136 -230c128.667 -21.333 193 -84.666 193 -189.999zM1032 332c0 81.333 -46 128.666 -138 141.999l-123 -257
c-38 -83.333 -87.333 -159.666 -148 -228.999c12.667 -2 26.667 -3 42 -3c87.333 0 171.333 40.667 252 122c76.667 77.333 115 152.333 115 225z" />
    <glyph glyph-name="germandbls" unicode="&#xdf;" horiz-adv-x="299" 
d="M385 530c0 -26.667 -6.66895 -57.6641 -20.002 -92.9971s-29.333 -62.666 -48 -81.999c-33.333 -34 -50 -60.667 -50 -80c0 -10.667 2.83301 -25.834 8.5 -45.501s8.5 -34.834 8.5 -45.501c0 -47.333 -15 -89.333 -45 -126c-32 -38.667 -71.333 -58 -118 -58
c-41.333 0 -62 19 -62 57c0 15.333 3.66699 28.666 11 39.999c8.66699 14 20 21 34 21c22.667 0 34 -11.667 34 -35c0 -12 -4.33301 -22.333 -13 -31s-19 -13 -31 -13c-2 0 -4.66699 -0.666992 -8 -2c0.666992 -14.667 10.334 -22 29.001 -22c32.667 0 60 22 82 66
c17.333 36.667 26 73.667 26 111c0 8.66699 -1.66699 21.167 -5 37.5s-5 28.833 -5 37.5c0 19.333 10.333 39.666 31 60.999l54 48c18 16.667 32.667 39.167 44 67.5s17 54.166 17 77.499c0 21.333 -6.66699 32 -20 32c-21.333 0 -48.666 -28 -81.999 -84l-104 -196
c-75.333 -141.333 -130.333 -238.666 -165 -291.999c-61.333 -95.333 -109.333 -143 -144 -143c-12 0 -22.167 4.33301 -30.5 13s-12.5 19 -12.5 31c2.66699 3.33301 6 5 10 5c5.33301 0 9.33301 -2.66699 12 -8c0.666992 -13.333 7.66699 -20 21 -20
c31.333 0 79 62 143 186l175 347c70 124.667 128.333 187 175 187c32 0 48 -16.333 48 -49z" />
    <glyph glyph-name="agrave" unicode="&#xe0;" horiz-adv-x="352" 
d="M335 298c0 -2 -1.99805 -6 -5.99805 -12c-1.33301 -2 -19 -42 -53 -120c-30 -68.667 -45 -110.334 -45 -125.001c0 -10 4 -15 12 -15c15.333 0 40.666 20.667 75.999 62c2.66699 0.666992 5.5 -0.333008 8.5 -3s4.16699 -5.66699 3.5 -9
c-36 -51.333 -73.333 -77 -112 -77c-31.333 0 -47 15.667 -47 47c0 10.667 5.33301 30.334 16 59.001c-54.667 -69.333 -98.334 -104 -131.001 -104c-34 0 -51 21 -51 63c0 58.667 29 114.667 87 168c56 51.333 113.667 77 173 77c30 0 51.667 -2 65 -6
c2.66699 -1.33301 4 -3 4 -5zM250.002 265c0 12 -4.66797 17.999 -14.001 17.999c-27.333 0 -64.166 -32 -110.499 -96s-69.5 -111.667 -69.5 -143c0 -12 5.33301 -18 16 -18c17.333 0 52.333 33 105 99c24 30.667 42.167 58.334 54.5 83.001s18.5 43.667 18.5 57z
M313.001 345.999c0 -1.33301 -1.33203 -2.33301 -3.99902 -3c-11.333 0 -32.333 15 -63 45c-33.333 32 -50 57.333 -50 76c0 12 6.33301 18 19 18c13.333 0 22.666 -9.33301 27.999 -28c8 -30 15.5 -50 22.5 -60s17.167 -20.333 30.5 -31c11.333 -9.33301 17 -15 17 -17z
" />
    <glyph glyph-name="aacute" unicode="&#xe1;" horiz-adv-x="352" 
d="M335 298c0 -2 -1.99805 -6 -5.99805 -12c-1.33301 -2 -19 -42 -53 -120c-30 -68.667 -45 -110.334 -45 -125.001c0 -10 4 -15 12 -15c15.333 0 40.666 20.667 75.999 62c2.66699 0.666992 5.5 -0.333008 8.5 -3s4.16699 -5.66699 3.5 -9
c-36 -51.333 -73.333 -77 -112 -77c-31.333 0 -47 15.667 -47 47c0 10.667 5.33301 30.334 16 59.001c-54.667 -69.333 -98.334 -104 -131.001 -104c-34 0 -51 21 -51 63c0 58.667 29 114.667 87 168c56 51.333 113.667 77 173 77c30 0 51.667 -2 65 -6
c2.66699 -1.33301 4 -3 4 -5zM250.002 265c0 12 -4.66797 17.999 -14.001 17.999c-27.333 0 -64.166 -32 -110.499 -96s-69.5 -111.667 -69.5 -143c0 -12 5.33301 -18 16 -18c17.333 0 52.333 33 105 99c24 30.667 42.167 58.334 54.5 83.001s18.5 43.667 18.5 57z
M383.001 460.999c0 -18.667 -16.667 -43.999 -50 -75.999c-31.333 -29.333 -52.666 -44 -63.999 -44c-2.66699 0.666992 -4 1.66699 -4 3s6.16699 7.16602 18.5 17.499s22 20.5 29 30.5s14.5 29.667 22.5 59c5.33301 19.333 14.666 29 27.999 29s20 -6.33301 20 -19z" />
    <glyph glyph-name="acircumflex" unicode="&#xe2;" horiz-adv-x="352" 
d="M335 298c0 -2 -1.99805 -6 -5.99805 -12c-1.33301 -2 -19 -42 -53 -120c-30 -68.667 -45 -110.334 -45 -125.001c0 -10 4 -15 12 -15c15.333 0 40.666 20.667 75.999 62c2.66699 0.666992 5.5 -0.333008 8.5 -3s4.16699 -5.66699 3.5 -9
c-36 -51.333 -73.333 -77 -112 -77c-31.333 0 -47 15.667 -47 47c0 10.667 5.33301 30.334 16 59.001c-54.667 -69.333 -98.334 -104 -131.001 -104c-34 0 -51 21 -51 63c0 58.667 29 114.667 87 168c56 51.333 113.667 77 173 77c30 0 51.667 -2 65 -6
c2.66699 -1.33301 4 -3 4 -5zM250.002 265c0 12 -4.66797 17.999 -14.001 17.999c-27.333 0 -64.166 -32 -110.499 -96s-69.5 -111.667 -69.5 -143c0 -12 5.33301 -18 16 -18c17.333 0 52.333 33 105 99c24 30.667 42.167 58.334 54.5 83.001s18.5 43.667 18.5 57z
M358.001 337.999c-0.666992 -0.666992 -1.33398 -0.999023 -2.00098 -0.999023c-6.66699 0 -17.667 13 -33 39c-14 23.333 -22.667 40 -26 50c-20 -18.667 -43.667 -38.167 -71 -58.5s-43 -30.5 -47 -30.5c-2 0 -3 0.333008 -3 1c0 1.33301 15.667 16.666 47 45.999
c35.333 33.333 62.333 64 81 92h12c2.66699 -28 10.334 -58.5 23.001 -91.5s19 -48.5 19 -46.5z" />
    <glyph glyph-name="atilde" unicode="&#xe3;" horiz-adv-x="352" 
d="M335 298c0 -2 -1.99805 -6 -5.99805 -12c-1.33301 -2 -19 -42 -53 -120c-30 -68.667 -45 -110.334 -45 -125.001c0 -10 4 -15 12 -15c15.333 0 40.666 20.667 75.999 62c2.66699 0.666992 5.5 -0.333008 8.5 -3s4.16699 -5.66699 3.5 -9
c-36 -51.333 -73.333 -77 -112 -77c-31.333 0 -47 15.667 -47 47c0 10.667 5.33301 30.334 16 59.001c-54.667 -69.333 -98.334 -104 -131.001 -104c-34 0 -51 21 -51 63c0 58.667 29 114.667 87 168c56 51.333 113.667 77 173 77c30 0 51.667 -2 65 -6
c2.66699 -1.33301 4 -3 4 -5zM250.002 265c0 12 -4.66797 17.999 -14.001 17.999c-27.333 0 -64.166 -32 -110.499 -96s-69.5 -111.667 -69.5 -143c0 -12 5.33301 -18 16 -18c17.333 0 52.333 33 105 99c24 30.667 42.167 58.334 54.5 83.001s18.5 43.667 18.5 57z
M382.001 398.999c-0.666992 -9.33301 -5.66797 -19.333 -15.001 -30c-13.333 -16.667 -30.666 -23.667 -51.999 -21c-12 1.33301 -28.833 7.5 -50.5 18.5s-38.5 17.167 -50.5 18.5s-22.667 -3.16699 -32 -13.5s-14.333 -15.5 -15 -15.5c-2 0 -3 2 -3 6
c1.33301 7.33301 7 17.333 17 30c13.333 16 27.666 23.333 42.999 22c12.667 -1.33301 30.834 -8 54.501 -20s41.5 -18.667 53.5 -20c14.667 -1.33301 26.167 3.5 34.5 14.5s12.833 16.5 13.5 16.5c2 -0.666992 2.66699 -2.66699 2 -6z" />
    <glyph glyph-name="adieresis" unicode="&#xe4;" horiz-adv-x="352" 
d="M335 298c0 -2 -1.99805 -6 -5.99805 -12c-1.33301 -2 -19 -42 -53 -120c-30 -68.667 -45 -110.334 -45 -125.001c0 -10 4 -15 12 -15c15.333 0 40.666 20.667 75.999 62c2.66699 0.666992 5.5 -0.333008 8.5 -3s4.16699 -5.66699 3.5 -9
c-36 -51.333 -73.333 -77 -112 -77c-31.333 0 -47 15.667 -47 47c0 10.667 5.33301 30.334 16 59.001c-54.667 -69.333 -98.334 -104 -131.001 -104c-34 0 -51 21 -51 63c0 58.667 29 114.667 87 168c56 51.333 113.667 77 173 77c30 0 51.667 -2 65 -6
c2.66699 -1.33301 4 -3 4 -5zM250.002 265c0 12 -4.66797 17.999 -14.001 17.999c-27.333 0 -64.166 -32 -110.499 -96s-69.5 -111.667 -69.5 -143c0 -12 5.33301 -18 16 -18c17.333 0 52.333 33 105 99c24 30.667 42.167 58.334 54.5 83.001s18.5 43.667 18.5 57z
M359.001 392.999c0 -24.667 -11 -37 -33 -37c-14 0 -21 8 -21 24c0 22.667 10 34 30 34c16 0 24 -7 24 -21zM257.001 392.999c0 -24.667 -11 -37 -33 -37c-14.667 0 -22 8 -22 24c0 22.667 10 34 30 34c16.667 0 25 -7 25 -21z" />
    <glyph glyph-name="aring" unicode="&#xe5;" horiz-adv-x="352" 
d="M335 298c0 -2 -1.99805 -6 -5.99805 -12c-1.33301 -2 -19 -42 -53 -120c-30 -68.667 -45 -110.334 -45 -125.001c0 -10 4 -15 12 -15c15.333 0 40.666 20.667 75.999 62c2.66699 0.666992 5.5 -0.333008 8.5 -3s4.16699 -5.66699 3.5 -9
c-36 -51.333 -73.333 -77 -112 -77c-31.333 0 -47 15.667 -47 47c0 10.667 5.33301 30.334 16 59.001c-54.667 -69.333 -98.334 -104 -131.001 -104c-34 0 -51 21 -51 63c0 58.667 29 114.667 87 168c56 51.333 113.667 77 173 77c30 0 51.667 -2 65 -6
c2.66699 -1.33301 4 -3 4 -5zM250.002 265c0 12 -4.66797 17.999 -14.001 17.999c-27.333 0 -64.166 -32 -110.499 -96s-69.5 -111.667 -69.5 -143c0 -12 5.33301 -18 16 -18c17.333 0 52.333 33 105 99c24 30.667 42.167 58.334 54.5 83.001s18.5 43.667 18.5 57z
M382.001 444.999c0 -24 -9.50098 -45.167 -28.501 -63.5s-40.5 -27.5 -64.5 -27.5c-17.333 0 -31.666 5.5 -42.999 16.5s-17 25.167 -17 42.5c0 24 9.33301 45.167 28 63.5s40 27.5 64 27.5c17.333 0 31.833 -5.5 43.5 -16.5s17.5 -25.167 17.5 -42.5zM354 438.999
c0 25.333 -13 38 -39 38c-15.333 0 -29.166 -6 -41.499 -18s-18.5 -25.333 -18.5 -40c0 -25.333 13 -38 39 -38c15.333 0 29.166 5.83301 41.499 17.5s18.5 25.167 18.5 40.5z" />
    <glyph glyph-name="ae" unicode="&#xe6;" horiz-adv-x="455" 
d="M441 265c0 -43.333 -24.999 -82.335 -74.999 -117.002c-40 -26.667 -76.667 -41.667 -110 -45c-8 -21.333 -12 -37.666 -12 -48.999c0 -23.333 12.333 -35 37 -35c20 0 42.667 9 68 27c20 14.667 35.333 29.334 46 44.001c8.66699 4.66699 14 1.66699 16 -9
c-11.333 -16 -27.333 -31.667 -48 -47c-30.667 -22.667 -61 -34 -91 -34c-51.333 -0 -77 25.333 -77 76c0 12 1.33301 24.333 4 37c-8.66699 -9.33301 -17.334 -19.333 -26.001 -30c-45.333 -54.667 -83 -82 -113 -82c-34 0 -51 21 -51 63c0 58.667 29 114.667 87 168
c56 51.333 113.667 77 173 77c30 0 51.667 -2 65 -6c2.66699 -1.33301 4 -3 4 -5c0 -0.666992 -0.333008 -1.66699 -1 -3c18.667 10 35.667 15 51 15c35.333 0 53 -15 53 -45zM400.001 270.998c0 12.667 -4.66699 19.001 -14 19.001c-14.667 0 -34.667 -18.667 -60 -56
c-24 -33.333 -44.667 -69.666 -62 -108.999c30 1.33301 60.167 18.666 90.5 51.999s45.5 64.666 45.5 93.999zM253.001 264.999c0 12 -4.66797 17.999 -14.001 17.999c-27.333 0 -64.166 -32 -110.499 -96s-69.5 -111.667 -69.5 -143c0 -12 5.33301 -18 16 -18
c17.333 0 52.333 33 105 99c24 30.667 42.167 58.334 54.5 83.001s18.5 43.667 18.5 57z" />
    <glyph glyph-name="ccedilla" unicode="&#xe7;" horiz-adv-x="262" 
d="M253 256c0 -16.667 -4.83105 -29.4971 -14.498 -38.4971s-19.834 -13.5 -30.501 -13.5c-20 0 -30 9.66699 -30 29c0 9.33301 5.16699 18.166 15.5 26.499s15.5 14.5 15.5 18.5c0 6.66699 -3.33301 10 -10 10c-22.667 0 -50.334 -34 -83.001 -102
c-30 -64 -45 -111 -45 -141c0 -14.667 6.33301 -22 19 -22c16.667 0 37.334 10.667 62.001 32c20.667 17.333 35 32.666 43 45.999c3.33301 1.33301 6.83301 0.5 10.5 -2.5s5.5 -6.83301 5.5 -11.5c-16 -23.333 -35.333 -43 -58 -59c-26.667 -19.333 -51.667 -29 -75 -29
l-33 -47h13c41.333 0 62 -11.333 62 -34s-14 -41.334 -42 -56.001c-22.667 -11.333 -46.334 -17 -71.001 -17c-13.333 0 -23.333 0.666992 -30 2c-4 1.33301 -5.66699 3.33301 -5 6c0.666992 3.33301 2.66699 5 6 5c60 -4 94.667 11.667 104 47
c0.666992 3.33301 1 6.33301 1 9c0 14 -10.667 21 -32 21h-24l-5 10l40 57c-31.333 7.33301 -47 34 -47 80c0 48 21.167 98 63.5 150s83.833 78 124.5 78c33.333 0 50 -18 50 -54z" />
    <glyph glyph-name="egrave" unicode="&#xe8;" horiz-adv-x="264" 
d="M261 265c0 -43.333 -25 -82.334 -75 -117.001c-40 -26.667 -76.667 -41.667 -110 -45c-8 -21.333 -12 -37.666 -12 -48.999c0 -23.333 12.333 -35 37 -35c20 0 42.667 9 68 27c20 14.667 35.333 29.334 46 44.001c8.66699 4.66699 14 1.66699 16 -9
c-11.333 -16 -27 -31.667 -47 -47c-31.333 -22.667 -62 -34 -92 -34c-51.333 0 -77 25.333 -77 76c0 51.333 22.333 103.166 67 155.499s86.667 78.5 126 78.5c35.333 0 53 -15 53 -45zM220 270.999c0 12.667 -4.66699 19.001 -14 19.001c-14 0 -34 -18.667 -60 -56
c-24 -33.333 -44.667 -69.666 -62 -108.999c30 1.33301 60.167 18.666 90.5 51.999s45.5 64.666 45.5 93.999zM255 346c0 -1.33301 -1.66699 -2.33301 -5 -3c-10.667 0 -31.667 15 -63 45c-33.333 32 -50 57.333 -50 76c0 12 6.66699 18 20 18c12.667 0 22 -9.33301 28 -28
c8 -30 15.5 -50 22.5 -60s17.167 -20.333 30.5 -31c11.333 -9.33301 17 -15 17 -17z" />
    <glyph glyph-name="eacute" unicode="&#xe9;" horiz-adv-x="264" 
d="M257 265c0 -43.333 -25 -82.334 -75 -117.001c-40 -26.667 -76.667 -41.667 -110 -45c-8 -21.333 -12 -37.666 -12 -48.999c0 -23.333 12.333 -35 37 -35c20 0 42.667 9 68 27c20 14.667 35.333 29.334 46 44.001c8.66699 4.66699 14 1.66699 16 -9
c-11.333 -16 -27 -31.667 -47 -47c-31.333 -22.667 -62 -34 -92 -34c-51.333 0 -77 25.333 -77 76c0 51.333 22.333 103.166 67 155.499s86.667 78.5 126 78.5c35.333 0 53 -15 53 -45zM216 270.999c0 12.667 -4.66699 19.001 -14 19.001c-14 0 -34 -18.667 -60 -56
c-24 -33.333 -44.667 -69.666 -62 -108.999c30 1.33301 60.167 18.666 90.5 51.999s45.5 64.666 45.5 93.999zM304 461c0 -18.667 -14.999 -43.999 -44.999 -75.999c-28 -29.333 -47.333 -44 -58 -44h-8c-4 0.666992 -6 1.66699 -6 3s6.16699 7.16602 18.5 17.499
s22 20.5 29 30.5s14.5 29.667 22.5 59c5.33301 19.333 14.666 29 27.999 29c12.667 0 19 -6.33301 19 -19z" />
    <glyph glyph-name="ecircumflex" unicode="&#xea;" horiz-adv-x="264" 
d="M261 265c0 -43.333 -25 -82.334 -75 -117.001c-40 -26.667 -76.667 -41.667 -110 -45c-8 -21.333 -12 -37.666 -12 -48.999c0 -23.333 12.333 -35 37 -35c20 0 42.667 9 68 27c20 14.667 35.333 29.334 46 44.001c8.66699 4.66699 14 1.66699 16 -9
c-11.333 -16 -27 -31.667 -47 -47c-31.333 -22.667 -62 -34 -92 -34c-51.333 0 -77 25.333 -77 76c0 51.333 22.333 103.166 67 155.499s86.667 78.5 126 78.5c35.333 0 53 -15 53 -45zM220 270.999c0 12.667 -4.66699 19.001 -14 19.001c-14 0 -34 -18.667 -60 -56
c-24 -33.333 -44.667 -69.666 -62 -108.999c30 1.33301 60.167 18.666 90.5 51.999s45.5 64.666 45.5 93.999zM300 338c-0.666992 -0.666992 -1.33301 -0.999023 -2 -0.999023c-6.66699 0 -18 13 -34 39c-14 23.333 -22.333 40 -25 50
c-20 -18.667 -43.667 -38.167 -71 -58.5s-43 -30.5 -47 -30.5c-2 0 -3 0.333008 -3 1c0 1.33301 15.333 16.666 46 45.999c36 33.333 63.333 64 82 92h12c2.66699 -28 10.167 -58.5 22.5 -91.5s18.833 -48.5 19.5 -46.5z" />
    <glyph glyph-name="edieresis" unicode="&#xeb;" horiz-adv-x="264" 
d="M261 265c0 -43.333 -25 -82.334 -75 -117.001c-40 -26.667 -76.667 -41.667 -110 -45c-8 -21.333 -12 -37.666 -12 -48.999c0 -23.333 12.333 -35 37 -35c20 0 42.667 9 68 27c20 14.667 35.333 29.334 46 44.001c8.66699 4.66699 14 1.66699 16 -9
c-11.333 -16 -27 -31.667 -47 -47c-31.333 -22.667 -62 -34 -92 -34c-51.333 0 -77 25.333 -77 76c0 51.333 22.333 103.166 67 155.499s86.667 78.5 126 78.5c35.333 0 53 -15 53 -45zM220 270.999c0 12.667 -4.66699 19.001 -14 19.001c-14 0 -34 -18.667 -60 -56
c-24 -33.333 -44.667 -69.666 -62 -108.999c30 1.33301 60.167 18.666 90.5 51.999s45.5 64.666 45.5 93.999zM305 393c0 -24.667 -11.333 -37 -34 -37c-14 0 -21 8 -21 24c0 22.667 10 34 30 34c16.667 0 25 -7 25 -21zM202 393c0 -24.667 -11 -37 -33 -37
c-14 0 -21 8 -21 24c0 22.667 10 34 30 34c16 0 24 -7 24 -21z" />
    <glyph glyph-name="igrave" unicode="&#xec;" horiz-adv-x="210" 
d="M192 294l-65.002 -132c-34.667 -71.333 -52 -113 -52 -125c0 -8.66699 3.66699 -13 11 -13c10 0 25 8.33301 45 25c16.667 13.333 29.334 25.666 38.001 36.999c2 0.666992 4.66699 -0.166016 8 -2.49902s4.66602 -5.16602 3.99902 -8.49902
c-9.33301 -13.333 -22.333 -27.333 -39 -42c-26.667 -22.667 -51 -34 -73 -34c-33.333 0 -50 16 -50 48c0 13.333 15.667 54.666 47 123.999l44 95c2.66699 7.33301 0.333984 11 -6.99902 11c-14.667 0 -22 5 -22 15s5.66699 14.667 17 14c28.667 -2 56 -0.666992 82 4
c4.66699 0.666992 8.33398 -0.5 11.001 -3.5s3 -7.16699 1 -12.5zM205.998 346c0 -1.33301 -1.33301 -2.33301 -4 -3c-11.333 0 -32.666 15 -63.999 45c-33.333 32 -50 57.333 -50 76c0 12 6.66699 18 20 18s22.666 -9.33301 27.999 -28c8 -30 15.5 -50 22.5 -60
s17.167 -20.333 30.5 -31c11.333 -9.33301 17 -15 17 -17z" />
    <glyph glyph-name="iacute" unicode="&#xed;" horiz-adv-x="210" 
d="M192 294l-65.002 -132c-34.667 -71.333 -52 -113 -52 -125c0 -8.66699 3.66699 -13 11 -13c10 0 25 8.33301 45 25c16.667 13.333 29.334 25.666 38.001 36.999c2 0.666992 4.66699 -0.166016 8 -2.49902s4.66602 -5.16602 3.99902 -8.49902
c-9.33301 -13.333 -22.333 -27.333 -39 -42c-26.667 -22.667 -51 -34 -73 -34c-33.333 0 -50 16 -50 48c0 13.333 15.667 54.666 47 123.999l44 95c2.66699 7.33301 0.333984 11 -6.99902 11c-14.667 0 -22 5 -22 15s5.66699 14.667 17 14c28.667 -2 56 -0.666992 82 4
c4.66699 0.666992 8.33398 -0.5 11.001 -3.5s3 -7.16699 1 -12.5zM230.998 461c0 -18.667 -16.666 -43.999 -49.999 -75.999c-31.333 -29.333 -52.333 -44 -63 -44c-3.33301 0.666992 -5 1.66699 -5 3s6.16699 7.16602 18.5 17.499s22 20.5 29 30.5s14.5 29.667 22.5 59
c5.33301 19.333 14.666 29 27.999 29s20 -6.33301 20 -19z" />
    <glyph glyph-name="icircumflex" unicode="&#xee;" horiz-adv-x="210" 
d="M192 294l-65.002 -132c-34.667 -71.333 -52 -113 -52 -125c0 -8.66699 3.66699 -13 11 -13c10 0 25 8.33301 45 25c16.667 13.333 29.334 25.666 38.001 36.999c2 0.666992 4.66699 -0.166016 8 -2.49902s4.66602 -5.16602 3.99902 -8.49902
c-9.33301 -13.333 -22.333 -27.333 -39 -42c-26.667 -22.667 -51 -34 -73 -34c-33.333 0 -50 16 -50 48c0 13.333 15.667 54.666 47 123.999l44 95c2.66699 7.33301 0.333984 11 -6.99902 11c-14.667 0 -22 5 -22 15s5.66699 14.667 17 14c28.667 -2 56 -0.666992 82 4
c4.66699 0.666992 8.33398 -0.5 11.001 -3.5s3 -7.16699 1 -12.5zM246.998 338c-0.666992 -0.666992 -1.33398 -0.999023 -2.00098 -0.999023c-6.66699 0 -17.667 13 -33 39c-14 23.333 -22.667 40 -26 50c-20 -18.667 -43.667 -38.167 -71 -58.5s-43 -30.5 -47 -30.5
c-2 0 -3 0.333008 -3 1c0 1.33301 15.667 16.666 47 45.999c35.333 33.333 62.333 64 81 92h12c2.66699 -28 10.334 -58.5 23.001 -91.5s19 -48.5 19 -46.5z" />
    <glyph glyph-name="idieresis" unicode="&#xef;" horiz-adv-x="210" 
d="M192 294l-65.002 -132c-34.667 -71.333 -52 -113 -52 -125c0 -8.66699 3.66699 -13 11 -13c10 0 25 8.33301 45 25c16.667 13.333 29.334 25.666 38.001 36.999c2 0.666992 4.66699 -0.166016 8 -2.49902s4.66602 -5.16602 3.99902 -8.49902
c-9.33301 -13.333 -22.333 -27.333 -39 -42c-26.667 -22.667 -51 -34 -73 -34c-33.333 0 -50 16 -50 48c0 13.333 15.667 54.666 47 123.999l44 95c2.66699 7.33301 0.333984 11 -6.99902 11c-14.667 0 -22 5 -22 15s5.66699 14.667 17 14c28.667 -2 56 -0.666992 82 4
c4.66699 0.666992 8.33398 -0.5 11.001 -3.5s3 -7.16699 1 -12.5zM245.998 393c0 -24.667 -11.333 -37 -34 -37c-14 0 -21 8 -21 24c0 22.667 10 34 30 34c16.667 0 25 -7 25 -21zM142.998 393c0 -24.667 -11 -37 -33 -37c-14 0 -21 8 -21 24c0 22.667 10 34 30 34
c16 0 24 -7 24 -21z" />
    <glyph glyph-name="eth" unicode="&#xf0;" horiz-adv-x="302" 
d="M293 141c-11.333 -11.333 -24.001 -17 -38.001 -17c-2 0 -5 0.333008 -9 1c-19.333 -35.333 -44 -65.166 -74 -89.499s-57.667 -36.5 -83 -36.5c-51.333 0 -77 25.667 -77 77c0 60.667 23.667 115.667 71 165c45.333 47.333 91.666 71 138.999 71
c0 29.333 -10.667 62.666 -32 99.999c-20.667 34.667 -43.667 62.667 -69 84l-34 -33l-12 12l32 31c-9.33301 6 -29 13 -59 21c-21.333 5.33301 -32 13.333 -32 24c0 18 7.66699 27 23 27c31.333 0 63 -15.333 95 -46l33 32l12 -12l-33 -32c24.667 -26 46 -57.667 64 -95
c20 -41.333 30 -77.333 30 -108c0 -14 -4.66699 -21 -14 -21c-37.333 0 -75 -32.667 -113 -98c-34.667 -60 -52 -110.333 -52 -151c0 -21.333 10 -32 30 -32c18 0 38.833 12.333 62.5 37s43.834 53.667 60.501 87c-21.333 16 -32 38.333 -32 67c0 25.333 5.66699 45 17 59
c10 12 21 18 33 18c28.667 0 43 -19 43 -57c0 -26.667 -7 -54.667 -21 -84c4.66699 -0.666992 7.33398 -1 8.00098 -1c8 0 16.333 3.66699 25 11c6.66699 -1.33301 8.66699 -5 6 -11zM241.999 231c0 22.667 -4.66699 34 -14 34c-12 0 -18 -18.667 -18 -56
c0 -24 4.33301 -41.333 13 -52c12.667 29.333 19 54 19 74z" />
    <glyph glyph-name="ntilde" unicode="&#xf1;" horiz-adv-x="347" 
d="M326 297c0 2 -4.66895 -6.33398 -14.002 -25.001c-14 -28 -32.667 -68.333 -56 -121c-29.333 -66 -44 -104 -44 -114s6 -15 18 -15c24 0 48.333 21.333 73 64c12.667 4 19 2 19 -6c-9.33301 -16.667 -21.666 -32.667 -36.999 -48c-23.333 -22 -45.333 -33 -66 -33
c-38 0 -57 15 -57 45c0 21.333 10.333 56 31 104c14.667 33.333 27.667 59.666 39 78.999l-4 5c-16 -9.33301 -48.333 -45 -97 -107c-31.333 -40.667 -56.666 -74.667 -75.999 -102c-9.33301 -14 -23 -21 -41 -21c-8 0 -12 4 -12 12c0 1.33301 18.333 41 55 119
c32 68.667 48 109.334 48 122.001s-4.66699 19 -14 19c-3.33301 0 -16.333 -3.66699 -39 -11c-7.33301 2.66699 -9.66602 8 -6.99902 16c25.333 18.667 52.666 28 81.999 28c9.33301 0 17.833 -3.16699 25.5 -9.5s11.5 -15.166 11.5 -26.499c0 -20.667 -17 -65 -51 -133
l4 -2c19.333 26.667 46 57.5 80 92.5s58.333 57 73 66s29.667 13.5 45 13.5c7.33301 0 11 -3.66699 11 -11zM344.998 399.999c-1.33301 -8.66699 -6.66699 -18.668 -16 -30.001c-13.333 -16 -30.333 -23 -51 -21c-12 1.33301 -28.833 7.5 -50.5 18.5
s-38.5 17.167 -50.5 18.5c-12.667 1.33301 -23.667 -3.16699 -33 -13.5s-14.333 -15.166 -15 -14.499c-2 0 -2.66699 1.66699 -2 5c0.666992 7.33301 6.33398 17.333 17.001 30c13.333 16.667 27.666 24 42.999 22c12 -1.33301 29.833 -8 53.5 -20s41.5 -18.333 53.5 -19
c14.667 -2 26.167 2.5 34.5 13.5s12.833 16.5 13.5 16.5c2 0 3 -2 3 -6z" />
    <glyph glyph-name="ograve" unicode="&#xf2;" 
d="M301 141c-11.333 -11.333 -24.002 -17.001 -38.002 -17.001c-2 0 -5 0.333008 -9 1c-19.333 -35.333 -44 -65.166 -74 -89.499s-57.667 -36.5 -83 -36.5c-51.333 0 -77 25.667 -77 77c0 55.333 22 108.5 66 159.5s93.333 76.5 148 76.5c9.33301 0 14 -2 14 -6
c0 -6.66699 -4.66699 -10 -14 -10c-37.333 0 -75 -32.667 -113 -98c-34.667 -60 -52 -110.333 -52 -151c0 -21.333 10 -32 30 -32c18 0 38.833 12.333 62.5 37s43.834 53.667 60.501 87c-21.333 16 -32 38.333 -32 67c0 25.333 5.66699 45 17 59c10 12 21 18 33 18
c28.667 0 43 -19 43 -57c0 -26.667 -7 -54.667 -21 -84c4.66699 -0.666992 7.33398 -1 8.00098 -1c8 0 16.333 3.66699 25 11c6.66699 -1.33301 8.66699 -5 6 -11zM249.998 230.999c0 22.667 -4.66699 34 -14 34c-12 0 -18 -18.667 -18 -56c0 -24 4.33301 -41.333 13 -52
c12.667 29.333 19 54 19 74zM265.998 345.999c0 -1.33301 -1.33301 -2.33301 -4 -3c-11.333 0 -32.666 15 -63.999 45c-33.333 32 -50 57.333 -50 76c0 12 6.66699 18 20 18s22.666 -9.33301 27.999 -28c8 -30 15.5 -50 22.5 -60s17.167 -20.333 30.5 -31
c11.333 -9.33301 17 -15 17 -17z" />
    <glyph glyph-name="oacute" unicode="&#xf3;" 
d="M301 141c-11.333 -11.333 -24.002 -17.001 -38.002 -17.001c-2 0 -5 0.333008 -9 1c-19.333 -35.333 -44 -65.166 -74 -89.499s-57.667 -36.5 -83 -36.5c-51.333 0 -77 25.667 -77 77c0 55.333 22 108.5 66 159.5s93.333 76.5 148 76.5c9.33301 0 14 -2 14 -6
c0 -6.66699 -4.66699 -10 -14 -10c-37.333 0 -75 -32.667 -113 -98c-34.667 -60 -52 -110.333 -52 -151c0 -21.333 10 -32 30 -32c18 0 38.833 12.333 62.5 37s43.834 53.667 60.501 87c-21.333 16 -32 38.333 -32 67c0 25.333 5.66699 45 17 59c10 12 21 18 33 18
c28.667 0 43 -19 43 -57c0 -26.667 -7 -54.667 -21 -84c4.66699 -0.666992 7.33398 -1 8.00098 -1c8 0 16.333 3.66699 25 11c6.66699 -1.33301 8.66699 -5 6 -11zM249.998 230.999c0 22.667 -4.66699 34 -14 34c-12 0 -18 -18.667 -18 -56c0 -24 4.33301 -41.333 13 -52
c12.667 29.333 19 54 19 74zM321.998 460.999c0 -18.667 -16.666 -43.999 -49.999 -75.999c-30.667 -29.333 -51.667 -44 -63 -44c-2.66699 0.666992 -4 1.66699 -4 3s6.16699 7.16602 18.5 17.499s22 20.5 29 30.5s14.5 29.667 22.5 59c5.33301 19.333 14.666 29 27.999 29
c12.667 0 19 -6.33301 19 -19z" />
    <glyph glyph-name="ocircumflex" unicode="&#xf4;" 
d="M301 141c-11.333 -11.333 -24.002 -17.001 -38.002 -17.001c-2 0 -5 0.333008 -9 1c-19.333 -35.333 -44 -65.166 -74 -89.499s-57.667 -36.5 -83 -36.5c-51.333 0 -77 25.667 -77 77c0 55.333 22 108.5 66 159.5s93.333 76.5 148 76.5c9.33301 0 14 -2 14 -6
c0 -6.66699 -4.66699 -10 -14 -10c-37.333 0 -75 -32.667 -113 -98c-34.667 -60 -52 -110.333 -52 -151c0 -21.333 10 -32 30 -32c18 0 38.833 12.333 62.5 37s43.834 53.667 60.501 87c-21.333 16 -32 38.333 -32 67c0 25.333 5.66699 45 17 59c10 12 21 18 33 18
c28.667 0 43 -19 43 -57c0 -26.667 -7 -54.667 -21 -84c4.66699 -0.666992 7.33398 -1 8.00098 -1c8 0 16.333 3.66699 25 11c6.66699 -1.33301 8.66699 -5 6 -11zM249.998 230.999c0 22.667 -4.66699 34 -14 34c-12 0 -18 -18.667 -18 -56c0 -24 4.33301 -41.333 13 -52
c12.667 29.333 19 54 19 74zM320.998 337.999c-0.666992 -0.666992 -1.33398 -0.999023 -2.00098 -0.999023c-6.66699 0 -17.667 13 -33 39c-14 23.333 -22.667 40 -26 50c-20 -18.667 -43.667 -38.167 -71 -58.5s-43 -30.5 -47 -30.5c-2 0 -3 0.333008 -3 1
c0 1.33301 15.667 16.666 47 45.999c35.333 33.333 62.333 64 81 92h12c2.66699 -28 10.334 -58.5 23.001 -91.5s19 -48.5 19 -46.5z" />
    <glyph glyph-name="otilde" unicode="&#xf5;" 
d="M301 141c-11.333 -11.333 -24.002 -17.001 -38.002 -17.001c-2 0 -5 0.333008 -9 1c-19.333 -35.333 -44 -65.166 -74 -89.499s-57.667 -36.5 -83 -36.5c-51.333 0 -77 25.667 -77 77c0 55.333 22 108.5 66 159.5s93.333 76.5 148 76.5c9.33301 0 14 -2 14 -6
c0 -6.66699 -4.66699 -10 -14 -10c-37.333 0 -75 -32.667 -113 -98c-34.667 -60 -52 -110.333 -52 -151c0 -21.333 10 -32 30 -32c18 0 38.833 12.333 62.5 37s43.834 53.667 60.501 87c-21.333 16 -32 38.333 -32 67c0 25.333 5.66699 45 17 59c10 12 21 18 33 18
c28.667 0 43 -19 43 -57c0 -26.667 -7 -54.667 -21 -84c4.66699 -0.666992 7.33398 -1 8.00098 -1c8 0 16.333 3.66699 25 11c6.66699 -1.33301 8.66699 -5 6 -11zM249.998 230.999c0 22.667 -4.66699 34 -14 34c-12 0 -18 -18.667 -18 -56c0 -24 4.33301 -41.333 13 -52
c12.667 29.333 19 54 19 74zM351.998 387.999c-0.666992 -9.33301 -5.66797 -19.333 -15.001 -30c-13.333 -16.667 -30.666 -23.667 -51.999 -21c-12 1.33301 -28.833 7.5 -50.5 18.5s-38.5 17.167 -50.5 18.5s-22.667 -3.16699 -32 -13.5s-14.333 -15.5 -15 -15.5
c-2 0 -3 2 -3 6c1.33301 7.33301 7 17.333 17 30c13.333 16 27.666 23.333 42.999 22c12.667 -1.33301 30.834 -8 54.501 -20s41.5 -18.667 53.5 -20c14.667 -1.33301 26.167 3.5 34.5 14.5s12.833 16.5 13.5 16.5c2 -0.666992 2.66699 -2.66699 2 -6z" />
    <glyph glyph-name="odieresis" unicode="&#xf6;" 
d="M301 141c-11.333 -11.333 -24.002 -17.001 -38.002 -17.001c-2 0 -5 0.333008 -9 1c-19.333 -35.333 -44 -65.166 -74 -89.499s-57.667 -36.5 -83 -36.5c-51.333 0 -77 25.667 -77 77c0 55.333 22 108.5 66 159.5s93.333 76.5 148 76.5c9.33301 0 14 -2 14 -6
c0 -6.66699 -4.66699 -10 -14 -10c-37.333 0 -75 -32.667 -113 -98c-34.667 -60 -52 -110.333 -52 -151c0 -21.333 10 -32 30 -32c18 0 38.833 12.333 62.5 37s43.834 53.667 60.501 87c-21.333 16 -32 38.333 -32 67c0 25.333 5.66699 45 17 59c10 12 21 18 33 18
c28.667 0 43 -19 43 -57c0 -26.667 -7 -54.667 -21 -84c4.66699 -0.666992 7.33398 -1 8.00098 -1c8 0 16.333 3.66699 25 11c6.66699 -1.33301 8.66699 -5 6 -11zM249.998 230.999c0 22.667 -4.66699 34 -14 34c-12 0 -18 -18.667 -18 -56c0 -24 4.33301 -41.333 13 -52
c12.667 29.333 19 54 19 74zM322.998 392.999c0 -24.667 -11.333 -37 -34 -37c-14 0 -21 8 -21 24c0 22.667 10 34 30 34c16.667 0 25 -7 25 -21zM219.998 392.999c0 -24.667 -11 -37 -33 -37c-14 0 -21 8 -21 24c0 22.667 10 34 30 34c16 0 24 -7 24 -21z" />
    <glyph glyph-name="oslash" unicode="&#xf8;" horiz-adv-x="302" 
d="M293 141c-11.333 -11.333 -24.002 -17.002 -38.002 -17.002c-2 0 -5 0.333008 -9 1c-19.333 -35.333 -44 -65.166 -74 -89.499s-57.667 -36.5 -83 -36.5c-17.333 0 -32 3 -44 9l-35 -43v29l21 26c-12.667 13.333 -19 32 -19 56c0 55.333 22 108.5 66 159.5
s93.333 76.5 148 76.5c9.33301 0 14 -2 14 -6c0 -6.66699 -4.66699 -10 -14 -10c-36 0 -72.667 -31.333 -110 -94c-33.333 -55.333 -51.666 -103.666 -54.999 -144.999l121 149c0 25.333 6 45.333 18 60c9.33301 11.333 20 17 32 17c4 0 7.66699 -0.333008 11 -1l46 56v-29
l-29 -36c10 -10 15 -25.667 15 -47c0 -26.667 -7 -54.667 -21 -84c4.66699 -0.666992 7.33398 -1 8.00098 -1c8 0 16.333 3.66699 25 11c6.66699 -1.33301 8.66699 -5 6 -11zM241.998 230.998c0 7.33301 -0.666992 13.333 -2 18l-30 -37v-3c0 -24 4.33301 -41.333 13 -52
c12.667 29.333 19 54 19 74zM213.998 138.998c-14.667 10.667 -24.334 24.667 -29.001 42l-122 -150c4 -10.667 13.333 -16 28 -16c18 0 38.833 12.333 62.5 37s43.834 53.667 60.501 87z" />
    <glyph glyph-name="ugrave" unicode="&#xf9;" horiz-adv-x="360" 
d="M339 296c-74 -140 -110.999 -226.003 -110.999 -258.003c0 -10.667 3.33301 -16 10 -16c10 0 24.167 9.83301 42.5 29.5s30.166 35.834 35.499 48.501c10 4 16.667 2.66699 20 -4c-7.33301 -16.667 -21 -35.334 -41 -56.001c-26 -27.333 -51.333 -41 -76 -41
c-10 0 -19 4 -27 12c-10 8.66699 -15 20.334 -15 35.001s5.66699 37.334 17 68.001c-58.667 -76 -103 -114 -133 -114s-45 14.667 -45 44c0 16.667 13.667 54.334 41 113.001l51 109c2.66699 7.33301 0 11 -8 11c-14.667 0 -22 5 -22 15s6 14.667 18 14
c28 -2 55 -0.666992 81 4c5.33301 1.33301 9.33301 0.333008 12 -3c2.66699 -2.66699 2.66699 -6.66699 0 -12l-60 -121c-37.333 -76.667 -56 -120.667 -56 -132c0 -6 3.33301 -9 10 -9c16.667 0 65.667 55 147 165l46 93c5.33301 11.333 11.333 17 18 17
c2.66699 0 8.16699 0.333008 16.5 1s13.833 1 16.5 1c12.667 0 16.667 -4.66699 12 -14zM272.001 345.997c0 -1.33301 -1.33301 -2.33301 -4 -3c-11.333 0 -32.666 15 -63.999 45c-33.333 32 -50 57.333 -50 76c0 12 6.66699 18 20 18s22.666 -9.33301 27.999 -28
c8 -30 15.5 -50 22.5 -60s17.167 -20.333 30.5 -31c11.333 -9.33301 17 -15 17 -17z" />
    <glyph glyph-name="uacute" unicode="&#xfa;" horiz-adv-x="360" 
d="M339 296c-74 -140 -110.999 -226.003 -110.999 -258.003c0 -10.667 3.33301 -16 10 -16c10 0 24.167 9.83301 42.5 29.5s30.166 35.834 35.499 48.501c10 4 16.667 2.66699 20 -4c-7.33301 -16.667 -21 -35.334 -41 -56.001c-26 -27.333 -51.333 -41 -76 -41
c-10 0 -19 4 -27 12c-10 8.66699 -15 20.334 -15 35.001s5.66699 37.334 17 68.001c-58.667 -76 -103 -114 -133 -114s-45 14.667 -45 44c0 16.667 13.667 54.334 41 113.001l51 109c2.66699 7.33301 0 11 -8 11c-14.667 0 -22 5 -22 15s6 14.667 18 14
c28 -2 55 -0.666992 81 4c5.33301 1.33301 9.33301 0.333008 12 -3c2.66699 -2.66699 2.66699 -6.66699 0 -12l-60 -121c-37.333 -76.667 -56 -120.667 -56 -132c0 -6 3.33301 -9 10 -9c16.667 0 65.667 55 147 165l46 93c5.33301 11.333 11.333 17 18 17
c2.66699 0 8.16699 0.333008 16.5 1s13.833 1 16.5 1c12.667 0 16.667 -4.66699 12 -14zM349.001 460.997c0 -18.667 -16.667 -43.999 -50 -75.999c-31.333 -29.333 -52.666 -44 -63.999 -44c-2.66699 0.666992 -4 1.66699 -4 3s6.16699 7.16602 18.5 17.499
s22 20.5 29 30.5s14.5 29.667 22.5 59c5.33301 19.333 14.666 29 27.999 29s20 -6.33301 20 -19z" />
    <glyph glyph-name="ucircumflex" unicode="&#xfb;" horiz-adv-x="360" 
d="M339 296c-74 -140 -110.999 -226.003 -110.999 -258.003c0 -10.667 3.33301 -16 10 -16c10 0 24.167 9.83301 42.5 29.5s30.166 35.834 35.499 48.501c10 4 16.667 2.66699 20 -4c-7.33301 -16.667 -21 -35.334 -41 -56.001c-26 -27.333 -51.333 -41 -76 -41
c-10 0 -19 4 -27 12c-10 8.66699 -15 20.334 -15 35.001s5.66699 37.334 17 68.001c-58.667 -76 -103 -114 -133 -114s-45 14.667 -45 44c0 16.667 13.667 54.334 41 113.001l51 109c2.66699 7.33301 0 11 -8 11c-14.667 0 -22 5 -22 15s6 14.667 18 14
c28 -2 55 -0.666992 81 4c5.33301 1.33301 9.33301 0.333008 12 -3c2.66699 -2.66699 2.66699 -6.66699 0 -12l-60 -121c-37.333 -76.667 -56 -120.667 -56 -132c0 -6 3.33301 -9 10 -9c16.667 0 65.667 55 147 165l46 93c5.33301 11.333 11.333 17 18 17
c2.66699 0 8.16699 0.333008 16.5 1s13.833 1 16.5 1c12.667 0 16.667 -4.66699 12 -14zM326.001 337.997c-0.666992 -0.666992 -1.33398 -0.999023 -2.00098 -0.999023c-6.66699 0 -17.667 13 -33 39c-14 23.333 -22.667 40 -26 50c-20 -18.667 -43.667 -38.167 -71 -58.5
s-43 -30.5 -47 -30.5c-2 0 -3 0.333008 -3 1c0 1.33301 15.667 16.666 47 45.999c35.333 33.333 62.333 64 81 92h12c2.66699 -28 10.334 -58.5 23.001 -91.5s19 -48.5 19 -46.5z" />
    <glyph glyph-name="udieresis" unicode="&#xfc;" horiz-adv-x="360" 
d="M339 296c-74 -140 -110.999 -226.003 -110.999 -258.003c0 -10.667 3.33301 -16 10 -16c10 0 24.167 9.83301 42.5 29.5s30.166 35.834 35.499 48.501c10 4 16.667 2.66699 20 -4c-7.33301 -16.667 -21 -35.334 -41 -56.001c-26 -27.333 -51.333 -41 -76 -41
c-10 0 -19 4 -27 12c-10 8.66699 -15 20.334 -15 35.001s5.66699 37.334 17 68.001c-58.667 -76 -103 -114 -133 -114s-45 14.667 -45 44c0 16.667 13.667 54.334 41 113.001l51 109c2.66699 7.33301 0 11 -8 11c-14.667 0 -22 5 -22 15s6 14.667 18 14
c28 -2 55 -0.666992 81 4c5.33301 1.33301 9.33301 0.333008 12 -3c2.66699 -2.66699 2.66699 -6.66699 0 -12l-60 -121c-37.333 -76.667 -56 -120.667 -56 -132c0 -6 3.33301 -9 10 -9c16.667 0 65.667 55 147 165l46 93c5.33301 11.333 11.333 17 18 17
c2.66699 0 8.16699 0.333008 16.5 1s13.833 1 16.5 1c12.667 0 16.667 -4.66699 12 -14zM323.001 392.997c0 -24.667 -11.333 -37 -34 -37c-14 0 -21 8 -21 24c0 22.667 10 34 30 34c16.667 0 25 -7 25 -21zM220.001 392.997c0 -24.667 -11 -37 -33 -37c-14 0 -21 8 -21 24
c0 22.667 10 34 30 34c16 0 24 -7 24 -21z" />
    <glyph glyph-name="yacute" unicode="&#xfd;" horiz-adv-x="320" 
d="M310 291c-3.33301 -7.33301 -31.6729 -84 -85.0059 -230c18.667 13.333 31.334 24.666 38.001 33.999c8 0 13.667 -4.33301 17 -13c-11.333 -13.333 -33.666 -31 -66.999 -53l-7 -20c-20 -53.333 -50.333 -103.666 -91 -150.999c-46.667 -53.333 -90 -80 -130 -80
c-28 0 -42 14 -42 42c0 16 9.33301 35.833 28 59.5s42 45.167 70 64.5c18.667 12.667 53.334 34.667 104.001 66l31 77c-14 -18 -32.333 -36 -55 -54c-28 -22.667 -49.667 -34 -65 -34c-13.333 0 -24.5 4.66699 -33.5 14s-13.5 20.666 -13.5 33.999
c0 19.333 16 57.333 48 114c34.667 61.333 52 96.666 52 105.999c0 10.667 -4.33301 16 -13 16c-7.33301 0 -20.666 -5.33301 -39.999 -16c-7.33301 2 -12 6.66699 -14 14c14.667 18.667 39.334 28 74.001 28c31.333 0 47 -13.667 47 -41
c0 -14.667 -18.167 -55.667 -54.5 -123s-54.5 -104.666 -54.5 -111.999s3.33301 -11 10 -11c20 0 49 21.667 87 65c32.667 38.667 54.334 70.334 65.001 95.001l41 100c6 12.667 12 19.667 18 21c9.33301 2 16 3 20 3c11.333 0 17 -3 17 -9
c0 -1.33301 -0.666992 -3.33301 -2 -6zM132.993 -21c-32.667 -20 -53.667 -33.667 -63 -41c-21.333 -18 -40 -37.667 -56 -59c-18.667 -24.667 -28 -44.334 -28 -59.001c0 -12 5.33301 -18 16 -18c17.333 0 38 15.833 62 47.5s44.333 67.834 61 108.501zM313.993 461
c0 -18.667 -14.999 -43.999 -44.999 -75.999c-28 -29.333 -47.333 -44 -58 -44h-8c-4 0.666992 -6 1.66699 -6 3s6.16699 7.16602 18.5 17.499s22 20.5 29 30.5s14.5 29.667 22.5 59c5.33301 19.333 14.666 29 27.999 29c12.667 0 19 -6.33301 19 -19z" />
    <glyph glyph-name="thorn" unicode="&#xfe;" 
d="M303 259c0 -46 -20.666 -99.667 -61.999 -161c-44.667 -66 -88.334 -99 -131.001 -99c-22.667 0 -41.334 6 -56.001 18c-28 -60.667 -63.667 -134 -107 -220c-2 -4 -7 -8.16699 -15 -12.5s-15.333 -6.5 -22 -6.5c-10.667 0 -16 4 -16 12c0 2.66699 0.666992 6 2 10
l303 691c2 4.66699 3 9 3 13c0 10.667 -4 16 -12 16c-3.33301 0 -11.333 -5.66699 -24 -17c-10.667 -4 -17 -0.333008 -19 11c18.667 28 43.334 42 74.001 42c23.333 0 35 -14 35 -42c0 -10 -18.667 -60 -56 -150c-34.667 -86 -59 -143 -73 -171
c50 77.333 91.667 116 125 116c34 0 51 -16.667 51 -50zM247.001 267c0 11.333 -3 16.999 -9 16.999c-10 0 -32.333 -23 -67 -69c-30.667 -41.333 -59 -83.666 -85 -126.999l-24 -55c9.33301 -8.66699 20 -13 32 -13c32 0 66.333 33.333 103 100
c33.333 60.667 50 109.667 50 147z" />
    <glyph glyph-name="ydieresis" unicode="&#xff;" horiz-adv-x="320" 
d="M310 291c-3.33301 -7.33301 -31.6729 -84 -85.0059 -230c18.667 13.333 31.334 24.666 38.001 33.999c8 0 13.667 -4.33301 17 -13c-11.333 -13.333 -33.666 -31 -66.999 -53l-7 -20c-20 -53.333 -50.333 -103.666 -91 -150.999c-46.667 -53.333 -90 -80 -130 -80
c-28 0 -42 14 -42 42c0 16 9.33301 35.833 28 59.5s42 45.167 70 64.5c18.667 12.667 53.334 34.667 104.001 66l31 77c-14 -18 -32.333 -36 -55 -54c-28 -22.667 -49.667 -34 -65 -34c-13.333 0 -24.5 4.66699 -33.5 14s-13.5 20.666 -13.5 33.999
c0 19.333 16 57.333 48 114c34.667 61.333 52 96.666 52 105.999c0 10.667 -4.33301 16 -13 16c-7.33301 0 -20.666 -5.33301 -39.999 -16c-7.33301 2 -12 6.66699 -14 14c14.667 18.667 39.334 28 74.001 28c31.333 0 47 -13.667 47 -41
c0 -14.667 -18.167 -55.667 -54.5 -123s-54.5 -104.666 -54.5 -111.999s3.33301 -11 10 -11c20 0 49 21.667 87 65c32.667 38.667 54.334 70.334 65.001 95.001l41 100c6 12.667 12 19.667 18 21c9.33301 2 16 3 20 3c11.333 0 17 -3 17 -9
c0 -1.33301 -0.666992 -3.33301 -2 -6zM132.993 -21c-32.667 -20 -53.667 -33.667 -63 -41c-21.333 -18 -40 -37.667 -56 -59c-18.667 -24.667 -28 -44.334 -28 -59.001c0 -12 5.33301 -18 16 -18c17.333 0 38 15.833 62 47.5s44.333 67.834 61 108.501zM306.993 393
c0 -24.667 -11 -37 -33 -37c-14 0 -21 8 -21 24c0 22.667 10 34 30 34c16 0 24 -7 24 -21zM204.993 393c0 -24.667 -11 -37 -33 -37c-14.667 0 -22 8 -22 24c0 22.667 10 34 30 34c16.667 0 25 -7 25 -21z" />
    <glyph glyph-name="dotlessi" unicode="&#x131;" horiz-adv-x="210" 
d="M189 294l-65.002 -132c-34.667 -71.333 -52 -113 -52 -125c0 -8.66699 3.66699 -13 11 -13c10 0 25 8.33301 45 25c16.667 13.333 29.334 25.666 38.001 36.999c2 0.666992 4.66699 -0.166016 8 -2.49902s4.66602 -5.16602 3.99902 -8.49902
c-9.33301 -13.333 -22.333 -27.333 -39 -42c-26.667 -22.667 -51 -34 -73 -34c-33.333 0 -50 16 -50 48c0 13.333 15.667 54.666 47 123.999l44 95c2.66699 7.33301 0.333984 11 -6.99902 11c-14.667 0 -22 5 -22 15s5.66699 14.667 17 14c28.667 -2 56 -0.666992 82 4
c4.66699 0.666992 8.33398 -0.5 11.001 -3.5s3 -7.16699 1 -12.5z" />
    <glyph glyph-name="Lslash" unicode="&#x141;" horiz-adv-x="1280" 
d="M1329 622c0 -104.667 -82.666 -199.666 -247.999 -284.999c-154 -80 -325 -127 -513 -141c-33.333 -38 -67.666 -66.667 -102.999 -86c2 0 5.33301 0.333008 10 1h10c84.667 0 170.334 -7 257.001 -21c40.667 -6.66699 104 -19.667 190 -39c62 -14 105.667 -21 131 -21
c74.667 0 125.667 12.667 153 38c14 -0.666992 20.333 -6 19 -16c-12.667 -14 -39.334 -26.667 -80.001 -38c-50.667 -13.333 -110 -20 -178 -20c-72 0 -176 14.667 -312 44s-207 44 -213 44c-20.667 0 -34.334 -2 -41.001 -6c-20 -12 -53.333 -26 -100 -42
c-66 -22 -125.333 -33 -178 -33c-46 0 -69 5.33301 -69 16c0 14 24.667 30 74 48c70 26 166.333 41 289 45c14 10.667 30.333 26.667 49 48c6 7.33301 14 19 24 35h-18c-102.667 0 -169.334 14.333 -200.001 43c-0.666992 2 -1 3.66699 -1 5c0 6.66699 6.66699 9.66699 20 9
c12 -8 39.5 -15.833 82.5 -23.5s81.5 -11.5 115.5 -11.5c-2.66699 0 2 0 14 0l95 174l-145 -50v33l168 58c16 29.333 30 52.666 42 69.999c44.667 64.667 97.667 118 159 160c88.667 60 187.667 90 297 90c70.667 0 123 -13 157 -39c28.667 -22 43 -51.667 43 -89z
M1278 633.001c0 64.667 -47.333 97 -142 97c-70.667 0 -143 -24 -217 -72c-68 -44.667 -121.333 -98.334 -160 -161.001l-17 -28l161 56v-33l-184 -64l-62 -106c-24.667 -40.667 -48 -75 -70 -103c113.333 10.667 225 39.667 335 87c104 44 189.333 96.333 256 157
s100 117.334 100 170.001z" />
    <glyph glyph-name="lslash" unicode="&#x142;" horiz-adv-x="220" 
d="M391 480l-69.001 -40.999c-14 -24 -29.667 -46 -47 -66c-41.333 -50.667 -86.333 -91.667 -135 -123c-57.333 -128.667 -86 -201.334 -86 -218.001c0 -10 4.66699 -15 14 -15c14 0 32.333 7.66699 55 23c19.333 12.667 32.333 23.667 39 33
c10 -1.33301 15 -5.33301 15 -12c-9.33301 -12 -22.666 -24 -39.999 -36c-26 -17.333 -51.667 -26 -77 -26c-35.333 0 -53 15.667 -53 47c0 37.333 33.333 126 100 266l-72 -43v30l92 55l26 48c26.667 47.333 55.667 88 87 122c36 38.667 66.667 58 92 58
c20.667 0 31 -12.333 31 -37c0 -16 -6 -36.667 -18 -62l46 27v-30zM326.999 546.001c0 7.33301 -3.00098 11 -9.00098 11c-8 0 -23.667 -16.5 -47 -49.5s-43.666 -67.833 -60.999 -104.5l78 46c26 46 39 78.333 39 97zM259.998 402.001l-69 -40.001l-33 -73
c40 32.667 74 70.334 102 113.001z" />
    <glyph glyph-name="OE" unicode="&#x152;" horiz-adv-x="1182" 
d="M1305 695c0 -49.333 -40.3311 -89.6641 -120.998 -120.997c-71.333 -28 -160 -44.333 -266 -49c-5.33301 -14 -8 -27 -8 -39c0 -15.333 4.66699 -27.333 14 -36c42 6 82.333 9 121 9c41.333 0 75.166 -2.83301 101.499 -8.5s39.5 -12.5 39.5 -20.5
c0 -8.66699 -12.833 -16.334 -38.5 -23.001s-54.167 -10 -85.5 -10c-53.333 0 -99.666 10 -138.999 30c-94 -22 -173 -62.833 -237 -122.5s-96 -120.5 -96 -182.5c0 -65.333 47.667 -98 143 -98c177.333 0 328 60.667 452 182c8.66699 0 11.667 -4.66699 9 -14
c-43.333 -59.333 -112.333 -107.333 -207 -144c-85.333 -33.333 -169 -50 -251 -50c-91.333 0 -155.333 23 -192 69c-92.667 -47.333 -188.334 -71 -287.001 -71c-17.333 0 -34.333 1.33301 -51 4c8 -22.667 21.333 -44.334 40 -65.001c0.666992 -4 -1.33301 -7.5 -6 -10.5
s-9.33398 -3.5 -14.001 -1.5c-22.667 21.333 -38.334 48.666 -47.001 81.999c-102 24 -153 89.667 -153 197c0 95.333 37.667 187.666 113 276.999c67.333 80 154.333 146 261 198c104 50 202 75 294 75c60.667 0 108 -7 142 -21c2 -3.33301 2 -6.66602 0 -9.99902
c-2.66699 -3.33301 -6 -5.33301 -10 -6c-29.333 10.667 -73.333 16 -132 16c-82 0 -172.333 -29.667 -271 -89c-96 -58 -176.333 -129.667 -241 -215c-69.333 -92 -104 -180 -104 -264c0 -70 32 -115.333 96 -136c-4 21.333 -6 45 -6 71c0 93.333 27.167 188 81.5 284
s123.833 174.333 208.5 235c90.667 64.667 182.667 97 276 97c88 0 144 -29.333 168 -88c32.667 36.667 76.834 67 132.501 91s111.5 36 167.5 36c68.667 0 103 -19.333 103 -58zM1266 703.002c0 20.667 -16.334 31 -49.001 31c-53.333 0 -109.666 -20 -168.999 -60
c-56.667 -38.667 -97 -81.667 -121 -129c78 4 154 23 228 57s111 67.667 111 101zM896.001 445.002c-27.333 22.667 -40.334 50.665 -39.001 83.998c0.666992 24 8.66699 47.333 24 70c-6 30 -23 53.667 -51 71c-25.333 15.333 -57.333 23 -96 23c-82 0 -167 -35 -255 -105
c-80 -64 -147.5 -144.667 -202.5 -242s-82.5 -186.333 -82.5 -267c0 -20.667 2 -40 6 -58c11.333 -2 22 -3 32 -3c97.333 0 194 28.667 290 86c-7.33301 18.667 -11 39 -11 61c0 68.667 39.667 129.334 119 182.001c70.667 46.667 159.334 79.334 266.001 98.001z" />
    <glyph glyph-name="oe" unicode="&#x153;" horiz-adv-x="435" 
d="M426 265c0 -43.333 -25.334 -82.335 -76.001 -117.002c-40 -26.667 -76.667 -41.667 -110 -45c-7.33301 -21.333 -11 -37.666 -11 -48.999c0 -23.333 12 -35 36 -35c20 0 42.667 9 68 27c20.667 14.667 36 29.334 46 44.001c8.66699 4.66699 14.334 1.66699 17.001 -9
c-12 -16 -28 -31.667 -48 -47c-31.333 -22.667 -61.666 -34 -90.999 -34c-40 0 -64.333 15 -73 45c-34 -30.667 -65.667 -46 -95 -46c-51.333 0 -77 25.667 -77 77c0 55.333 22 108.5 66 159.5s93.333 76.5 148 76.5c9.33301 0 14 -2 14 -6c0 -6.66699 -4.66699 -10 -14 -10
c-37.333 0 -75 -32.667 -113 -98c-34.667 -60 -52 -110.333 -52 -151c0 -21.333 10 -32 30 -32c25.333 0 55 23 89 69c0.666992 22 6.66699 45.667 18 71c-10.667 14 -16 31 -16 51c0 25.333 5.66699 45 17 59c10 12 21 18 33 18c18 0 30.667 -9 38 -27
c37.333 36 71.666 54 102.999 54c35.333 0 53 -15 53 -45zM383.999 270.998c0 12.667 -4.66699 19.001 -14 19.001c-14 0 -34 -18.667 -60 -56c-24 -33.333 -44.333 -69.666 -61 -108.999c30 1.33301 60 18.666 90 51.999s45 64.666 45 93.999zM241.999 230.999
c0 22.667 -4.66699 34 -14 34c-12 0 -18 -18.667 -18 -56c0 -10 0.666992 -18.667 2 -26c8.66699 14.667 18.667 29 30 43v5z" />
    <glyph glyph-name="Scaron" unicode="&#x160;" horiz-adv-x="905" 
d="M1161 691c0 -47.333 -25.0049 -101.333 -75.0049 -162c-52.667 -63.333 -119 -117.333 -199 -162c-99.333 -245.333 -279.666 -368 -540.999 -368c-91.333 0 -164.333 19.333 -219 58s-82 89 -82 151c0 92 53.667 168 161 228c93.333 51.333 193.333 77 300 77
c78 0 137.333 -11.333 178 -34c0 -10 -4 -15 -12 -15c-38 18.667 -85.333 28 -142 28c-101.333 0 -196.666 -27 -285.999 -81c-97.333 -59.333 -146 -129.333 -146 -210c0 -58.667 22.333 -103.167 67 -133.5s107.334 -45.5 188.001 -45.5
c192.667 0 339.334 100 440.001 300c-81.333 -31.333 -162.666 -47 -243.999 -47c-71.333 0 -123.333 10.667 -156 32c-2.66699 2.66699 -4 5.66699 -4 9c0 6 4 9 12 9c38.667 -14 84.667 -21 138 -21c96.667 0 186.334 16.333 269.001 49c14.667 32.667 29 68.667 43 108
c29.333 85.333 70.666 157 123.999 215c49.333 53.333 93 80 131 80c36.667 0 55 -21.667 55 -65zM1130 708c0 18.667 -8 28 -24 28c-30 0 -62 -25 -96 -75c-36.667 -53.333 -68 -124 -94 -212c-4.66699 -16 -10 -32.333 -16 -49c72 44 130 98.667 174 164
c37.333 55.333 56 103.333 56 144zM1261 929c0 -1.33301 -16.667 -16.667 -50 -46c-38.667 -33.333 -68.334 -64 -89.001 -92h-12c0 28 -5.33301 59 -16 93c-9.33301 32 -14.333 47 -15 45c0.666992 0.666992 1.33398 1 2.00098 1c6.66699 0 16.667 -13 30 -39
c12.667 -23.333 20 -40 22 -50c21.333 18.667 46.5 38.167 75.5 58.5s45.5 30.5 49.5 30.5c2 0 3 -0.333008 3 -1z" />
    <glyph glyph-name="scaron" unicode="&#x161;" horiz-adv-x="249" 
d="M235 332c0 -4.66699 -6.16504 -12 -18.498 -22s-18.5 -21.667 -18.5 -35c0 -11.333 2.83301 -24.666 8.5 -39.999s8.5 -32.333 8.5 -51c0 -52 -16.5 -95.667 -49.5 -131s-70.833 -53 -113.5 -53c-41.333 0 -62 19 -62 57c0 18 4.66699 32.667 14 44s19.666 17 30.999 17
c22.667 0 34 -11.667 34 -35c0 -13.333 -4.66699 -24 -14 -32s-19.333 -12 -30 -12c-6 0 -8.66699 -2 -8 -6c3.33301 -12 13 -18 29 -18c28 0 53 18 75 54s33 77 33 123c0 14.667 -3.33301 25 -10 31c-4 4.66699 -8.33301 4.66699 -13 0l-51 -54
c-3.33301 -1.33301 -7 -0.333008 -11 3s-5.66699 6.66602 -5 9.99902c15.333 16 40.666 45 75.999 87l42 55c12.667 16.667 24.667 25 36 25s17 -5.66699 17 -17zM379.002 514c0 -1.33301 -16.667 -16.667 -50 -46c-38.667 -33.333 -68.334 -64 -89.001 -92h-12
c0 28 -5.33301 59 -16 93c-10 32 -15 47 -15 45c0.666992 0.666992 1.33398 1 2.00098 1c6 0 16 -13 30 -39c12.667 -23.333 20 -40 22 -50c21.333 18.667 46.5 38.167 75.5 58.5s45.5 30.5 49.5 30.5c2 0 3 -0.333008 3 -1z" />
    <glyph glyph-name="Ydieresis" unicode="&#x178;" horiz-adv-x="1083" 
d="M1292 723c-32.667 -48 -87.6641 -150.005 -164.997 -306.005l-128 -268c-50.667 -104 -93 -176.333 -127 -217c-87.333 -106 -178 -159 -272 -159c-25.333 0 -46.166 7.5 -62.499 22.5s-24.5 34.833 -24.5 59.5c0 18.667 5.5 33.667 16.5 45s24.5 17 40.5 17
c14 0 26 -4.83301 36 -14.5s15 -22.167 15 -37.5c0 -13.333 -4.83301 -25 -14.5 -35s-20.834 -15 -33.501 -15c-8 0 -12.667 -1.33301 -14 -4s0.666992 -6.16699 6 -10.5s16 -6.5 32 -6.5c69.333 0 140 50.667 212 152c25.333 36 62.666 101.667 111.999 197l115 227
c-60.667 -74.667 -113 -135 -157 -181c-120.667 -126.667 -213.667 -190 -279 -190c-48 0 -72 25.667 -72 77c0 35.333 25.333 94.333 76 177l141 217c50.667 80.667 76 137.334 76 170.001c0 54.667 -39.333 82 -118 82c-109.333 0 -215.666 -27.667 -318.999 -83
c-87.333 -47.333 -161 -107 -221 -179c-55.333 -66.667 -83 -123.334 -83 -170.001c0 -29.333 8.66699 -51.666 26 -66.999c15.333 -13.333 34.666 -20 57.999 -20c103.333 0 204 42.333 302 127c49.333 42 96.666 92 141.999 150c42.667 54 68 94.333 76 121
c8.66699 11.333 15.667 10 21 -4c-8.66699 -29.333 -31 -70 -67 -122c-46.667 -66.667 -99.334 -123 -158.001 -169c-105.333 -84 -207 -126 -305 -126c-84.667 0 -127 40.333 -127 121c0 58.667 28.5 123.334 85.5 194.001s129.833 129.334 218.5 176.001
c98.667 52 199.667 78 303 78c144.667 0 217 -46 217 -138c0 -47.333 -26 -114.666 -78 -201.999c-20.667 -34.667 -69.334 -107 -146.001 -217c-52 -75.333 -78 -121.666 -78 -138.999c0 -18.667 11.333 -28 34 -28c54.667 0 141 63 259 189
c132 141.333 219.667 250 263 326l105 185c0.666992 2 13.334 6 38.001 12c17.333 4.66699 26 2.66699 26 -6c0 -2 -1 -4.66699 -3 -8zM1168 830.995c0 -24.667 -11 -37 -33 -37c-14 0 -21 8 -21 24c0 22.667 10 34 30 34c16 0 24 -7 24 -21zM1066 830.995
c0 -24.667 -11 -37 -33 -37c-14.667 0 -22 8 -22 24c0 22.667 10 34 30 34c16.667 0 25 -7 25 -21z" />
    <glyph glyph-name="Zcaron" unicode="&#x17d;" horiz-adv-x="1123" 
d="M1281 732c0 -15.333 -24.6699 -34.002 -74.0029 -56.002c-54 -24.667 -115.667 -42.667 -185 -54c-22 -15.333 -41.333 -31.666 -58 -48.999l-156 -178l109 -1c54 0 86.667 2 98 6c6.66699 2.66699 11 2 13 -2c1.33301 -4 -1.66699 -8 -9 -12
c-26.667 -16 -65.334 -24 -116.001 -24h-125l-117 -124c50 -22.667 117 -66.334 201 -131.001c64.667 -50 114 -75 148 -75c32.667 0 59.667 8 81 24c8.66699 0 13.334 -3.66699 14.001 -11c-12 -10.667 -30 -20.334 -54 -29.001c-30 -11.333 -59.333 -17 -88 -17
c-37.333 0 -75.333 12 -114 36c-21.333 12.667 -55.833 39.334 -103.5 80.001s-87.167 70.334 -118.5 89.001c-14 -13.333 -26 -24.333 -36 -33c-132 -118.667 -270.667 -178 -416 -178c-100 0 -150 28 -150 84c0 52.667 37.667 100.334 113 143.001
c80 45.333 174.667 68 284 68c71.333 0 139.333 -12 204 -36l98 111h-159c-10.667 0 -14.667 6 -12 18s10.334 18 23.001 18c0.666992 0 59.667 -1 177 -3c52 60 91.333 102.333 118 127c45.333 40.667 84.333 72 117 94c-32 -3.33301 -62.667 -5 -92 -5
c-71.333 0 -166.833 16.5 -286.5 49.5s-201.167 49.5 -244.5 49.5c-68.667 0 -131.667 -22 -189 -66c-53.333 -41.333 -80 -83 -80 -125c0 -19.333 2 -33.333 6 -42c-3.33301 -7.33301 -9.66602 -9 -18.999 -5c-8.66699 10.667 -13 28.667 -13 54
c0 60.667 36.333 112.667 109 156c69.333 40.667 147.333 61 234 61c54 0 156 -17.833 306 -53.5s247 -53.5 291 -53.5l92 60c60.667 35.333 110.334 53 149.001 53c20 0 30 -6 30 -18zM596.997 219.998c-59.333 30 -122.668 45 -190.001 45
c-83.333 0 -161.666 -20.667 -234.999 -62s-110 -85 -110 -131c0 -37.333 35 -56 105 -56c156 0 299.333 68 430 204zM928.995 928.998c-0.666992 -1.33301 -17.332 -16.667 -49.999 -46c-38.667 -33.333 -68.334 -64 -89.001 -92h-12c-0.666992 28 -6 59 -16 93
c-10 32 -15 47 -15 45c0 0.666992 0.666992 1 2 1c6 0 16 -13 30 -39c12 -23.333 19.333 -40 22 -50c21.333 18.667 46.333 38.167 75 58.5s45 30.5 49 30.5c2.66699 0 4 -0.333008 4 -1z" />
    <glyph glyph-name="zcaron" unicode="&#x17e;" horiz-adv-x="334" 
d="M331 286c0 -15.333 -10.333 -30.165 -31 -44.498s-40 -21.5 -58 -21.5c-6 0 -12 0.666992 -18 2c-10 -10 -20.667 -25.333 -32 -46h57c6 0 9 -3 9 -9s-3 -9 -9 -9h-67c-4.66699 -8 -10.667 -19.333 -18 -34c21.333 -6 38.333 -17 51 -33
c2.66699 -3.33301 10 -16.333 22 -39c7.33301 -12.667 15.333 -19 24 -19c14 0 28 15.667 42 47c8.66699 1.33301 13.667 -2.33398 15 -11.001c-6.66699 -14.667 -16.334 -29 -29.001 -43c-16 -18 -32.333 -27 -49 -27c-20 0 -37 12.667 -51 38
c-19.333 34.667 -32 54.667 -38 60c-36.667 -66.667 -74 -100 -112 -100c-26 0 -39 10.667 -39 32c0 23.333 12.667 45.666 38 66.999s53.666 32 84.999 32c5.33301 0 11.333 -0.333008 18 -1l15 31h-38c-6 0 -9 3 -9 9s3 9 9 9h49c12.667 19.333 26.667 36.333 42 51
l-47 27c-20 11.333 -40 17 -60 17c-14.667 0 -27 -4.83301 -37 -14.5s-15 -20.5 -15 -32.5c0 -9.33301 1.33301 -16.333 4 -21c-1.33301 -1.33301 -4 -2.66602 -8 -3.99902c-4 -0.666992 -7.33301 -0.333984 -10 0.999023c-3.33301 7.33301 -5 15.333 -5 24
c0 19.333 10.5 38.333 31.5 57s44.167 28 69.5 28c20.667 0 41.834 -7.83301 63.501 -23.5s34.834 -23.5 39.501 -23.5c30.667 24.667 55.667 37 75 37c14 0 21 -4.33301 21 -13zM132 108.001c-6 2 -12 2.99902 -18 2.99902c-20.667 0 -38.667 -9.33301 -54 -28
c-14 -15.333 -21 -30.666 -21 -45.999c0 -13.333 4.33301 -20 13 -20c22 0 48.667 30.333 80 91zM358 470c-0.666992 -1.33301 -17.333 -16.667 -50 -46c-38.667 -33.333 -68.334 -64 -89.001 -92h-12c0 28 -5.33301 59 -16 93c-10 32 -15 47 -15 45
c0.666992 0.666992 1.33398 1 2.00098 1c6 0 16 -13 30 -39c12.667 -23.333 20 -40 22 -50c21.333 18.667 46.5 38.167 75.5 58.5s45.5 30.5 49.5 30.5c2 0 3 -0.333008 3 -1z" />
    <glyph glyph-name="circumflex" unicode="&#x2c6;" horiz-adv-x="272" 
d="M217 656c-0.666992 -0.666992 -1.33398 -0.999023 -2.00098 -0.999023c-6.66699 0 -17.667 13 -33 39c-14 23.333 -22.667 40 -26 50c-20 -18.667 -43.667 -38.167 -71 -58.5s-43 -30.5 -47 -30.5c-2 0 -3 0.333008 -3 1c0 1.33301 15.667 16.666 47 45.999
c35.333 33.333 62.333 64 81 92h12c2.66699 -28 10.334 -58.5 23.001 -91.5s19 -48.5 19 -46.5z" />
    <glyph glyph-name="caron" unicode="&#x2c7;" horiz-adv-x="256" 
d="M228 792c0 -1.33301 -16.667 -16.667 -50 -46c-38.667 -33.333 -68.334 -64 -89.001 -92h-12c0 28 -5.33301 59 -16 93c-10 32 -15 47 -15 45c0.666992 0.666992 1.33398 1 2.00098 1c6 0 16 -13 30 -39c12.667 -23.333 20 -40 22 -50
c21.333 18.667 46.5 38.167 75.5 58.5s45.5 30.5 49.5 30.5c2 0 3 -0.333008 3 -1z" />
    </font>
</defs>
</svg>
